<svg xmlns="http://www.w3.org/2000/svg" width="900" height="280" viewBox="0 0 900 280">
  <title>From Δλ to Δk: linearizing k(λ)=2π/λ</title>

  <defs>
    <style>
      .axis { stroke: #000; stroke-width: 2; fill: none; }
      .thin { stroke: #000; stroke-width: 1.2; fill: none; }
      .curve { stroke: #000; stroke-width: 2.6; fill: none; }
      .dash { stroke-dasharray: 6 4; }
      .label { font-family: sans-serif; font-size: 16px; fill: #000; }
      .small { font-family: sans-serif; font-size: 13px; fill: #000; }
      .eq { font-family: sans-serif; font-size: 15px; fill: #000; }
    </style>
  </defs>

  <text class="label" x="40" y="26">From Δλ to Δk (this is the only calculus step in Step 3)</text>
  <line class="axis" x1="90" y1="220" x2="840" y2="220"/>
  <polygon points="840,220 828,214 828,226" fill="#000"/>
  <text class="small" x="850" y="225">λ</text>
  <line class="axis" x1="90" y1="220" x2="90" y2="60"/>
  <polygon points="90,60 84,72 96,72" fill="#000"/>
  <text class="small" x="55" y="70">k(λ)</text>
  <path class="curve" d="M 90.00 60.00 L 92.51 60.62 L 95.02 61.25 L 97.53 61.87 L 100.03 62.49 L 102.54 63.11 L 105.05 63.73 L 107.56 64.35 L 110.07 64.97 L 112.58 65.59 L 115.08 66.21 L 117.59 66.83 L 120.10 67.44 L 122.61 68.06 L 125.12 68.67 L 127.63 69.29 L 130.13 69.90 L 132.64 70.51 L 135.15 71.13 L 137.66 71.74 L 140.17 72.35 L 142.68 72.96 L 145.18 73.57 L 147.69 74.18 L 150.20 74.79 L 152.71 75.39 L 155.22 76.00 L 157.73 76.61 L 160.23 77.21 L 162.74 77.82 L 165.25 78.42 L 167.76 79.02 L 170.27 79.63 L 172.78 80.23 L 175.28 80.83 L 177.79 81.43 L 180.30 82.03 L 182.81 82.63 L 185.32 83.23 L 187.83 83.83 L 190.33 84.43 L 192.84 85.02 L 195.35 85.62 L 197.86 86.22 L 200.37 86.81 L 202.88 87.41 L 205.38 88.00 L 207.89 88.59 L 210.40 89.19 L 212.91 89.78 L 215.42 90.37 L 217.93 90.96 L 220.43 91.55 L 222.94 92.14 L 225.45 92.73 L 227.96 93.32 L 230.47 93.90 L 232.98 94.49 L 235.48 95.08 L 237.99 95.66 L 240.50 96.25 L 243.01 96.83 L 245.52 97.41 L 248.03 98.00 L 250.54 98.58 L 253.04 99.16 L 255.55 99.74 L 258.06 100.32 L 260.57 100.90 L 263.08 101.48 L 265.59 102.06 L 268.09 102.64 L 270.60 103.22 L 273.11 103.79 L 275.62 104.37 L 278.13 104.94 L 280.64 105.52 L 283.14 106.09 L 285.65 106.67 L 288.16 107.24 L 290.67 107.81 L 293.18 108.38 L 295.69 108.96 L 298.19 109.53 L 300.70 110.10 L 303.21 110.67 L 305.72 111.23 L 308.23 111.80 L 310.74 112.37 L 313.24 112.94 L 315.75 113.50 L 318.26 114.07 L 320.77 114.63 L 323.28 115.20 L 325.79 115.76 L 328.29 116.33 L 330.80 116.89 L 333.31 117.45 L 335.82 118.01 L 338.33 118.57 L 340.84 119.13 L 343.34 119.69 L 345.85 120.25 L 348.36 120.81 L 350.87 121.37 L 353.38 121.93 L 355.89 122.48 L 358.39 123.04 L 360.90 123.60 L 363.41 124.15 L 365.92 124.71 L 368.43 125.26 L 370.94 125.81 L 373.44 126.37 L 375.95 126.92 L 378.46 127.47 L 380.97 128.02 L 383.48 128.57 L 385.99 129.12 L 388.49 129.67 L 391.00 130.22 L 393.51 130.77 L 396.02 131.32 L 398.53 131.86 L 401.04 132.41 L 403.55 132.95 L 406.05 133.50 L 408.56 134.04 L 411.07 134.59 L 413.58 135.13 L 416.09 135.68 L 418.60 136.22 L 421.10 136.76 L 423.61 137.30 L 426.12 137.84 L 428.63 138.38 L 431.14 138.92 L 433.65 139.46 L 436.15 140.00 L 438.66 140.54 L 441.17 141.08 L 443.68 141.61 L 446.19 142.15 L 448.70 142.68 L 451.20 143.22 L 453.71 143.75 L 456.22 144.29 L 458.73 144.82 L 461.24 145.36 L 463.75 145.89 L 466.25 146.42 L 468.76 146.95 L 471.27 147.48 L 473.78 148.01 L 476.29 148.54 L 478.80 149.07 L 481.30 149.60 L 483.81 150.13 L 486.32 150.66 L 488.83 151.18 L 491.34 151.71 L 493.85 152.24 L 496.35 152.76 L 498.86 153.29 L 501.37 153.81 L 503.88 154.33 L 506.39 154.86 L 508.90 155.38 L 511.40 155.90 L 513.91 156.42 L 516.42 156.95 L 518.93 157.47 L 521.44 157.99 L 523.95 158.51 L 526.45 159.02 L 528.96 159.54 L 531.47 160.06 L 533.98 160.58 L 536.49 161.10 L 539.00 161.61 L 541.51 162.13 L 544.01 162.64 L 546.52 163.16 L 549.03 163.67 L 551.54 164.19 L 554.05 164.70 L 556.56 165.21 L 559.06 165.72 L 561.57 166.24 L 564.08 166.75 L 566.59 167.26 L 569.10 167.77 L 571.61 168.28 L 574.11 168.79 L 576.62 169.30 L 579.13 169.80 L 581.64 170.31 L 584.15 170.82 L 586.66 171.33 L 589.16 171.83 L 591.67 172.34 L 594.18 172.84 L 596.69 173.35 L 599.20 173.85 L 601.71 174.35 L 604.21 174.86 L 606.72 175.36 L 609.23 175.86 L 611.74 176.36 L 614.25 176.86 L 616.76 177.37 L 619.26 177.87 L 621.77 178.36 L 624.28 178.86 L 626.79 179.36 L 629.30 179.86 L 631.81 180.36 L 634.31 180.86 L 636.82 181.35 L 639.33 181.85 L 641.84 182.34 L 644.35 182.84 L 646.86 183.33 L 649.36 183.83 L 651.87 184.32 L 654.38 184.81 L 656.89 185.31 L 659.40 185.80 L 661.91 186.29 L 664.41 186.78 L 666.92 187.27 L 669.43 187.76 L 671.94 188.25 L 674.45 188.74 L 676.96 189.23 L 679.46 189.72 L 681.97 190.21 L 684.48 190.69 L 686.99 191.18 L 689.50 191.67 L 692.01 192.15 L 694.52 192.64 L 697.02 193.12 L 699.53 193.61 L 702.04 194.09 L 704.55 194.58 L 707.06 195.06 L 709.57 195.54 L 712.07 196.02 L 714.58 196.51 L 717.09 196.99 L 719.60 197.47 L 722.11 197.95 L 724.62 198.43 L 727.12 198.91 L 729.63 199.39 L 732.14 199.86 L 734.65 200.34 L 737.16 200.82 L 739.67 201.30 L 742.17 201.77 L 744.68 202.25 L 747.19 202.72 L 749.70 203.20 L 752.21 203.67 L 754.72 204.15 L 757.22 204.62 L 759.73 205.09 L 762.24 205.57 L 764.75 206.04 L 767.26 206.51 L 769.77 206.98 L 772.27 207.45 L 774.78 207.92 L 777.29 208.39 L 779.80 208.86 L 782.31 209.33 L 784.82 209.80 L 787.32 210.27 L 789.83 210.74 L 792.34 211.21 L 794.85 211.67 L 797.36 212.14 L 799.87 212.60 L 802.37 213.07 L 804.88 213.54 L 807.39 214.00 L 809.90 214.46 L 812.41 214.93 L 814.92 215.39 L 817.42 215.85 L 819.93 216.32 L 822.44 216.78 L 824.95 217.24 L 827.46 217.70 L 829.97 218.16 L 832.47 218.62 L 834.98 219.08 L 837.49 219.54 L 840.00 220.00"/>
  <text class="small" x="560" y="85">k(λ) = 2π/λ</text>
  <line class="thin dash" x1="390.0" y1="220" x2="390.0" y2="60"/>
  <text class="small" x="376.0" y="242">λ₀</text>
  <line class="thin dash" x1="465.0" y1="220" x2="465.0" y2="60"/>
  <text class="small" x="451.0" y="242">λ₀+Δλ</text>
  <circle cx="390.0" cy="129.99999999999991" r="4" fill="#000"/>
  <circle cx="465.0" cy="146.15384615384608" r="4" fill="#000"/>
  <line class="thin" x1="500.0" y1="129.99999999999991" x2="500.0" y2="146.15384615384608"/>
  <line class="thin" x1="494.0" y1="129.99999999999991" x2="506.0" y2="129.99999999999991"/>
  <line class="thin" x1="494.0" y1="146.15384615384608" x2="506.0" y2="146.15384615384608"/>
  <text class="small" x="510.0" y="138.07692307692298">Δk</text>
  <line class="thin dash" x1="240.0" y1="97.18749999999991" x2="540.0" y2="162.81249999999991"/>
  <text class="small" x="520.0" y="152.81249999999991">tangent</text>
  <text class="eq" x="90" y="260">Δk ≈ |dk/dλ|·Δλ,   dk/dλ = -2π/λ²</text>
</svg>
