<?xml version="1.0" encoding="utf-8" standalone="no"?>
<!DOCTYPE svg PUBLIC "-//W3C//DTD SVG 1.1//EN"
  "http://www.w3.org/Graphics/SVG/1.1/DTD/svg11.dtd">
<svg xmlns:xlink="http://www.w3.org/1999/xlink" width="900" height="446.4" viewBox="0 0 900 446.4" xmlns="http://www.w3.org/2000/svg" version="1.1">
 
 <defs>
  <style type="text/css">*{stroke-linejoin: round; stroke-linecap: butt}</style>
 </defs>
 <g id="figure_1">
  <g id="patch_1">
   <path d="M 0 446.4 
L 900 446.4 
L 900 0 
L 0 0 
z
" style="fill: #ffffff"/>
  </g>
  <g id="axes_1">
   <g id="patch_2">
    <path d="M 90 383.904 
L 882 383.904 
L 882 44.64 
L 90 44.64 
z
" style="fill: #ffffff"/>
   </g>
   <g id="matplotlib.axis_1">
    <g id="xtick_1">
     <g id="line2d_1">
      <path d="M 126 383.904 
L 126 44.64 
" clip-path="url(#pb0548c273a)" style="fill: none; stroke: #b0b0b0; stroke-opacity: 0.22; stroke-width: 0.8; stroke-linecap: square"/>
     </g>
     <g id="line2d_2">
      <defs>
       <path id="md5e5048813" d="M 0 0 
L 0 3.5 
" style="stroke: #000000; stroke-width: 2"/>
      </defs>
      <g>
       <use xlink:href="#md5e5048813" x="126" y="383.904" style="stroke: #000000; stroke-width: 2"/>
      </g>
     </g>
     <g id="text_1">
      <!-- 0 -->
      <g transform="translate(122.81875 398.502438) scale(0.1 -0.1)">
       <defs>
        <path id="DejaVuSans-30" d="M 2034 4250 
Q 1547 4250 1301 3770 
Q 1056 3291 1056 2328 
Q 1056 1369 1301 889 
Q 1547 409 2034 409 
Q 2525 409 2770 889 
Q 3016 1369 3016 2328 
Q 3016 3291 2770 3770 
Q 2525 4250 2034 4250 
z
M 2034 4750 
Q 2819 4750 3233 4129 
Q 3647 3509 3647 2328 
Q 3647 1150 3233 529 
Q 2819 -91 2034 -91 
Q 1250 -91 836 529 
Q 422 1150 422 2328 
Q 422 3509 836 4129 
Q 1250 4750 2034 4750 
z
" transform="scale(0.015625)"/>
       </defs>
       <use xlink:href="#DejaVuSans-30"/>
      </g>
     </g>
    </g>
    <g id="xtick_2">
     <g id="line2d_3">
      <path d="M 216 383.904 
L 216 44.64 
" clip-path="url(#pb0548c273a)" style="fill: none; stroke: #b0b0b0; stroke-opacity: 0.22; stroke-width: 0.8; stroke-linecap: square"/>
     </g>
     <g id="line2d_4">
      <g>
       <use xlink:href="#md5e5048813" x="216" y="383.904" style="stroke: #000000; stroke-width: 2"/>
      </g>
     </g>
     <g id="text_2">
      <!-- 20 -->
      <g transform="translate(209.6375 398.502438) scale(0.1 -0.1)">
       <defs>
        <path id="DejaVuSans-32" d="M 1228 531 
L 3431 531 
L 3431 0 
L 469 0 
L 469 531 
Q 828 903 1448 1529 
Q 2069 2156 2228 2338 
Q 2531 2678 2651 2914 
Q 2772 3150 2772 3378 
Q 2772 3750 2511 3984 
Q 2250 4219 1831 4219 
Q 1534 4219 1204 4116 
Q 875 4013 500 3803 
L 500 4441 
Q 881 4594 1212 4672 
Q 1544 4750 1819 4750 
Q 2544 4750 2975 4387 
Q 3406 4025 3406 3419 
Q 3406 3131 3298 2873 
Q 3191 2616 2906 2266 
Q 2828 2175 2409 1742 
Q 1991 1309 1228 531 
z
" transform="scale(0.015625)"/>
       </defs>
       <use xlink:href="#DejaVuSans-32"/>
       <use xlink:href="#DejaVuSans-30" x="63.623047"/>
      </g>
     </g>
    </g>
    <g id="xtick_3">
     <g id="line2d_5">
      <path d="M 306 383.904 
L 306 44.64 
" clip-path="url(#pb0548c273a)" style="fill: none; stroke: #b0b0b0; stroke-opacity: 0.22; stroke-width: 0.8; stroke-linecap: square"/>
     </g>
     <g id="line2d_6">
      <g>
       <use xlink:href="#md5e5048813" x="306" y="383.904" style="stroke: #000000; stroke-width: 2"/>
      </g>
     </g>
     <g id="text_3">
      <!-- 40 -->
      <g transform="translate(299.6375 398.502438) scale(0.1 -0.1)">
       <defs>
        <path id="DejaVuSans-34" d="M 2419 4116 
L 825 1625 
L 2419 1625 
L 2419 4116 
z
M 2253 4666 
L 3047 4666 
L 3047 1625 
L 3713 1625 
L 3713 1100 
L 3047 1100 
L 3047 0 
L 2419 0 
L 2419 1100 
L 313 1100 
L 313 1709 
L 2253 4666 
z
" transform="scale(0.015625)"/>
       </defs>
       <use xlink:href="#DejaVuSans-34"/>
       <use xlink:href="#DejaVuSans-30" x="63.623047"/>
      </g>
     </g>
    </g>
    <g id="xtick_4">
     <g id="line2d_7">
      <path d="M 396 383.904 
L 396 44.64 
" clip-path="url(#pb0548c273a)" style="fill: none; stroke: #b0b0b0; stroke-opacity: 0.22; stroke-width: 0.8; stroke-linecap: square"/>
     </g>
     <g id="line2d_8">
      <g>
       <use xlink:href="#md5e5048813" x="396" y="383.904" style="stroke: #000000; stroke-width: 2"/>
      </g>
     </g>
     <g id="text_4">
      <!-- 60 -->
      <g transform="translate(389.6375 398.502438) scale(0.1 -0.1)">
       <defs>
        <path id="DejaVuSans-36" d="M 2113 2584 
Q 1688 2584 1439 2293 
Q 1191 2003 1191 1497 
Q 1191 994 1439 701 
Q 1688 409 2113 409 
Q 2538 409 2786 701 
Q 3034 994 3034 1497 
Q 3034 2003 2786 2293 
Q 2538 2584 2113 2584 
z
M 3366 4563 
L 3366 3988 
Q 3128 4100 2886 4159 
Q 2644 4219 2406 4219 
Q 1781 4219 1451 3797 
Q 1122 3375 1075 2522 
Q 1259 2794 1537 2939 
Q 1816 3084 2150 3084 
Q 2853 3084 3261 2657 
Q 3669 2231 3669 1497 
Q 3669 778 3244 343 
Q 2819 -91 2113 -91 
Q 1303 -91 875 529 
Q 447 1150 447 2328 
Q 447 3434 972 4092 
Q 1497 4750 2381 4750 
Q 2619 4750 2861 4703 
Q 3103 4656 3366 4563 
z
" transform="scale(0.015625)"/>
       </defs>
       <use xlink:href="#DejaVuSans-36"/>
       <use xlink:href="#DejaVuSans-30" x="63.623047"/>
      </g>
     </g>
    </g>
    <g id="xtick_5">
     <g id="line2d_9">
      <path d="M 486 383.904 
L 486 44.64 
" clip-path="url(#pb0548c273a)" style="fill: none; stroke: #b0b0b0; stroke-opacity: 0.22; stroke-width: 0.8; stroke-linecap: square"/>
     </g>
     <g id="line2d_10">
      <g>
       <use xlink:href="#md5e5048813" x="486" y="383.904" style="stroke: #000000; stroke-width: 2"/>
      </g>
     </g>
     <g id="text_5">
      <!-- 80 -->
      <g transform="translate(479.6375 398.502438) scale(0.1 -0.1)">
       <defs>
        <path id="DejaVuSans-38" d="M 2034 2216 
Q 1584 2216 1326 1975 
Q 1069 1734 1069 1313 
Q 1069 891 1326 650 
Q 1584 409 2034 409 
Q 2484 409 2743 651 
Q 3003 894 3003 1313 
Q 3003 1734 2745 1975 
Q 2488 2216 2034 2216 
z
M 1403 2484 
Q 997 2584 770 2862 
Q 544 3141 544 3541 
Q 544 4100 942 4425 
Q 1341 4750 2034 4750 
Q 2731 4750 3128 4425 
Q 3525 4100 3525 3541 
Q 3525 3141 3298 2862 
Q 3072 2584 2669 2484 
Q 3125 2378 3379 2068 
Q 3634 1759 3634 1313 
Q 3634 634 3220 271 
Q 2806 -91 2034 -91 
Q 1263 -91 848 271 
Q 434 634 434 1313 
Q 434 1759 690 2068 
Q 947 2378 1403 2484 
z
M 1172 3481 
Q 1172 3119 1398 2916 
Q 1625 2713 2034 2713 
Q 2441 2713 2670 2916 
Q 2900 3119 2900 3481 
Q 2900 3844 2670 4047 
Q 2441 4250 2034 4250 
Q 1625 4250 1398 4047 
Q 1172 3844 1172 3481 
z
" transform="scale(0.015625)"/>
       </defs>
       <use xlink:href="#DejaVuSans-38"/>
       <use xlink:href="#DejaVuSans-30" x="63.623047"/>
      </g>
     </g>
    </g>
    <g id="xtick_6">
     <g id="line2d_11">
      <path d="M 576 383.904 
L 576 44.64 
" clip-path="url(#pb0548c273a)" style="fill: none; stroke: #b0b0b0; stroke-opacity: 0.22; stroke-width: 0.8; stroke-linecap: square"/>
     </g>
     <g id="line2d_12">
      <g>
       <use xlink:href="#md5e5048813" x="576" y="383.904" style="stroke: #000000; stroke-width: 2"/>
      </g>
     </g>
     <g id="text_6">
      <!-- 100 -->
      <g transform="translate(566.45625 398.502438) scale(0.1 -0.1)">
       <defs>
        <path id="DejaVuSans-31" d="M 794 531 
L 1825 531 
L 1825 4091 
L 703 3866 
L 703 4441 
L 1819 4666 
L 2450 4666 
L 2450 531 
L 3481 531 
L 3481 0 
L 794 0 
L 794 531 
z
" transform="scale(0.015625)"/>
       </defs>
       <use xlink:href="#DejaVuSans-31"/>
       <use xlink:href="#DejaVuSans-30" x="63.623047"/>
       <use xlink:href="#DejaVuSans-30" x="127.246094"/>
      </g>
     </g>
    </g>
    <g id="xtick_7">
     <g id="line2d_13">
      <path d="M 666 383.904 
L 666 44.64 
" clip-path="url(#pb0548c273a)" style="fill: none; stroke: #b0b0b0; stroke-opacity: 0.22; stroke-width: 0.8; stroke-linecap: square"/>
     </g>
     <g id="line2d_14">
      <g>
       <use xlink:href="#md5e5048813" x="666" y="383.904" style="stroke: #000000; stroke-width: 2"/>
      </g>
     </g>
     <g id="text_7">
      <!-- 120 -->
      <g transform="translate(656.45625 398.502438) scale(0.1 -0.1)">
       <use xlink:href="#DejaVuSans-31"/>
       <use xlink:href="#DejaVuSans-32" x="63.623047"/>
       <use xlink:href="#DejaVuSans-30" x="127.246094"/>
      </g>
     </g>
    </g>
    <g id="xtick_8">
     <g id="line2d_15">
      <path d="M 756 383.904 
L 756 44.64 
" clip-path="url(#pb0548c273a)" style="fill: none; stroke: #b0b0b0; stroke-opacity: 0.22; stroke-width: 0.8; stroke-linecap: square"/>
     </g>
     <g id="line2d_16">
      <g>
       <use xlink:href="#md5e5048813" x="756" y="383.904" style="stroke: #000000; stroke-width: 2"/>
      </g>
     </g>
     <g id="text_8">
      <!-- 140 -->
      <g transform="translate(746.45625 398.502438) scale(0.1 -0.1)">
       <use xlink:href="#DejaVuSans-31"/>
       <use xlink:href="#DejaVuSans-34" x="63.623047"/>
       <use xlink:href="#DejaVuSans-30" x="127.246094"/>
      </g>
     </g>
    </g>
    <g id="xtick_9">
     <g id="line2d_17">
      <path d="M 846 383.904 
L 846 44.64 
" clip-path="url(#pb0548c273a)" style="fill: none; stroke: #b0b0b0; stroke-opacity: 0.22; stroke-width: 0.8; stroke-linecap: square"/>
     </g>
     <g id="line2d_18">
      <g>
       <use xlink:href="#md5e5048813" x="846" y="383.904" style="stroke: #000000; stroke-width: 2"/>
      </g>
     </g>
     <g id="text_9">
      <!-- 160 -->
      <g transform="translate(836.45625 398.502438) scale(0.1 -0.1)">
       <use xlink:href="#DejaVuSans-31"/>
       <use xlink:href="#DejaVuSans-36" x="63.623047"/>
       <use xlink:href="#DejaVuSans-30" x="127.246094"/>
      </g>
     </g>
    </g>
    <g id="text_10">
     <!-- time [ps] -->
     <g transform="translate(463.434375 412.180563) scale(0.1 -0.1)">
      <defs>
       <path id="DejaVuSans-74" d="M 1172 4494 
L 1172 3500 
L 2356 3500 
L 2356 3053 
L 1172 3053 
L 1172 1153 
Q 1172 725 1289 603 
Q 1406 481 1766 481 
L 2356 481 
L 2356 0 
L 1766 0 
Q 1100 0 847 248 
Q 594 497 594 1153 
L 594 3053 
L 172 3053 
L 172 3500 
L 594 3500 
L 594 4494 
L 1172 4494 
z
" transform="scale(0.015625)"/>
       <path id="DejaVuSans-69" d="M 603 3500 
L 1178 3500 
L 1178 0 
L 603 0 
L 603 3500 
z
M 603 4863 
L 1178 4863 
L 1178 4134 
L 603 4134 
L 603 4863 
z
" transform="scale(0.015625)"/>
       <path id="DejaVuSans-6d" d="M 3328 2828 
Q 3544 3216 3844 3400 
Q 4144 3584 4550 3584 
Q 5097 3584 5394 3201 
Q 5691 2819 5691 2113 
L 5691 0 
L 5113 0 
L 5113 2094 
Q 5113 2597 4934 2840 
Q 4756 3084 4391 3084 
Q 3944 3084 3684 2787 
Q 3425 2491 3425 1978 
L 3425 0 
L 2847 0 
L 2847 2094 
Q 2847 2600 2669 2842 
Q 2491 3084 2119 3084 
Q 1678 3084 1418 2786 
Q 1159 2488 1159 1978 
L 1159 0 
L 581 0 
L 581 3500 
L 1159 3500 
L 1159 2956 
Q 1356 3278 1631 3431 
Q 1906 3584 2284 3584 
Q 2666 3584 2933 3390 
Q 3200 3197 3328 2828 
z
" transform="scale(0.015625)"/>
       <path id="DejaVuSans-65" d="M 3597 1894 
L 3597 1613 
L 953 1613 
Q 991 1019 1311 708 
Q 1631 397 2203 397 
Q 2534 397 2845 478 
Q 3156 559 3463 722 
L 3463 178 
Q 3153 47 2828 -22 
Q 2503 -91 2169 -91 
Q 1331 -91 842 396 
Q 353 884 353 1716 
Q 353 2575 817 3079 
Q 1281 3584 2069 3584 
Q 2775 3584 3186 3129 
Q 3597 2675 3597 1894 
z
M 3022 2063 
Q 3016 2534 2758 2815 
Q 2500 3097 2075 3097 
Q 1594 3097 1305 2825 
Q 1016 2553 972 2059 
L 3022 2063 
z
" transform="scale(0.015625)"/>
       <path id="DejaVuSans-20" transform="scale(0.015625)"/>
       <path id="DejaVuSans-5b" d="M 550 4863 
L 1875 4863 
L 1875 4416 
L 1125 4416 
L 1125 -397 
L 1875 -397 
L 1875 -844 
L 550 -844 
L 550 4863 
z
" transform="scale(0.015625)"/>
       <path id="DejaVuSans-70" d="M 1159 525 
L 1159 -1331 
L 581 -1331 
L 581 3500 
L 1159 3500 
L 1159 2969 
Q 1341 3281 1617 3432 
Q 1894 3584 2278 3584 
Q 2916 3584 3314 3078 
Q 3713 2572 3713 1747 
Q 3713 922 3314 415 
Q 2916 -91 2278 -91 
Q 1894 -91 1617 61 
Q 1341 213 1159 525 
z
M 3116 1747 
Q 3116 2381 2855 2742 
Q 2594 3103 2138 3103 
Q 1681 3103 1420 2742 
Q 1159 2381 1159 1747 
Q 1159 1113 1420 752 
Q 1681 391 2138 391 
Q 2594 391 2855 752 
Q 3116 1113 3116 1747 
z
" transform="scale(0.015625)"/>
       <path id="DejaVuSans-73" d="M 2834 3397 
L 2834 2853 
Q 2591 2978 2328 3040 
Q 2066 3103 1784 3103 
Q 1356 3103 1142 2972 
Q 928 2841 928 2578 
Q 928 2378 1081 2264 
Q 1234 2150 1697 2047 
L 1894 2003 
Q 2506 1872 2764 1633 
Q 3022 1394 3022 966 
Q 3022 478 2636 193 
Q 2250 -91 1575 -91 
Q 1294 -91 989 -36 
Q 684 19 347 128 
L 347 722 
Q 666 556 975 473 
Q 1284 391 1588 391 
Q 1994 391 2212 530 
Q 2431 669 2431 922 
Q 2431 1156 2273 1281 
Q 2116 1406 1581 1522 
L 1381 1569 
Q 847 1681 609 1914 
Q 372 2147 372 2553 
Q 372 3047 722 3315 
Q 1072 3584 1716 3584 
Q 2034 3584 2315 3537 
Q 2597 3491 2834 3397 
z
" transform="scale(0.015625)"/>
       <path id="DejaVuSans-5d" d="M 1947 4863 
L 1947 -844 
L 622 -844 
L 622 -397 
L 1369 -397 
L 1369 4416 
L 622 4416 
L 622 4863 
L 1947 4863 
z
" transform="scale(0.015625)"/>
      </defs>
      <use xlink:href="#DejaVuSans-74"/>
      <use xlink:href="#DejaVuSans-69" x="39.208984"/>
      <use xlink:href="#DejaVuSans-6d" x="66.992188"/>
      <use xlink:href="#DejaVuSans-65" x="164.404297"/>
      <use xlink:href="#DejaVuSans-20" x="225.927734"/>
      <use xlink:href="#DejaVuSans-5b" x="257.714844"/>
      <use xlink:href="#DejaVuSans-70" x="296.728516"/>
      <use xlink:href="#DejaVuSans-73" x="360.205078"/>
      <use xlink:href="#DejaVuSans-5d" x="412.304688"/>
     </g>
    </g>
   </g>
   <g id="matplotlib.axis_2">
    <g id="text_11">
     <!-- Normalized intensity I(t)/⟨I⟩$_t$ + offset [a.u.] -->
     <g transform="translate(83.9 320.022) rotate(-90) scale(0.1 -0.1)">
      <defs>
       <path id="DejaVuSans-4e" d="M 628 4666 
L 1478 4666 
L 3547 763 
L 3547 4666 
L 4159 4666 
L 4159 0 
L 3309 0 
L 1241 3903 
L 1241 0 
L 628 0 
L 628 4666 
z
" transform="scale(0.015625)"/>
       <path id="DejaVuSans-6f" d="M 1959 3097 
Q 1497 3097 1228 2736 
Q 959 2375 959 1747 
Q 959 1119 1226 758 
Q 1494 397 1959 397 
Q 2419 397 2687 759 
Q 2956 1122 2956 1747 
Q 2956 2369 2687 2733 
Q 2419 3097 1959 3097 
z
M 1959 3584 
Q 2709 3584 3137 3096 
Q 3566 2609 3566 1747 
Q 3566 888 3137 398 
Q 2709 -91 1959 -91 
Q 1206 -91 779 398 
Q 353 888 353 1747 
Q 353 2609 779 3096 
Q 1206 3584 1959 3584 
z
" transform="scale(0.015625)"/>
       <path id="DejaVuSans-72" d="M 2631 2963 
Q 2534 3019 2420 3045 
Q 2306 3072 2169 3072 
Q 1681 3072 1420 2755 
Q 1159 2438 1159 1844 
L 1159 0 
L 581 0 
L 581 3500 
L 1159 3500 
L 1159 2956 
Q 1341 3275 1631 3429 
Q 1922 3584 2338 3584 
Q 2397 3584 2469 3576 
Q 2541 3569 2628 3553 
L 2631 2963 
z
" transform="scale(0.015625)"/>
       <path id="DejaVuSans-61" d="M 2194 1759 
Q 1497 1759 1228 1600 
Q 959 1441 959 1056 
Q 959 750 1161 570 
Q 1363 391 1709 391 
Q 2188 391 2477 730 
Q 2766 1069 2766 1631 
L 2766 1759 
L 2194 1759 
z
M 3341 1997 
L 3341 0 
L 2766 0 
L 2766 531 
Q 2569 213 2275 61 
Q 1981 -91 1556 -91 
Q 1019 -91 701 211 
Q 384 513 384 1019 
Q 384 1609 779 1909 
Q 1175 2209 1959 2209 
L 2766 2209 
L 2766 2266 
Q 2766 2663 2505 2880 
Q 2244 3097 1772 3097 
Q 1472 3097 1187 3025 
Q 903 2953 641 2809 
L 641 3341 
Q 956 3463 1253 3523 
Q 1550 3584 1831 3584 
Q 2591 3584 2966 3190 
Q 3341 2797 3341 1997 
z
" transform="scale(0.015625)"/>
       <path id="DejaVuSans-6c" d="M 603 4863 
L 1178 4863 
L 1178 0 
L 603 0 
L 603 4863 
z
" transform="scale(0.015625)"/>
       <path id="DejaVuSans-7a" d="M 353 3500 
L 3084 3500 
L 3084 2975 
L 922 459 
L 3084 459 
L 3084 0 
L 275 0 
L 275 525 
L 2438 3041 
L 353 3041 
L 353 3500 
z
" transform="scale(0.015625)"/>
       <path id="DejaVuSans-64" d="M 2906 2969 
L 2906 4863 
L 3481 4863 
L 3481 0 
L 2906 0 
L 2906 525 
Q 2725 213 2448 61 
Q 2172 -91 1784 -91 
Q 1150 -91 751 415 
Q 353 922 353 1747 
Q 353 2572 751 3078 
Q 1150 3584 1784 3584 
Q 2172 3584 2448 3432 
Q 2725 3281 2906 2969 
z
M 947 1747 
Q 947 1113 1208 752 
Q 1469 391 1925 391 
Q 2381 391 2643 752 
Q 2906 1113 2906 1747 
Q 2906 2381 2643 2742 
Q 2381 3103 1925 3103 
Q 1469 3103 1208 2742 
Q 947 2381 947 1747 
z
" transform="scale(0.015625)"/>
       <path id="DejaVuSans-6e" d="M 3513 2113 
L 3513 0 
L 2938 0 
L 2938 2094 
Q 2938 2591 2744 2837 
Q 2550 3084 2163 3084 
Q 1697 3084 1428 2787 
Q 1159 2491 1159 1978 
L 1159 0 
L 581 0 
L 581 3500 
L 1159 3500 
L 1159 2956 
Q 1366 3272 1645 3428 
Q 1925 3584 2291 3584 
Q 2894 3584 3203 3211 
Q 3513 2838 3513 2113 
z
" transform="scale(0.015625)"/>
       <path id="DejaVuSans-79" d="M 2059 -325 
Q 1816 -950 1584 -1140 
Q 1353 -1331 966 -1331 
L 506 -1331 
L 506 -850 
L 844 -850 
Q 1081 -850 1212 -737 
Q 1344 -625 1503 -206 
L 1606 56 
L 191 3500 
L 800 3500 
L 1894 763 
L 2988 3500 
L 3597 3500 
L 2059 -325 
z
" transform="scale(0.015625)"/>
       <path id="DejaVuSans-49" d="M 628 4666 
L 1259 4666 
L 1259 0 
L 628 0 
L 628 4666 
z
" transform="scale(0.015625)"/>
       <path id="DejaVuSans-28" d="M 1984 4856 
Q 1566 4138 1362 3434 
Q 1159 2731 1159 2009 
Q 1159 1288 1364 580 
Q 1569 -128 1984 -844 
L 1484 -844 
Q 1016 -109 783 600 
Q 550 1309 550 2009 
Q 550 2706 781 3412 
Q 1013 4119 1484 4856 
L 1984 4856 
z
" transform="scale(0.015625)"/>
       <path id="DejaVuSans-29" d="M 513 4856 
L 1013 4856 
Q 1481 4119 1714 3412 
Q 1947 2706 1947 2009 
Q 1947 1309 1714 600 
Q 1481 -109 1013 -844 
L 513 -844 
Q 928 -128 1133 580 
Q 1338 1288 1338 2009 
Q 1338 2731 1133 3434 
Q 928 4138 513 4856 
z
" transform="scale(0.015625)"/>
       <path id="DejaVuSans-2f" d="M 1625 4666 
L 2156 4666 
L 531 -594 
L 0 -594 
L 1625 4666 
z
" transform="scale(0.015625)"/>
       <path id="DejaVuSans-27e8" d="M 572 2006 
L 1453 4856 
L 1984 4856 
L 1103 2006 
L 1984 -844 
L 1453 -844 
L 572 2006 
z
" transform="scale(0.015625)"/>
       <path id="DejaVuSans-27e9" d="M 1925 2006 
L 1044 -844 
L 513 -844 
L 1394 2006 
L 513 4856 
L 1044 4856 
L 1925 2006 
z
" transform="scale(0.015625)"/>
       <path id="DejaVuSans-Oblique-74" d="M 2706 3500 
L 2619 3053 
L 1472 3053 
L 1100 1153 
Q 1081 1047 1072 975 
Q 1063 903 1063 863 
Q 1063 663 1183 572 
Q 1303 481 1569 481 
L 2150 481 
L 2053 0 
L 1503 0 
Q 991 0 739 200 
Q 488 400 488 806 
Q 488 878 497 964 
Q 506 1050 525 1153 
L 897 3053 
L 409 3053 
L 500 3500 
L 978 3500 
L 1172 4494 
L 1747 4494 
L 1556 3500 
L 2706 3500 
z
" transform="scale(0.015625)"/>
       <path id="DejaVuSans-2b" d="M 2944 4013 
L 2944 2272 
L 4684 2272 
L 4684 1741 
L 2944 1741 
L 2944 0 
L 2419 0 
L 2419 1741 
L 678 1741 
L 678 2272 
L 2419 2272 
L 2419 4013 
L 2944 4013 
z
" transform="scale(0.015625)"/>
       <path id="DejaVuSans-66" d="M 2375 4863 
L 2375 4384 
L 1825 4384 
Q 1516 4384 1395 4259 
Q 1275 4134 1275 3809 
L 1275 3500 
L 2222 3500 
L 2222 3053 
L 1275 3053 
L 1275 0 
L 697 0 
L 697 3053 
L 147 3053 
L 147 3500 
L 697 3500 
L 697 3744 
Q 697 4328 969 4595 
Q 1241 4863 1831 4863 
L 2375 4863 
z
" transform="scale(0.015625)"/>
       <path id="DejaVuSans-2e" d="M 684 794 
L 1344 794 
L 1344 0 
L 684 0 
L 684 794 
z
" transform="scale(0.015625)"/>
       <path id="DejaVuSans-75" d="M 544 1381 
L 544 3500 
L 1119 3500 
L 1119 1403 
Q 1119 906 1312 657 
Q 1506 409 1894 409 
Q 2359 409 2629 706 
Q 2900 1003 2900 1516 
L 2900 3500 
L 3475 3500 
L 3475 0 
L 2900 0 
L 2900 538 
Q 2691 219 2414 64 
Q 2138 -91 1772 -91 
Q 1169 -91 856 284 
Q 544 659 544 1381 
z
M 1991 3584 
L 1991 3584 
z
" transform="scale(0.015625)"/>
      </defs>
      <use xlink:href="#DejaVuSans-4e" transform="translate(0 0.015625)"/>
      <use xlink:href="#DejaVuSans-6f" transform="translate(74.804688 0.015625)"/>
      <use xlink:href="#DejaVuSans-72" transform="translate(135.986328 0.015625)"/>
      <use xlink:href="#DejaVuSans-6d" transform="translate(177.099609 0.015625)"/>
      <use xlink:href="#DejaVuSans-61" transform="translate(274.511719 0.015625)"/>
      <use xlink:href="#DejaVuSans-6c" transform="translate(335.791016 0.015625)"/>
      <use xlink:href="#DejaVuSans-69" transform="translate(363.574219 0.015625)"/>
      <use xlink:href="#DejaVuSans-7a" transform="translate(391.357422 0.015625)"/>
      <use xlink:href="#DejaVuSans-65" transform="translate(443.847656 0.015625)"/>
      <use xlink:href="#DejaVuSans-64" transform="translate(505.371094 0.015625)"/>
      <use xlink:href="#DejaVuSans-20" transform="translate(568.847656 0.015625)"/>
      <use xlink:href="#DejaVuSans-69" transform="translate(600.634766 0.015625)"/>
      <use xlink:href="#DejaVuSans-6e" transform="translate(628.417969 0.015625)"/>
      <use xlink:href="#DejaVuSans-74" transform="translate(691.796875 0.015625)"/>
      <use xlink:href="#DejaVuSans-65" transform="translate(731.005859 0.015625)"/>
      <use xlink:href="#DejaVuSans-6e" transform="translate(792.529297 0.015625)"/>
      <use xlink:href="#DejaVuSans-73" transform="translate(855.908203 0.015625)"/>
      <use xlink:href="#DejaVuSans-69" transform="translate(908.007812 0.015625)"/>
      <use xlink:href="#DejaVuSans-74" transform="translate(935.791016 0.015625)"/>
      <use xlink:href="#DejaVuSans-79" transform="translate(975 0.015625)"/>
      <use xlink:href="#DejaVuSans-20" transform="translate(1034.179688 0.015625)"/>
      <use xlink:href="#DejaVuSans-49" transform="translate(1065.966797 0.015625)"/>
      <use xlink:href="#DejaVuSans-28" transform="translate(1095.458984 0.015625)"/>
      <use xlink:href="#DejaVuSans-74" transform="translate(1134.472656 0.015625)"/>
      <use xlink:href="#DejaVuSans-29" transform="translate(1173.681641 0.015625)"/>
      <use xlink:href="#DejaVuSans-2f" transform="translate(1212.695312 0.015625)"/>
      <use xlink:href="#DejaVuSans-27e8" transform="translate(1246.386719 0.015625)"/>
      <use xlink:href="#DejaVuSans-49" transform="translate(1285.400391 0.015625)"/>
      <use xlink:href="#DejaVuSans-27e9" transform="translate(1314.892578 0.015625)"/>
      <use xlink:href="#DejaVuSans-Oblique-74" transform="translate(1354.863281 -16.390625) scale(0.7)"/>
      <use xlink:href="#DejaVuSans-20" transform="translate(1385.043945 0.015625)"/>
      <use xlink:href="#DejaVuSans-2b" transform="translate(1416.831055 0.015625)"/>
      <use xlink:href="#DejaVuSans-20" transform="translate(1500.620117 0.015625)"/>
      <use xlink:href="#DejaVuSans-6f" transform="translate(1532.407227 0.015625)"/>
      <use xlink:href="#DejaVuSans-66" transform="translate(1593.588867 0.015625)"/>
      <use xlink:href="#DejaVuSans-66" transform="translate(1628.793945 0.015625)"/>
      <use xlink:href="#DejaVuSans-73" transform="translate(1663.999023 0.015625)"/>
      <use xlink:href="#DejaVuSans-65" transform="translate(1716.098633 0.015625)"/>
      <use xlink:href="#DejaVuSans-74" transform="translate(1777.62207 0.015625)"/>
      <use xlink:href="#DejaVuSans-20" transform="translate(1816.831055 0.015625)"/>
      <use xlink:href="#DejaVuSans-5b" transform="translate(1848.618164 0.015625)"/>
      <use xlink:href="#DejaVuSans-61" transform="translate(1887.631836 0.015625)"/>
      <use xlink:href="#DejaVuSans-2e" transform="translate(1948.911133 0.015625)"/>
      <use xlink:href="#DejaVuSans-75" transform="translate(1980.698242 0.015625)"/>
      <use xlink:href="#DejaVuSans-2e" transform="translate(2044.077148 0.015625)"/>
      <use xlink:href="#DejaVuSans-5d" transform="translate(2075.864258 0.015625)"/>
     </g>
    </g>
   </g>
   <g id="line2d_19">
    <path d="M 126 367.334832 
L 130.5 367.405762 
L 135 367.218069 
L 148.5 366.133435 
L 153 365.947904 
L 157.5 365.923148 
L 184.5 366.443681 
L 193.5 366.570538 
L 202.5 367.031006 
L 220.5 368.196628 
L 229.5 368.437812 
L 234 368.38707 
L 238.5 368.187776 
L 247.5 367.410805 
L 252 366.994098 
L 256.5 366.727852 
L 261 366.722543 
L 265.5 367.010458 
L 279 368.414196 
L 283.5 368.426172 
L 288 368.045098 
L 297 366.673757 
L 301.5 366.181594 
L 306 366.092999 
L 310.5 366.437773 
L 324 368.283147 
L 328.5 368.482909 
L 333 368.400905 
L 342 368.049437 
L 346.5 368.080454 
L 355.5 368.392809 
L 360 368.286638 
L 364.5 367.793985 
L 369 366.950973 
L 373.5 365.98543 
L 378 365.236224 
L 382.5 365.007124 
L 387 365.421449 
L 391.5 366.347674 
L 396 367.436087 
L 400.5 368.255943 
L 405 368.475016 
L 409.5 368.001905 
L 423 365.173282 
L 427.5 365.010741 
L 432 365.489368 
L 441 367.363192 
L 445.5 368.052849 
L 450 368.272456 
L 454.5 368.046736 
L 463.5 367.124572 
L 468 366.897439 
L 472.5 366.960223 
L 490.5 368.005057 
L 508.5 368.284677 
L 513 368.149254 
L 517.5 367.62815 
L 522 366.591175 
L 526.5 365.058029 
L 535.5 361.453363 
L 540 360.111142 
L 544.5 359.510827 
L 549 359.786053 
L 553.5 360.862417 
L 558 362.489313 
L 562.5 364.320587 
L 567 366.011601 
L 571.5 367.301027 
L 576 368.058006 
L 580.5 368.290819 
L 585 368.124282 
L 594 367.404248 
L 598.5 367.243546 
L 603 367.356088 
L 616.5 368.270086 
L 621 368.012219 
L 625.5 367.18886 
L 630 365.88087 
L 634.5 364.385127 
L 639 363.138632 
L 643.5 362.567373 
L 648 362.911716 
L 652.5 364.099854 
L 657 365.730884 
L 661.5 367.189439 
L 666 367.859266 
L 670.5 367.357133 
L 675 365.692824 
L 684 360.822751 
L 688.5 359.014741 
L 693 358.339113 
L 697.5 358.87983 
L 702 360.322501 
L 706.5 362.104002 
L 711 363.649514 
L 715.5 364.595385 
L 720 364.905905 
L 729 364.799715 
L 733.5 365.111392 
L 738 365.876867 
L 747 367.879785 
L 751.5 368.368264 
L 756 368.164375 
L 760.5 367.313754 
L 769.5 365.022733 
L 774 364.426255 
L 778.5 364.5405 
L 783 365.309714 
L 792 367.545808 
L 796.5 368.248482 
L 801 368.355144 
L 805.5 367.88495 
L 819 365.452897 
L 823.5 365.169322 
L 828 365.319535 
L 832.5 365.799156 
L 841.5 366.983664 
L 846 367.334832 
L 846 367.334832 
" clip-path="url(#pb0548c273a)" style="fill: none; stroke: #1f77b4; stroke-width: 2.2; stroke-linecap: square"/>
   </g>
   <g id="line2d_20">
    <path d="M 126 355.831733 
L 130.5 355.736804 
L 135 355.463801 
L 148.5 354.356096 
L 153 354.206573 
L 157.5 354.247307 
L 166.5 354.724072 
L 171 354.981417 
L 175.5 355.119197 
L 180 355.060277 
L 184.5 354.760661 
L 189 354.215473 
L 193.5 353.462996 
L 202.5 351.720837 
L 207 351.025292 
L 211.5 350.669613 
L 216 350.781919 
L 220.5 351.401266 
L 225 352.443249 
L 234 354.878499 
L 238.5 355.686739 
L 243 355.916183 
L 247.5 355.515779 
L 252 354.61295 
L 261 352.43169 
L 265.5 351.761607 
L 270 351.625702 
L 274.5 352.02772 
L 279 352.835436 
L 288 354.807958 
L 292.5 355.555206 
L 297 355.939802 
L 301.5 355.873042 
L 306 355.312404 
L 310.5 354.271171 
L 315 352.843717 
L 324 349.730635 
L 328.5 348.69771 
L 333 348.434193 
L 337.5 349.080947 
L 342 350.534391 
L 351 354.293701 
L 355.5 355.586148 
L 360 356.000784 
L 364.5 355.522661 
L 373.5 353.260327 
L 378 352.453493 
L 382.5 352.323774 
L 387 352.869403 
L 396 354.719826 
L 400.5 355.230543 
L 405 355.182008 
L 409.5 354.684162 
L 414 354.047108 
L 418.5 353.622625 
L 423 353.633595 
L 427.5 354.072643 
L 432 354.716443 
L 436.5 355.245512 
L 441 355.408369 
L 445.5 355.148325 
L 454.5 354.156989 
L 459 354.011716 
L 463.5 354.314505 
L 472.5 355.641332 
L 477 356.039128 
L 481.5 355.934548 
L 486 355.340588 
L 495 353.754245 
L 499.5 353.423969 
L 504 353.625039 
L 508.5 354.241189 
L 513 354.982503 
L 517.5 355.528242 
L 522 355.679235 
L 526.5 355.4461 
L 535.5 354.720152 
L 540 354.722942 
L 544.5 355.065743 
L 549 355.56249 
L 553.5 355.894037 
L 558 355.752187 
L 562.5 354.982161 
L 567 353.658823 
L 576 350.581885 
L 580.5 349.553022 
L 585 349.165441 
L 589.5 349.410282 
L 594 350.119699 
L 607.5 352.824971 
L 612 353.472485 
L 616.5 353.945771 
L 621 354.256051 
L 625.5 354.405546 
L 630 354.399551 
L 643.5 354.07782 
L 648 354.243165 
L 652.5 354.6489 
L 661.5 355.619837 
L 666 355.654914 
L 670.5 355.059612 
L 675 353.777155 
L 679.5 351.986411 
L 684 350.073923 
L 688.5 348.520744 
L 693 347.743858 
L 697.5 347.953053 
L 702 349.079483 
L 706.5 350.803618 
L 711 352.670287 
L 715.5 354.244484 
L 720 355.247643 
L 724.5 355.625383 
L 729 355.527962 
L 738 354.963839 
L 742.5 354.919419 
L 747 355.104777 
L 756 355.693814 
L 760.5 355.802902 
L 765 355.688076 
L 783 354.539269 
L 787.5 354.551706 
L 805.5 355.12343 
L 828 355.021719 
L 846 355.831733 
L 846 355.831733 
" clip-path="url(#pb0548c273a)" style="fill: none; stroke: #ff7f0e; stroke-width: 2.2; stroke-linecap: square"/>
   </g>
   <g id="line2d_21">
    <path d="M 126 340.228754 
L 130.5 339.576867 
L 135 339.193916 
L 139.5 339.13472 
L 144 339.38699 
L 148.5 339.88453 
L 166.5 342.505086 
L 171 342.983897 
L 175.5 343.315478 
L 180 343.46695 
L 184.5 343.404685 
L 189 343.107753 
L 193.5 342.587334 
L 207 340.485438 
L 211.5 340.01774 
L 216 339.839785 
L 220.5 339.970539 
L 225 340.358346 
L 243 342.44668 
L 252 342.994984 
L 261 343.208603 
L 265.5 343.170189 
L 274.5 342.752859 
L 283.5 342.199572 
L 288 342.101227 
L 292.5 342.209831 
L 306 343.147241 
L 310.5 343.18408 
L 315 342.897528 
L 319.5 342.322484 
L 328.5 340.970702 
L 333 340.612642 
L 337.5 340.649113 
L 342 341.063814 
L 355.5 342.943186 
L 360 343.222062 
L 364.5 343.258429 
L 373.5 343.084714 
L 378 343.128864 
L 391.5 343.59762 
L 396 343.348922 
L 400.5 342.650459 
L 405 341.484994 
L 409.5 339.952916 
L 418.5 336.584062 
L 423 335.1857 
L 427.5 334.207757 
L 432 333.743374 
L 436.5 333.824077 
L 441 334.430903 
L 445.5 335.501383 
L 450 336.928654 
L 459 340.189414 
L 463.5 341.600647 
L 468 342.583272 
L 472.5 342.992245 
L 477 342.787622 
L 481.5 342.053551 
L 495 338.876448 
L 499.5 338.296069 
L 504 338.192518 
L 508.5 338.546971 
L 513 339.247544 
L 526.5 341.810256 
L 531 342.390796 
L 535.5 342.743993 
L 540 342.882977 
L 544.5 342.843933 
L 553.5 342.408266 
L 571.5 341.268777 
L 576 341.152099 
L 580.5 341.159253 
L 585 341.295876 
L 594 341.892941 
L 607.5 343.030519 
L 612 343.299141 
L 616.5 343.456286 
L 621 343.487613 
L 630 343.203571 
L 643.5 342.502352 
L 648 342.429624 
L 652.5 342.514156 
L 661.5 343.088919 
L 666 343.419399 
L 670.5 343.607532 
L 675 343.520308 
L 679.5 343.071091 
L 684 342.258532 
L 697.5 339.102575 
L 702 338.568959 
L 706.5 338.592015 
L 711 339.172622 
L 715.5 340.160038 
L 720 341.288289 
L 724.5 342.251695 
L 729 342.796401 
L 733.5 342.797795 
L 738 342.297386 
L 747 340.640036 
L 751.5 340.029557 
L 756 339.834892 
L 760.5 340.094316 
L 765 340.701976 
L 774 342.117421 
L 778.5 342.517266 
L 783 342.579066 
L 787.5 342.348188 
L 796.5 341.59841 
L 801 341.408313 
L 805.5 341.471813 
L 810 341.773193 
L 819 342.630836 
L 823.5 342.877685 
L 828 342.838168 
L 832.5 342.474467 
L 837 341.83342 
L 846 340.228754 
L 846 340.228754 
" clip-path="url(#pb0548c273a)" style="fill: none; stroke: #2ca02c; stroke-width: 2.2; stroke-linecap: square"/>
   </g>
   <g id="line2d_22">
    <path d="M 126 330.8616 
L 130.5 330.608066 
L 148.5 329.031355 
L 153 329.004851 
L 157.5 329.23058 
L 171 330.454572 
L 175.5 330.590579 
L 180 330.434351 
L 184.5 329.982863 
L 189 329.289083 
L 207 326.000576 
L 211.5 325.549477 
L 216 325.414658 
L 220.5 325.635134 
L 225 326.198265 
L 229.5 327.030345 
L 238.5 328.967576 
L 243 329.779356 
L 247.5 330.347651 
L 252 330.646169 
L 256.5 330.707022 
L 261 330.59311 
L 270 330.061655 
L 288 328.572844 
L 292.5 328.425771 
L 297 328.517598 
L 310.5 329.524387 
L 315 329.429832 
L 319.5 328.771894 
L 324 327.517321 
L 337.5 322.471549 
L 342 321.520663 
L 346.5 321.319016 
L 351 321.811256 
L 355.5 322.764505 
L 360 323.867192 
L 364.5 324.848974 
L 369 325.571236 
L 378 326.42324 
L 382.5 326.837259 
L 391.5 328.041261 
L 396 328.696891 
L 400.5 329.210536 
L 405 329.496056 
L 414 329.557242 
L 418.5 329.610154 
L 423 329.8448 
L 436.5 331.068994 
L 441 331.064371 
L 445.5 330.643987 
L 459 328.331938 
L 463.5 328.066006 
L 468 328.323619 
L 472.5 329.021044 
L 481.5 330.706195 
L 486 331.111591 
L 490.5 330.986063 
L 495 330.340143 
L 499.5 329.320225 
L 508.5 327.019619 
L 513 326.09656 
L 517.5 325.436838 
L 522 325.034964 
L 526.5 324.853545 
L 531 324.85901 
L 535.5 325.040085 
L 540 325.403897 
L 544.5 325.956379 
L 549 326.680307 
L 562.5 329.226858 
L 567 329.910277 
L 571.5 330.403367 
L 576 330.695564 
L 580.5 330.813042 
L 589.5 330.735768 
L 598.5 330.607143 
L 607.5 330.67094 
L 630 331.13445 
L 657 331.157763 
L 670.5 330.991237 
L 688.5 330.636245 
L 697.5 330.181226 
L 706.5 329.278874 
L 715.5 328.235617 
L 720 327.869083 
L 724.5 327.70137 
L 729 327.756465 
L 733.5 328.012371 
L 742.5 328.880579 
L 751.5 329.767532 
L 760.5 330.341035 
L 769.5 330.532129 
L 778.5 330.433014 
L 792 330.261268 
L 805.5 330.494995 
L 819 330.674503 
L 832.5 330.845391 
L 841.5 330.955567 
L 846 330.8616 
L 846 330.8616 
" clip-path="url(#pb0548c273a)" style="fill: none; stroke: #d62728; stroke-width: 2.2; stroke-linecap: square"/>
   </g>
   <g id="line2d_23">
    <path d="M 126 318.12812 
L 130.5 317.883415 
L 135 317.75396 
L 139.5 317.80996 
L 153 318.451156 
L 157.5 318.482126 
L 171 318.339913 
L 180 318.687112 
L 184.5 318.643755 
L 189 318.090293 
L 193.5 316.850415 
L 198 314.979651 
L 202.5 312.809682 
L 207 310.876729 
L 211.5 309.748545 
L 216 309.812309 
L 220.5 311.109343 
L 225 313.289599 
L 229.5 315.71287 
L 234 317.663694 
L 238.5 318.598663 
L 243 318.32984 
L 247.5 317.07322 
L 252 315.346037 
L 256.5 313.757703 
L 261 312.780295 
L 265.5 312.588823 
L 270 313.028599 
L 274.5 313.71236 
L 279 314.197694 
L 283.5 314.167448 
L 288 313.542149 
L 301.5 310.432885 
L 306 310.046492 
L 310.5 310.274044 
L 315 311.056444 
L 319.5 312.230102 
L 333 316.252752 
L 337.5 317.313067 
L 342 318.095928 
L 346.5 318.556102 
L 351 318.683378 
L 355.5 318.52143 
L 369 317.532236 
L 373.5 317.482436 
L 378 317.650397 
L 387 318.201249 
L 391.5 318.274412 
L 396 318.074183 
L 400.5 317.615403 
L 409.5 316.398437 
L 414 315.922422 
L 418.5 315.633296 
L 436.5 315.044817 
L 445.5 314.463788 
L 450 314.36043 
L 454.5 314.536235 
L 459 315.024033 
L 463.5 315.763934 
L 472.5 317.44369 
L 477 318.09219 
L 481.5 318.499786 
L 486 318.670989 
L 495 318.573282 
L 508.5 318.352512 
L 535.5 318.23283 
L 544.5 318.002946 
L 549 317.713824 
L 553.5 317.217168 
L 558 316.456151 
L 562.5 315.413121 
L 567 314.131829 
L 576 311.380605 
L 580.5 310.302917 
L 585 309.695022 
L 589.5 309.692247 
L 594 310.323958 
L 598.5 311.498302 
L 612 316.121248 
L 616.5 317.287322 
L 621 318.068295 
L 625.5 318.492865 
L 630 318.658041 
L 643.5 318.631173 
L 657 318.471205 
L 670.5 318.140137 
L 679.5 318.168687 
L 693 318.351803 
L 702 318.175509 
L 715.5 317.805463 
L 724.5 317.872557 
L 742.5 318.303927 
L 751.5 318.188957 
L 765 317.784898 
L 769.5 317.798297 
L 778.5 318.203946 
L 787.5 318.683571 
L 792 318.690762 
L 796.5 318.461469 
L 810 317.111347 
L 814.5 316.922286 
L 819 317.025327 
L 828 317.828383 
L 832.5 318.215323 
L 837 318.400815 
L 841.5 318.347819 
L 846 318.12812 
L 846 318.12812 
" clip-path="url(#pb0548c273a)" style="fill: none; stroke: #9467bd; stroke-width: 2.2; stroke-linecap: square"/>
   </g>
   <g id="line2d_24">
    <path d="M 126 305.461281 
L 135 304.561465 
L 139.5 304.365624 
L 144 304.41827 
L 148.5 304.698094 
L 162 305.965982 
L 166.5 306.115091 
L 171 305.961044 
L 175.5 305.491858 
L 189 303.262116 
L 193.5 302.814871 
L 198 302.739421 
L 202.5 303.044091 
L 207 303.640631 
L 216 305.089242 
L 220.5 305.646175 
L 225 305.979106 
L 229.5 306.080901 
L 234 305.986836 
L 243 305.426791 
L 252 304.759018 
L 256.5 304.559541 
L 261 304.552381 
L 265.5 304.781267 
L 279 306.167462 
L 283.5 306.238953 
L 288 305.770958 
L 292.5 304.689683 
L 297 303.085371 
L 306 299.387261 
L 310.5 297.972231 
L 315 297.200265 
L 319.5 297.153851 
L 324 297.750005 
L 328.5 298.784784 
L 337.5 301.194493 
L 342 302.195669 
L 346.5 302.945216 
L 351 303.441434 
L 355.5 303.715113 
L 360 303.805125 
L 369 303.602876 
L 378 303.311907 
L 382.5 303.34377 
L 387 303.581985 
L 391.5 304.029236 
L 405 305.776614 
L 409.5 306.117051 
L 414 306.235963 
L 423 305.993915 
L 441 305.150331 
L 445.5 304.752849 
L 450 304.176943 
L 463.5 301.982582 
L 468 301.529237 
L 472.5 301.400622 
L 477 301.602911 
L 481.5 302.056399 
L 490.5 303.167117 
L 495 303.582886 
L 504 304.013202 
L 513 304.423919 
L 522 305.288886 
L 526.5 305.772498 
L 531 306.127568 
L 535.5 306.251377 
L 540 306.118154 
L 553.5 305.240356 
L 558 305.284722 
L 571.5 306.239631 
L 576 306.087844 
L 580.5 305.348228 
L 585 304.018093 
L 594 300.542406 
L 598.5 299.156048 
L 603 298.457811 
L 607.5 298.579274 
L 612 299.428076 
L 625.5 303.387643 
L 630 304.290438 
L 634.5 304.864713 
L 643.5 305.50857 
L 652.5 306.014634 
L 657 306.103121 
L 661.5 305.948083 
L 666 305.53498 
L 675 304.46801 
L 679.5 304.232372 
L 684 304.381659 
L 688.5 304.8627 
L 693 305.459001 
L 697.5 305.877209 
L 702 305.880187 
L 706.5 305.406016 
L 715.5 303.83053 
L 720 303.409318 
L 724.5 303.569809 
L 729 304.281931 
L 733.5 305.256099 
L 738 306.04852 
L 742.5 306.241624 
L 747 305.624268 
L 751.5 304.293835 
L 756 302.634289 
L 760.5 301.176631 
L 765 300.398206 
L 769.5 300.542844 
L 774 301.534235 
L 783 304.490423 
L 787.5 305.517791 
L 792 305.860226 
L 796.5 305.551949 
L 805.5 304.133535 
L 810 303.708553 
L 814.5 303.742339 
L 819 304.201765 
L 828 305.578879 
L 832.5 306.026859 
L 837 306.130629 
L 841.5 305.904249 
L 846 305.461281 
L 846 305.461281 
" clip-path="url(#pb0548c273a)" style="fill: none; stroke: #8c564b; stroke-width: 2.2; stroke-linecap: square"/>
   </g>
   <g id="line2d_25">
    <path d="M 126 291.352179 
L 135 290.480502 
L 139.5 290.196319 
L 144 290.050697 
L 148.5 290.060625 
L 153 290.238002 
L 157.5 290.583301 
L 166.5 291.665391 
L 175.5 292.831051 
L 180 293.240069 
L 184.5 293.446724 
L 189 293.421384 
L 193.5 293.166478 
L 198 292.714915 
L 211.5 290.919809 
L 216 290.515553 
L 220.5 290.365752 
L 225 290.495444 
L 238.5 291.563067 
L 243 291.541644 
L 247.5 291.093935 
L 252 290.247443 
L 261 288.15734 
L 265.5 287.48188 
L 270 287.357372 
L 274.5 287.833594 
L 279 288.783868 
L 288 291.014157 
L 292.5 291.719198 
L 297 291.90865 
L 301.5 291.559494 
L 306 290.753918 
L 310.5 289.630183 
L 324 285.801457 
L 328.5 284.834343 
L 333 284.267988 
L 337.5 284.240353 
L 342 284.828535 
L 346.5 286.001953 
L 351 287.603006 
L 360 291.025938 
L 364.5 292.328232 
L 369 293.174342 
L 373.5 293.600348 
L 378 293.7438 
L 391.5 293.754979 
L 396 293.664753 
L 400.5 293.416315 
L 414 292.083004 
L 418.5 291.945121 
L 423 292.168511 
L 436.5 293.668715 
L 441 293.625569 
L 445.5 293.099619 
L 454.5 291.40092 
L 459 290.88576 
L 463.5 290.913484 
L 468 291.454075 
L 472.5 292.238616 
L 477 292.86522 
L 481.5 292.969698 
L 486 292.386957 
L 490.5 291.231616 
L 495 289.86134 
L 499.5 288.737983 
L 504 288.246286 
L 508.5 288.547315 
L 513 289.526757 
L 522 292.128267 
L 526.5 293.023723 
L 531 293.40725 
L 535.5 293.349731 
L 544.5 292.761193 
L 549 292.605842 
L 567 292.5871 
L 580.5 291.880801 
L 585 291.872495 
L 594 292.335741 
L 598.5 292.605484 
L 603 292.748551 
L 607.5 292.718138 
L 621 292.200661 
L 625.5 292.212583 
L 630 292.39307 
L 648 293.596583 
L 657 293.742671 
L 666 293.603079 
L 697.5 292.748527 
L 706.5 292.240415 
L 720 291.312797 
L 724.5 291.212695 
L 729 291.287147 
L 738 291.793852 
L 747 292.257694 
L 765 292.787132 
L 778.5 293.729152 
L 783 293.795392 
L 787.5 293.599111 
L 792 293.167388 
L 801 292.09283 
L 805.5 291.752326 
L 810 291.667404 
L 814.5 291.820406 
L 823.5 292.399132 
L 828 292.555925 
L 832.5 292.507461 
L 837 292.249628 
L 846 291.352179 
L 846 291.352179 
" clip-path="url(#pb0548c273a)" style="fill: none; stroke: #e377c2; stroke-width: 2.2; stroke-linecap: square"/>
   </g>
   <g id="line2d_26">
    <path d="M 126 278.135113 
L 139.5 279.74209 
L 144 280.08553 
L 166.5 281.210575 
L 171 281.213409 
L 175.5 280.801347 
L 180 279.89235 
L 193.5 276.079907 
L 198 275.667371 
L 202.5 276.138927 
L 207 277.39997 
L 211.5 279.059422 
L 216 280.537185 
L 220.5 281.252913 
L 225 280.830297 
L 229.5 279.241595 
L 234 276.836705 
L 238.5 274.242597 
L 243 272.166389 
L 247.5 271.170654 
L 252 271.499281 
L 256.5 273.013037 
L 265.5 277.608755 
L 270 279.516562 
L 274.5 280.635849 
L 279 280.9258 
L 283.5 280.613774 
L 288 280.07209 
L 292.5 279.656611 
L 297 279.570768 
L 301.5 279.805048 
L 306 280.16995 
L 310.5 280.402789 
L 315 280.30008 
L 319.5 279.818517 
L 328.5 278.422362 
L 333 278.061736 
L 337.5 278.181707 
L 342 278.740586 
L 346.5 279.493528 
L 351 280.080451 
L 355.5 280.168808 
L 360 279.594313 
L 364.5 278.441523 
L 369 277.028958 
L 373.5 275.801326 
L 378 275.16912 
L 382.5 275.357705 
L 387 276.324832 
L 396 279.286163 
L 400.5 280.433439 
L 405 280.966072 
L 409.5 280.865271 
L 414 280.329378 
L 418.5 279.676412 
L 423 279.211746 
L 427.5 279.115954 
L 432 279.395082 
L 441 280.439465 
L 445.5 280.814066 
L 450 280.948731 
L 459 280.713076 
L 468 280.55147 
L 481.5 280.677503 
L 486 280.45588 
L 490.5 279.988476 
L 495 279.292461 
L 513 275.845814 
L 517.5 275.295422 
L 522 275.044706 
L 526.5 275.153695 
L 531 275.637412 
L 535.5 276.443348 
L 544.5 278.462439 
L 549 279.311189 
L 553.5 279.860748 
L 558 280.081166 
L 567 279.9326 
L 571.5 279.883398 
L 576 280.001928 
L 585 280.561627 
L 589.5 280.690023 
L 594 280.49966 
L 598.5 279.940701 
L 612 277.532961 
L 616.5 277.279104 
L 621 277.548468 
L 625.5 278.275664 
L 634.5 280.240532 
L 639 280.978055 
L 643.5 281.334925 
L 648 281.30412 
L 657 280.585242 
L 661.5 280.251672 
L 666 280.119287 
L 670.5 280.227452 
L 688.5 281.321715 
L 693 281.138091 
L 697.5 280.650319 
L 711 278.413557 
L 715.5 277.988501 
L 720 277.965994 
L 724.5 278.362638 
L 729 279.078708 
L 738 280.672699 
L 742.5 281.141995 
L 747 281.245369 
L 751.5 281.020158 
L 760.5 280.187838 
L 765 279.925135 
L 769.5 279.898278 
L 774 280.090545 
L 787.5 280.994739 
L 796.5 281.150538 
L 805.5 280.97014 
L 810 280.763053 
L 814.5 280.432443 
L 819 279.950682 
L 832.5 278.130978 
L 837 277.812648 
L 841.5 277.817115 
L 846 278.135113 
L 846 278.135113 
" clip-path="url(#pb0548c273a)" style="fill: none; stroke: #7f7f7f; stroke-width: 2.2; stroke-linecap: square"/>
   </g>
   <g id="line2d_27">
    <path d="M 126 264.689499 
L 130.5 264.25788 
L 135 264.22152 
L 139.5 264.659324 
L 144 265.494754 
L 153 267.438911 
L 157.5 268.029079 
L 162 268.166687 
L 166.5 267.896538 
L 175.5 266.937055 
L 180 266.719013 
L 184.5 266.860585 
L 189 267.328138 
L 198 268.538165 
L 202.5 268.851842 
L 207 268.784313 
L 211.5 268.33858 
L 225 266.175798 
L 229.5 265.769034 
L 234 265.690429 
L 238.5 265.918666 
L 247.5 266.900089 
L 252 267.399306 
L 256.5 267.759191 
L 261 267.919612 
L 265.5 267.869153 
L 274.5 267.320497 
L 279 267.002949 
L 283.5 266.802779 
L 288 266.811957 
L 292.5 267.072842 
L 301.5 268.136978 
L 306 268.639975 
L 310.5 268.852421 
L 315 268.601009 
L 319.5 267.812788 
L 324 266.558622 
L 333 263.62919 
L 337.5 262.616803 
L 342 262.281006 
L 346.5 262.720346 
L 351 263.833945 
L 360 266.888018 
L 364.5 268.106517 
L 369 268.769986 
L 373.5 268.829152 
L 378 268.417117 
L 387 267.230201 
L 391.5 266.953545 
L 396 267.044097 
L 400.5 267.445091 
L 409.5 268.512811 
L 414 268.835353 
L 418.5 268.893699 
L 423 268.703664 
L 432 267.906761 
L 441 267.089305 
L 450 266.500926 
L 459 266.231193 
L 463.5 266.288262 
L 468 266.504549 
L 477 267.30565 
L 486 268.067419 
L 490.5 268.221335 
L 495 268.180514 
L 504 267.682377 
L 513 267.095696 
L 526.5 266.385065 
L 531 266.015747 
L 540 264.93102 
L 544.5 264.341589 
L 549 263.886855 
L 553.5 263.710931 
L 558 263.923523 
L 562.5 264.558551 
L 567 265.547506 
L 576 267.827148 
L 580.5 268.613896 
L 585 268.877507 
L 589.5 268.540048 
L 594 267.68224 
L 603 265.405617 
L 607.5 264.613214 
L 612 264.364737 
L 616.5 264.703619 
L 621 265.496922 
L 630 267.379481 
L 634.5 267.955252 
L 639 268.129994 
L 643.5 267.972687 
L 652.5 267.377599 
L 657 267.260123 
L 670.5 267.481398 
L 675 267.312446 
L 679.5 266.901001 
L 688.5 265.776783 
L 693 265.421155 
L 697.5 265.391096 
L 702 265.703602 
L 711 266.92244 
L 715.5 267.514707 
L 720 267.941072 
L 724.5 268.173143 
L 729 268.235125 
L 733.5 268.158584 
L 738 267.941745 
L 742.5 267.539009 
L 747 266.889709 
L 751.5 265.972923 
L 760.5 263.72567 
L 765 262.824714 
L 769.5 262.402127 
L 774 262.606451 
L 778.5 263.422367 
L 783 264.661848 
L 787.5 266.020635 
L 792 267.17971 
L 796.5 267.911396 
L 801 268.147166 
L 805.5 267.98056 
L 819 266.962318 
L 832.5 266.411167 
L 837 265.95077 
L 846 264.689499 
L 846 264.689499 
" clip-path="url(#pb0548c273a)" style="fill: none; stroke: #bcbd22; stroke-width: 2.2; stroke-linecap: square"/>
   </g>
   <g id="line2d_28">
    <path d="M 126 255.721236 
L 139.5 255.413313 
L 148.5 255.000215 
L 162 254.283797 
L 166.5 254.218401 
L 171 254.326422 
L 175.5 254.609039 
L 184.5 255.390786 
L 189 255.60206 
L 193.5 255.477615 
L 198 254.91032 
L 202.5 253.891235 
L 207 252.530346 
L 211.5 251.04474 
L 216 249.714767 
L 220.5 248.818708 
L 225 248.563122 
L 229.5 249.027568 
L 234 250.138741 
L 238.5 251.681607 
L 243 253.346155 
L 247.5 254.799719 
L 252 255.768244 
L 256.5 256.106405 
L 261 255.837282 
L 265.5 255.147975 
L 270 254.338016 
L 274.5 253.730935 
L 279 253.572318 
L 283.5 253.945507 
L 288 254.734481 
L 292.5 255.651117 
L 297 256.323371 
L 301.5 256.418804 
L 306 255.762671 
L 310.5 254.408475 
L 319.5 250.858703 
L 324 249.51827 
L 328.5 248.927251 
L 333 249.191597 
L 337.5 250.192192 
L 351 254.566625 
L 355.5 255.569642 
L 360 256.172355 
L 364.5 256.433857 
L 369 256.444206 
L 373.5 256.27034 
L 378 255.939064 
L 387 254.874363 
L 391.5 254.281178 
L 396 253.840829 
L 400.5 253.721248 
L 405 254.020864 
L 409.5 254.698846 
L 414 255.550883 
L 418.5 256.251122 
L 423 256.45262 
L 427.5 255.911679 
L 432 254.58811 
L 436.5 252.68023 
L 441 250.577878 
L 445.5 248.748526 
L 450 247.597311 
L 454.5 247.350855 
L 459 248.003964 
L 463.5 249.342913 
L 472.5 252.715315 
L 477 254.130483 
L 481.5 255.142909 
L 486 255.753676 
L 490.5 256.055623 
L 499.5 256.216019 
L 517.5 256.218959 
L 526.5 255.943423 
L 544.5 255.182017 
L 553.5 255.180242 
L 562.5 255.550866 
L 576 256.255351 
L 585 256.415791 
L 598.5 256.266544 
L 621 255.925613 
L 630 255.508547 
L 634.5 255.117678 
L 639 254.565682 
L 648 253.053635 
L 652.5 252.265485 
L 657 251.646418 
L 661.5 251.344802 
L 666 251.450662 
L 670.5 251.949852 
L 679.5 253.499228 
L 684 254.068807 
L 688.5 254.220919 
L 693 253.88865 
L 697.5 253.164633 
L 702 252.275634 
L 706.5 251.508497 
L 711 251.113953 
L 715.5 251.223913 
L 720 251.812659 
L 733.5 254.513136 
L 738 255.037454 
L 742.5 255.238581 
L 751.5 255.050247 
L 756 254.932964 
L 760.5 254.928542 
L 769.5 255.258804 
L 778.5 255.674997 
L 787.5 255.883294 
L 819 256.235447 
L 837 255.879866 
L 846 255.721236 
L 846 255.721236 
" clip-path="url(#pb0548c273a)" style="fill: none; stroke: #17becf; stroke-width: 2.2; stroke-linecap: square"/>
   </g>
   <g id="line2d_29">
    <path d="M 126 243.757274 
L 135 243.751606 
L 153 243.989682 
L 162 243.935112 
L 166.5 243.820366 
L 171 243.590745 
L 175.5 243.206378 
L 184.5 242.021425 
L 189 241.390618 
L 193.5 240.915819 
L 198 240.724618 
L 202.5 240.881932 
L 207 241.362104 
L 220.5 243.393759 
L 225 243.75865 
L 229.5 243.840193 
L 234 243.678921 
L 247.5 242.737438 
L 252 242.55675 
L 261 242.530281 
L 288 243.107123 
L 297 242.80263 
L 306 242.364753 
L 310.5 242.253185 
L 315 242.270116 
L 333 242.766974 
L 342 242.508656 
L 346.5 242.368056 
L 351 242.369727 
L 355.5 242.581043 
L 369 243.723206 
L 373.5 243.664853 
L 378 243.117148 
L 382.5 242.083247 
L 391.5 239.292777 
L 396 238.115125 
L 400.5 237.438563 
L 405 237.386756 
L 409.5 237.922393 
L 414 238.868111 
L 423 240.976493 
L 427.5 241.712715 
L 432 242.11384 
L 436.5 242.223778 
L 454.5 242.060014 
L 472.5 242.570176 
L 477 242.463566 
L 481.5 242.203833 
L 490.5 241.296235 
L 504 239.572768 
L 508.5 239.134215 
L 513 238.881179 
L 517.5 238.875765 
L 522 239.153541 
L 526.5 239.708941 
L 531 240.488156 
L 540 242.301146 
L 544.5 243.085001 
L 549 243.646256 
L 553.5 243.934372 
L 558 243.956697 
L 562.5 243.772575 
L 576 242.907571 
L 580.5 242.763287 
L 589.5 242.796036 
L 603 243.241526 
L 616.5 243.673618 
L 621 243.689225 
L 625.5 243.557571 
L 630 243.241938 
L 639 242.144047 
L 643.5 241.548705 
L 648 241.11003 
L 652.5 240.955119 
L 657 241.142703 
L 661.5 241.632757 
L 670.5 242.91914 
L 675 243.338313 
L 679.5 243.438685 
L 684 243.232352 
L 693 242.49597 
L 697.5 242.35531 
L 702 242.514755 
L 711 243.279052 
L 715.5 243.321138 
L 720 242.714806 
L 724.5 241.289682 
L 729 239.109146 
L 738 233.958145 
L 742.5 232.082026 
L 747 231.340911 
L 751.5 231.961214 
L 756 233.840254 
L 760.5 236.561857 
L 765 239.505151 
L 769.5 242.014445 
L 774 243.578238 
L 778.5 243.962564 
L 783 243.259117 
L 787.5 241.836521 
L 792 240.214296 
L 796.5 238.902741 
L 801 238.260435 
L 805.5 238.411923 
L 810 239.245316 
L 823.5 242.872966 
L 828 243.587948 
L 832.5 243.917604 
L 837 243.960531 
L 846 243.757274 
L 846 243.757274 
" clip-path="url(#pb0548c273a)" style="fill: none; stroke: #1f77b4; stroke-width: 2.2; stroke-linecap: square"/>
   </g>
   <g id="line2d_30">
    <path d="M 126 230.167632 
L 130.5 229.618034 
L 135 228.92859 
L 139.5 228.394734 
L 144 228.289029 
L 148.5 228.723396 
L 153 229.580902 
L 157.5 230.554697 
L 162 231.280105 
L 166.5 231.499371 
L 171 231.180306 
L 180 229.894124 
L 184.5 229.588176 
L 189 229.74051 
L 198 230.712352 
L 202.5 230.83426 
L 207 230.358362 
L 211.5 229.316737 
L 216 228.009934 
L 220.5 226.887838 
L 225 226.359861 
L 229.5 226.620679 
L 234 227.570083 
L 243 230.053407 
L 247.5 230.795074 
L 252 230.958928 
L 256.5 230.66759 
L 261 230.208321 
L 265.5 229.882595 
L 270 229.864439 
L 283.5 230.726828 
L 288 230.641491 
L 292.5 230.230729 
L 301.5 229.11096 
L 306 228.853309 
L 310.5 228.971664 
L 315 229.422659 
L 324 230.67086 
L 328.5 231.141426 
L 333 231.415777 
L 342 231.555378 
L 351 231.489797 
L 355.5 231.347858 
L 360 231.06076 
L 364.5 230.609658 
L 378 228.92433 
L 382.5 228.567348 
L 387 228.384598 
L 396 228.35206 
L 414 228.539245 
L 432 229.080659 
L 445.5 229.032319 
L 450 229.180606 
L 454.5 229.509145 
L 468 230.933027 
L 472.5 231.200126 
L 477 231.286157 
L 490.5 231.230523 
L 499.5 231.419594 
L 504 231.385152 
L 508.5 231.10637 
L 513 230.539062 
L 522 228.830091 
L 526.5 227.961989 
L 531 227.224205 
L 553.5 224.216507 
L 558 223.81962 
L 562.5 223.880523 
L 567 224.564954 
L 571.5 225.871623 
L 580.5 229.350256 
L 585 230.7205 
L 589.5 231.367513 
L 594 231.166633 
L 598.5 230.248797 
L 607.5 227.72071 
L 612 226.927778 
L 616.5 226.791044 
L 621 227.306209 
L 625.5 228.278964 
L 630 229.414147 
L 634.5 230.426448 
L 639 231.130328 
L 643.5 231.479755 
L 648 231.55059 
L 670.5 231.1872 
L 675 230.84919 
L 679.5 230.232603 
L 684 229.361203 
L 693 227.439911 
L 697.5 226.803065 
L 702 226.597557 
L 706.5 226.842966 
L 720 228.588241 
L 724.5 228.734776 
L 729 228.474012 
L 738 227.318879 
L 742.5 226.932638 
L 747 226.951678 
L 751.5 227.405951 
L 760.5 228.949149 
L 765 229.537886 
L 769.5 229.778962 
L 774 229.697558 
L 783 229.328989 
L 787.5 229.462053 
L 792 229.906501 
L 801 231.120579 
L 805.5 231.434903 
L 810 231.370791 
L 814.5 230.988006 
L 819 230.483574 
L 823.5 230.091741 
L 828 229.964551 
L 841.5 230.39738 
L 846 230.167632 
L 846 230.167632 
" clip-path="url(#pb0548c273a)" style="fill: none; stroke: #ff7f0e; stroke-width: 2.2; stroke-linecap: square"/>
   </g>
   <g id="line2d_31">
    <path d="M 126 219.007009 
L 135 218.983772 
L 144 218.677602 
L 157.5 217.758385 
L 162 217.611173 
L 166.5 217.647918 
L 175.5 218.149756 
L 184.5 218.688987 
L 193.5 218.87182 
L 211.5 218.755767 
L 238.5 218.529502 
L 243 218.319764 
L 247.5 217.922295 
L 261 216.17981 
L 265.5 215.960212 
L 270 216.180111 
L 274.5 216.8282 
L 283.5 218.576665 
L 288 219.053459 
L 292.5 218.933654 
L 297 218.185528 
L 310.5 214.68754 
L 315 214.241843 
L 319.5 214.458857 
L 324 215.218602 
L 333 217.173313 
L 337.5 217.731274 
L 342 217.745788 
L 346.5 217.202276 
L 351 216.21219 
L 364.5 212.496005 
L 369 211.648056 
L 373.5 211.247308 
L 378 211.37919 
L 382.5 212.057352 
L 387 213.201488 
L 396 216.109164 
L 400.5 217.376581 
L 405 218.255859 
L 409.5 218.695013 
L 414 218.781813 
L 423 218.636124 
L 432 218.872479 
L 436.5 218.99359 
L 441 218.864199 
L 445.5 218.335317 
L 450 217.398943 
L 459 215.080962 
L 463.5 214.300622 
L 468 214.095733 
L 472.5 214.509588 
L 477 215.397111 
L 486 217.476487 
L 490.5 218.157087 
L 495 218.455857 
L 499.5 218.444479 
L 508.5 218.126891 
L 513 218.084649 
L 522 218.318939 
L 531 218.550311 
L 549 218.722005 
L 558 218.922172 
L 562.5 218.913785 
L 571.5 218.582745 
L 580.5 218.263449 
L 585 218.315449 
L 603 219.083322 
L 607.5 218.76262 
L 612 218.063608 
L 616.5 217.052633 
L 625.5 214.806692 
L 630 214.020144 
L 634.5 213.699848 
L 639 213.902432 
L 643.5 214.549072 
L 652.5 216.281728 
L 657 216.803355 
L 661.5 216.799016 
L 666 216.213916 
L 670.5 215.164868 
L 675 213.912321 
L 679.5 212.785839 
L 684 212.086457 
L 688.5 211.999108 
L 693 212.545362 
L 697.5 213.591498 
L 706.5 216.236441 
L 711 217.387196 
L 715.5 218.248842 
L 720 218.795616 
L 724.5 219.049895 
L 729 219.043905 
L 733.5 218.801735 
L 738 218.350627 
L 751.5 216.620581 
L 756 216.424745 
L 760.5 216.629206 
L 765 217.195661 
L 769.5 217.927388 
L 774 218.512535 
L 778.5 218.62607 
L 783 218.054802 
L 787.5 216.794797 
L 796.5 213.308215 
L 801 211.937088 
L 805.5 211.310958 
L 810 211.563591 
L 814.5 212.585068 
L 828 217.05693 
L 832.5 218.050965 
L 837 218.637725 
L 841.5 218.912487 
L 846 219.007009 
L 846 219.007009 
" clip-path="url(#pb0548c273a)" style="fill: none; stroke: #2ca02c; stroke-width: 2.2; stroke-linecap: square"/>
   </g>
   <g id="line2d_32">
    <path d="M 126 206.010436 
L 130.5 206.139922 
L 135 205.656643 
L 139.5 204.56385 
L 148.5 201.516037 
L 153 200.309713 
L 157.5 199.757703 
L 162 199.986843 
L 166.5 200.903328 
L 175.5 203.615627 
L 180 204.735864 
L 184.5 205.410385 
L 189 205.632101 
L 198 205.34409 
L 202.5 205.225907 
L 207 205.277714 
L 225 206.01591 
L 238.5 205.887461 
L 247.5 206.198678 
L 256.5 206.603989 
L 261 206.583386 
L 265.5 206.339987 
L 274.5 205.401263 
L 279 204.935246 
L 283.5 204.619453 
L 288 204.504438 
L 292.5 204.575481 
L 306 205.11647 
L 310.5 205.095389 
L 315 204.852314 
L 319.5 204.353466 
L 324 203.605491 
L 337.5 200.842286 
L 342 200.368253 
L 346.5 200.454464 
L 351 201.18239 
L 355.5 202.464241 
L 360 204.029149 
L 364.5 205.471979 
L 369 206.358918 
L 373.5 206.359765 
L 378 205.36196 
L 382.5 203.523253 
L 391.5 199.033786 
L 396 197.404016 
L 400.5 196.679066 
L 405 196.93443 
L 409.5 197.993011 
L 423 202.418163 
L 427.5 203.364579 
L 432 203.952991 
L 445.5 205.10873 
L 454.5 206.163988 
L 459 206.548514 
L 463.5 206.65871 
L 468 206.441145 
L 472.5 205.944721 
L 481.5 204.691766 
L 486 204.255851 
L 490.5 204.074536 
L 495 204.136504 
L 508.5 204.787737 
L 513 204.825471 
L 522 204.535839 
L 531 204.248981 
L 535.5 204.287132 
L 540 204.474812 
L 562.5 205.912619 
L 571.5 205.866324 
L 598.5 205.013102 
L 625.5 205.070057 
L 639 204.795883 
L 648 204.882368 
L 661.5 205.180451 
L 666 205.052035 
L 670.5 204.716629 
L 675 204.186947 
L 684 202.884815 
L 688.5 202.371341 
L 693 202.11542 
L 697.5 202.185231 
L 702 202.579327 
L 706.5 203.228613 
L 720 205.511267 
L 724.5 206.037945 
L 729 206.378796 
L 738 206.633438 
L 751.5 206.593917 
L 760.5 206.385167 
L 778.5 205.565254 
L 783 205.526692 
L 792 205.819313 
L 801 206.122283 
L 805.5 206.016708 
L 810 205.668487 
L 823.5 204.077992 
L 828 203.926419 
L 832.5 204.164175 
L 837 204.736585 
L 841.5 205.447616 
L 846 206.010436 
L 846 206.010436 
" clip-path="url(#pb0548c273a)" style="fill: none; stroke: #d62728; stroke-width: 2.2; stroke-linecap: square"/>
   </g>
   <g id="line2d_33">
    <path d="M 126 192.376382 
L 135 192.465172 
L 144 192.540641 
L 148.5 192.766747 
L 162 193.898001 
L 166.5 194.076492 
L 171 193.984423 
L 175.5 193.579223 
L 180 192.873817 
L 184.5 191.93182 
L 193.5 189.784826 
L 198 188.862711 
L 202.5 188.236958 
L 207 188.023486 
L 211.5 188.278514 
L 216 188.974255 
L 220.5 189.99192 
L 229.5 192.198484 
L 234 192.973026 
L 238.5 193.347903 
L 243 193.311988 
L 247.5 192.952362 
L 261 191.410491 
L 265.5 191.112735 
L 274.5 190.927708 
L 283.5 191.026603 
L 292.5 191.314919 
L 301.5 191.865737 
L 315 192.805242 
L 324 193.137454 
L 333 193.222534 
L 355.5 193.197364 
L 364.5 193.511442 
L 373.5 193.867173 
L 378 193.881008 
L 382.5 193.715823 
L 400.5 192.464874 
L 405 192.516362 
L 423 193.465272 
L 427.5 193.359599 
L 436.5 192.912662 
L 441 192.861001 
L 445.5 193.045013 
L 459 194.136692 
L 463.5 194.143106 
L 468 193.841028 
L 477 192.835216 
L 481.5 192.535271 
L 486 192.548839 
L 499.5 193.390449 
L 504 193.177844 
L 508.5 192.47899 
L 513 191.397375 
L 517.5 190.199034 
L 522 189.222459 
L 526.5 188.759584 
L 531 188.954523 
L 535.5 189.757884 
L 549 193.289091 
L 553.5 193.948391 
L 558 194.155763 
L 562.5 193.998109 
L 571.5 193.290237 
L 576 193.074065 
L 580.5 193.066329 
L 585 193.252088 
L 598.5 194.058516 
L 603 194.084849 
L 607.5 193.915142 
L 616.5 193.175353 
L 625.5 192.476305 
L 639 191.86649 
L 643.5 191.35707 
L 648 190.457337 
L 652.5 189.133346 
L 666 184.319551 
L 670.5 183.446038 
L 675 183.380987 
L 679.5 184.17491 
L 684 185.683528 
L 693 189.572356 
L 697.5 191.240054 
L 702 192.384527 
L 706.5 192.94017 
L 711 192.993915 
L 724.5 192.159402 
L 729 192.150525 
L 733.5 192.391215 
L 751.5 194.048028 
L 756 194.066971 
L 760.5 193.822275 
L 769.5 192.81084 
L 774 192.280548 
L 778.5 191.891976 
L 783 191.708693 
L 787.5 191.722215 
L 801 192.032115 
L 805.5 191.90976 
L 819 191.074106 
L 823.5 190.987127 
L 828 191.110287 
L 837 191.792833 
L 841.5 192.143523 
L 846 192.376382 
L 846 192.376382 
" clip-path="url(#pb0548c273a)" style="fill: none; stroke: #9467bd; stroke-width: 2.2; stroke-linecap: square"/>
   </g>
   <g id="line2d_34">
    <path d="M 126 179.844188 
L 130.5 179.462997 
L 135 178.659848 
L 144 176.417889 
L 148.5 175.63608 
L 153 175.525188 
L 157.5 176.218704 
L 162 177.586924 
L 166.5 179.25939 
L 171 180.743063 
L 175.5 181.593119 
L 180 181.570306 
L 184.5 180.723574 
L 193.5 177.96329 
L 198 176.959764 
L 202.5 176.643178 
L 207 177.062024 
L 211.5 178.039385 
L 220.5 180.393805 
L 225 181.197082 
L 229.5 181.574221 
L 234 181.571889 
L 252 180.659452 
L 256.5 180.705276 
L 265.5 181.109079 
L 274.5 181.563697 
L 283.5 181.757774 
L 292.5 181.667661 
L 306 181.486987 
L 337.5 181.477533 
L 342 181.248629 
L 346.5 180.820264 
L 351 180.12782 
L 355.5 179.158598 
L 364.5 176.798479 
L 369 175.832808 
L 373.5 175.340021 
L 378 175.479973 
L 382.5 176.254478 
L 387 177.486169 
L 391.5 178.861748 
L 396 180.028574 
L 400.5 180.7101 
L 405 180.795827 
L 409.5 180.370491 
L 418.5 178.995714 
L 423 178.5885 
L 427.5 178.569933 
L 432 178.913989 
L 450 181.1404 
L 454.5 181.452179 
L 459 181.648277 
L 463.5 181.719834 
L 468 181.619229 
L 472.5 181.284495 
L 477 180.690795 
L 486 179.071955 
L 490.5 178.434429 
L 495 178.197484 
L 499.5 178.46704 
L 504 179.18494 
L 513 180.99191 
L 517.5 181.472129 
L 522 181.403689 
L 526.5 180.808829 
L 535.5 178.9507 
L 540 178.281308 
L 544.5 178.054196 
L 549 178.271518 
L 562.5 179.787694 
L 567 179.96704 
L 576 179.773541 
L 580.5 179.691244 
L 585 179.790008 
L 589.5 180.088638 
L 598.5 180.873905 
L 603 181.059885 
L 607.5 180.977941 
L 612 180.651057 
L 621 179.774232 
L 625.5 179.522062 
L 630 179.493317 
L 643.5 179.860215 
L 648 179.674713 
L 657 178.727752 
L 661.5 178.302165 
L 666 178.193474 
L 670.5 178.527565 
L 675 179.274677 
L 684 181.122982 
L 688.5 181.624735 
L 693 181.568639 
L 697.5 180.979734 
L 706.5 179.251619 
L 711 178.808856 
L 715.5 178.941662 
L 720 179.581401 
L 724.5 180.416249 
L 729 180.998748 
L 733.5 180.916998 
L 738 179.963718 
L 742.5 178.235055 
L 747 176.117026 
L 751.5 174.161777 
L 756 172.900142 
L 760.5 172.662497 
L 765 173.475781 
L 769.5 175.072588 
L 774 177.002439 
L 778.5 178.795494 
L 783 180.111906 
L 787.5 180.821952 
L 792 180.996257 
L 796.5 180.825229 
L 810 179.94737 
L 819 179.55838 
L 828 179.393879 
L 837 179.683431 
L 841.5 179.862098 
L 846 179.844188 
L 846 179.844188 
" clip-path="url(#pb0548c273a)" style="fill: none; stroke: #8c564b; stroke-width: 2.2; stroke-linecap: square"/>
   </g>
   <g id="line2d_35">
    <path d="M 126 168.648776 
L 130.5 169.011621 
L 135 169.229734 
L 139.5 169.11994 
L 144 168.60548 
L 157.5 166.176448 
L 162 165.965149 
L 166.5 166.312034 
L 171 167.096831 
L 175.5 168.043827 
L 180 168.839117 
L 184.5 169.262471 
L 189 169.271907 
L 202.5 168.467026 
L 211.5 168.417216 
L 216 168.214586 
L 220.5 167.619757 
L 225 166.594867 
L 234 164.155388 
L 238.5 163.49338 
L 243 163.604851 
L 247.5 164.509058 
L 256.5 167.501763 
L 261 168.708037 
L 265.5 169.279039 
L 270 169.177589 
L 274.5 168.611778 
L 279 167.925075 
L 283.5 167.440264 
L 288 167.3283 
L 292.5 167.557533 
L 301.5 168.236141 
L 306 168.288562 
L 310.5 168.080966 
L 319.5 167.455817 
L 324 167.388479 
L 328.5 167.582781 
L 337.5 168.336657 
L 342 168.56149 
L 346.5 168.538551 
L 351 168.287844 
L 360 167.562269 
L 364.5 167.312878 
L 382.5 166.720075 
L 396 165.787329 
L 400.5 165.770207 
L 405 166.020735 
L 409.5 166.501423 
L 423 168.239798 
L 427.5 168.607783 
L 432 168.825369 
L 441 168.911155 
L 450 168.615962 
L 459 167.929228 
L 468 167.132058 
L 472.5 166.879364 
L 477 166.807339 
L 481.5 166.929357 
L 490.5 167.597974 
L 499.5 168.399942 
L 508.5 168.972571 
L 517.5 169.199904 
L 522 169.159012 
L 526.5 169.001278 
L 535.5 168.365885 
L 549 167.200708 
L 553.5 166.960968 
L 558 166.856336 
L 562.5 166.899116 
L 567 167.086065 
L 576 167.797738 
L 585 168.607568 
L 589.5 168.859691 
L 594 168.917619 
L 598.5 168.757589 
L 607.5 167.982339 
L 612 167.591941 
L 616.5 167.372287 
L 621 167.404998 
L 625.5 167.688981 
L 634.5 168.550215 
L 639 168.749054 
L 643.5 168.54654 
L 648 167.84999 
L 652.5 166.692964 
L 661.5 163.784715 
L 666 162.638109 
L 670.5 162.094961 
L 675 162.322044 
L 679.5 163.298717 
L 684 164.798451 
L 688.5 166.430926 
L 693 167.742295 
L 697.5 168.350406 
L 702 168.074314 
L 706.5 167.011597 
L 715.5 164.152358 
L 720 163.400818 
L 724.5 163.59243 
L 729 164.718851 
L 738 168.110602 
L 742.5 169.135028 
L 747 169.033524 
L 751.5 167.686357 
L 756 165.365499 
L 760.5 162.646236 
L 765 160.217452 
L 769.5 158.662533 
L 774 158.290871 
L 778.5 159.075959 
L 783 160.711026 
L 792 164.751591 
L 796.5 166.423901 
L 801 167.637209 
L 805.5 168.406317 
L 810 168.817756 
L 814.5 168.965011 
L 819 168.919127 
L 837 168.207478 
L 841.5 168.337953 
L 846 168.648776 
L 846 168.648776 
" clip-path="url(#pb0548c273a)" style="fill: none; stroke: #e377c2; stroke-width: 2.2; stroke-linecap: square"/>
   </g>
   <g id="line2d_36">
    <path d="M 126 151.651677 
L 130.5 153.950029 
L 135 155.43753 
L 139.5 156.208884 
L 144 156.50857 
L 162 156.791287 
L 166.5 156.633236 
L 171 156.171286 
L 175.5 155.373754 
L 189 152.173991 
L 193.5 151.531061 
L 198 151.402825 
L 202.5 151.835987 
L 207 152.744989 
L 216 155.046411 
L 220.5 155.802667 
L 225 155.910466 
L 229.5 155.23274 
L 234 153.825229 
L 243 149.986234 
L 247.5 148.4034 
L 252 147.56592 
L 256.5 147.666882 
L 261 148.669934 
L 265.5 150.328504 
L 274.5 154.09853 
L 279 155.526721 
L 283.5 156.416771 
L 288 156.798436 
L 292.5 156.819533 
L 306 156.446064 
L 315 156.580832 
L 328.5 156.848289 
L 337.5 156.757324 
L 342 156.572254 
L 346.5 156.257551 
L 351 155.802843 
L 364.5 154.074944 
L 369 153.69815 
L 373.5 153.575414 
L 378 153.734016 
L 382.5 154.138124 
L 400.5 156.310624 
L 405 156.595786 
L 409.5 156.735884 
L 418.5 156.707463 
L 441 156.272529 
L 454.5 156.353537 
L 486 156.776584 
L 504 156.82155 
L 517.5 156.668289 
L 526.5 156.343657 
L 540 155.716858 
L 549 155.623677 
L 562.5 155.854354 
L 567 155.804538 
L 576 155.371131 
L 585 154.866263 
L 589.5 154.776295 
L 594 154.84457 
L 603 155.340532 
L 612 155.923059 
L 621 156.307009 
L 630 156.515848 
L 639 156.544966 
L 652.5 156.199742 
L 661.5 156.068498 
L 679.5 156.250073 
L 688.5 155.907267 
L 711 154.535068 
L 715.5 154.018853 
L 729 151.970734 
L 733.5 151.671279 
L 738 151.855285 
L 742.5 152.547443 
L 747 153.612878 
L 751.5 154.794894 
L 756 155.808434 
L 760.5 156.45103 
L 765 156.680985 
L 778.5 156.491608 
L 787.5 156.775065 
L 792 156.557176 
L 796.5 155.614883 
L 801 153.712286 
L 805.5 150.891332 
L 814.5 144.217062 
L 819 141.681126 
L 823.5 140.474027 
L 828 140.848517 
L 832.5 142.676228 
L 837 145.501398 
L 841.5 148.695411 
L 846 151.651677 
L 846 151.651677 
" clip-path="url(#pb0548c273a)" style="fill: none; stroke: #7f7f7f; stroke-width: 2.2; stroke-linecap: square"/>
   </g>
   <g id="line2d_37">
    <path d="M 126 143.608401 
L 130.5 143.38252 
L 135 143.272958 
L 144 143.432994 
L 157.5 143.937122 
L 162 143.943918 
L 166.5 143.788105 
L 171 143.435611 
L 175.5 142.872928 
L 180 142.120314 
L 193.5 139.573538 
L 198 139.051322 
L 202.5 138.873119 
L 207 139.061076 
L 211.5 139.559441 
L 225 141.666197 
L 229.5 142.185059 
L 234 142.525936 
L 238.5 142.6995 
L 243 142.725245 
L 247.5 142.609345 
L 252 142.342381 
L 256.5 141.919891 
L 270 140.345132 
L 274.5 140.173413 
L 279 140.396745 
L 283.5 141.01173 
L 292.5 142.711093 
L 297 143.236653 
L 301.5 143.231841 
L 306 142.655878 
L 315 140.632153 
L 319.5 139.896489 
L 324 139.75166 
L 328.5 140.265981 
L 333 141.263254 
L 337.5 142.388761 
L 342 143.250019 
L 346.5 143.57532 
L 351 143.323279 
L 360 142.046288 
L 364.5 141.724568 
L 369 141.920488 
L 373.5 142.580011 
L 378 143.42877 
L 382.5 144.095133 
L 387 144.279051 
L 391.5 143.891607 
L 400.5 142.266371 
L 405 141.773084 
L 409.5 141.861634 
L 414 142.504969 
L 418.5 143.403493 
L 423 144.099208 
L 427.5 144.163755 
L 432 143.381395 
L 436.5 141.848766 
L 441 139.947669 
L 445.5 138.200536 
L 450 137.067691 
L 454.5 136.769926 
L 459 137.209053 
L 468 138.718208 
L 472.5 138.918821 
L 477 138.47604 
L 486 136.537834 
L 490.5 135.916271 
L 495 136.053343 
L 499.5 137.068346 
L 504 138.788336 
L 508.5 140.813561 
L 513 142.660714 
L 517.5 143.926119 
L 522 144.408422 
L 526.5 144.151192 
L 531 143.399363 
L 535.5 142.495469 
L 540 141.759852 
L 544.5 141.398238 
L 549 141.463307 
L 553.5 141.87296 
L 567 143.573592 
L 571.5 143.899561 
L 576 144.05882 
L 585 144.074851 
L 598.5 144.08469 
L 616.5 144.340664 
L 625.5 144.071285 
L 643.5 143.026096 
L 648 143.03877 
L 652.5 143.238771 
L 666 144.276408 
L 670.5 144.412011 
L 675 144.317586 
L 679.5 144.008715 
L 693 142.795487 
L 697.5 142.685814 
L 702 142.819259 
L 711 143.576338 
L 715.5 143.96844 
L 720 144.214009 
L 724.5 144.250581 
L 729 144.084827 
L 742.5 143.274491 
L 747 143.258553 
L 751.5 143.449986 
L 765 144.382004 
L 769.5 144.331681 
L 774 143.914318 
L 778.5 143.132213 
L 792 139.968493 
L 796.5 139.319268 
L 801 139.145183 
L 805.5 139.476483 
L 810 140.232381 
L 823.5 143.205429 
L 828 143.821928 
L 832.5 144.102708 
L 837 144.087982 
L 846 143.608401 
L 846 143.608401 
" clip-path="url(#pb0548c273a)" style="fill: none; stroke: #bcbd22; stroke-width: 2.2; stroke-linecap: square"/>
   </g>
   <g id="line2d_38">
    <path d="M 126 130.903771 
L 135 130.476797 
L 139.5 130.431709 
L 148.5 130.724071 
L 157.5 131.095273 
L 162 131.040976 
L 166.5 130.720631 
L 180 128.928152 
L 184.5 128.723089 
L 189 129.022238 
L 193.5 129.800417 
L 198 130.81993 
L 202.5 131.680264 
L 207 131.94925 
L 211.5 131.33395 
L 216 129.824129 
L 225 125.667521 
L 229.5 124.244174 
L 234 123.949454 
L 238.5 124.902277 
L 243 126.798154 
L 247.5 129.001921 
L 252 130.769292 
L 256.5 131.514736 
L 261 131.022506 
L 265.5 129.519096 
L 270 127.580438 
L 274.5 125.912744 
L 279 125.094645 
L 283.5 125.380268 
L 288 126.63435 
L 297 130.159822 
L 301.5 131.399081 
L 306 131.907134 
L 310.5 131.747092 
L 319.5 130.631838 
L 324 130.328503 
L 328.5 130.412208 
L 333 130.814333 
L 337.5 131.332831 
L 342 131.73015 
L 346.5 131.829914 
L 351 131.577059 
L 355.5 131.045823 
L 364.5 129.835163 
L 369 129.499541 
L 373.5 129.460711 
L 378 129.682675 
L 387 130.37574 
L 391.5 130.525775 
L 396 130.404776 
L 400.5 130.025692 
L 409.5 129.031532 
L 414 128.795073 
L 418.5 128.920744 
L 423 129.412171 
L 432 130.896398 
L 436.5 131.451653 
L 441 131.666577 
L 445.5 131.537208 
L 454.5 130.853233 
L 459 130.698111 
L 463.5 130.816964 
L 477 131.804848 
L 481.5 131.812855 
L 495 131.082629 
L 499.5 131.129376 
L 513 131.949469 
L 517.5 131.727433 
L 522 131.050528 
L 531 129.15293 
L 535.5 128.638665 
L 540 128.77305 
L 544.5 129.524351 
L 549 130.569646 
L 553.5 131.397583 
L 558 131.503236 
L 562.5 130.597718 
L 567 128.745253 
L 576 124.113505 
L 580.5 122.632046 
L 585 122.354017 
L 589.5 123.347185 
L 594 125.306856 
L 598.5 127.675152 
L 603 129.838053 
L 607.5 131.323751 
L 612 131.93238 
L 616.5 131.759655 
L 630 129.951355 
L 634.5 129.922722 
L 639 130.294264 
L 648 131.424874 
L 652.5 131.684068 
L 657 131.521808 
L 661.5 130.948216 
L 670.5 129.29687 
L 675 128.75686 
L 679.5 128.706407 
L 684 129.196395 
L 693 131.042202 
L 697.5 131.667298 
L 702 131.586962 
L 706.5 130.606355 
L 711 128.797042 
L 720 124.266673 
L 724.5 122.647062 
L 729 122.067326 
L 733.5 122.669285 
L 738 124.274556 
L 747 128.654969 
L 751.5 130.413676 
L 756 131.451988 
L 760.5 131.751165 
L 765 131.509023 
L 774 130.617009 
L 778.5 130.440999 
L 783 130.541238 
L 801 131.661552 
L 810 131.740684 
L 832.5 131.620731 
L 841.5 131.185862 
L 846 130.903771 
L 846 130.903771 
" clip-path="url(#pb0548c273a)" style="fill: none; stroke: #17becf; stroke-width: 2.2; stroke-linecap: square"/>
   </g>
   <g id="line2d_39">
    <path d="M 126 113.920927 
L 130.5 115.404476 
L 135 116.688012 
L 139.5 117.549668 
L 144 117.955903 
L 148.5 118.034543 
L 157.5 118.017962 
L 162 118.207367 
L 175.5 119.225736 
L 180 119.357424 
L 184.5 119.302785 
L 202.5 118.628508 
L 211.5 118.780466 
L 225 119.202841 
L 234 119.185561 
L 238.5 118.993298 
L 243 118.650412 
L 252 117.604248 
L 256.5 117.050248 
L 261 116.618211 
L 265.5 116.400362 
L 270 116.436398 
L 274.5 116.697896 
L 288 117.909954 
L 297 118.387275 
L 315 118.998422 
L 324 119.031842 
L 333 118.899103 
L 337.5 118.969457 
L 346.5 119.436202 
L 351 119.490367 
L 355.5 119.032976 
L 360 117.801435 
L 364.5 115.72533 
L 373.5 110.213764 
L 378 107.974316 
L 382.5 106.949543 
L 387 107.505906 
L 391.5 109.567674 
L 400.5 115.716824 
L 405 118.020676 
L 409.5 118.838336 
L 414 117.984995 
L 418.5 115.823215 
L 423 113.137501 
L 427.5 110.861525 
L 432 109.757966 
L 436.5 110.168315 
L 441 111.921697 
L 450 116.920744 
L 454.5 118.724336 
L 459 119.487657 
L 463.5 119.258235 
L 472.5 117.455351 
L 477 116.838953 
L 481.5 116.778965 
L 486 117.228683 
L 495 118.639169 
L 499.5 119.088847 
L 504 119.239172 
L 517.5 119.067271 
L 535.5 119.471916 
L 553.5 118.744876 
L 558 118.903894 
L 567 119.438142 
L 571.5 119.50188 
L 576 119.302547 
L 589.5 118.089211 
L 594 118.035927 
L 598.5 118.265696 
L 607.5 118.895787 
L 612 118.800891 
L 616.5 118.200204 
L 621 117.11253 
L 630 114.345642 
L 634.5 113.275159 
L 639 112.737957 
L 643.5 112.80928 
L 648 113.415395 
L 652.5 114.379726 
L 661.5 116.570528 
L 666 117.494206 
L 670.5 118.203757 
L 675 118.680782 
L 679.5 118.925778 
L 684 118.949146 
L 688.5 118.77786 
L 702 117.810419 
L 706.5 117.664628 
L 711 117.717718 
L 720 118.265676 
L 729 118.773371 
L 738 118.875329 
L 747 119.023228 
L 756 119.433547 
L 760.5 119.50884 
L 765 119.325747 
L 769.5 118.843171 
L 778.5 117.453277 
L 783 117.006389 
L 787.5 117.002234 
L 792 117.475969 
L 801 119.033191 
L 805.5 119.406711 
L 810 119.090927 
L 814.5 118.003971 
L 819 116.322542 
L 823.5 114.435982 
L 828 112.820993 
L 832.5 111.883603 
L 837 111.827828 
L 841.5 112.599184 
L 846 113.920927 
L 846 113.920927 
" clip-path="url(#pb0548c273a)" style="fill: none; stroke: #1f77b4; stroke-width: 2.2; stroke-linecap: square"/>
   </g>
   <g id="line2d_40">
    <path d="M 126 104.702259 
L 144 106.019718 
L 153 106.067752 
L 162 106.128669 
L 175.5 106.39423 
L 180 106.212774 
L 184.5 105.779104 
L 189 105.106254 
L 202.5 102.66299 
L 207 102.164777 
L 211.5 102.007378 
L 216 102.221254 
L 220.5 102.768125 
L 234 105.19371 
L 238.5 105.758198 
L 243 106.011083 
L 247.5 105.931237 
L 252 105.566522 
L 261 104.380394 
L 270 103.215592 
L 279 102.416624 
L 283.5 102.196125 
L 288 102.149487 
L 292.5 102.341622 
L 297 102.824374 
L 301.5 103.595747 
L 310.5 105.574375 
L 315 106.391288 
L 319.5 106.820026 
L 324 106.752254 
L 328.5 106.221242 
L 337.5 104.576314 
L 342 104.014688 
L 346.5 103.910753 
L 351 104.299456 
L 364.5 106.585014 
L 369 106.884755 
L 373.5 106.739463 
L 378 106.249398 
L 382.5 105.636034 
L 387 105.156671 
L 391.5 105.00817 
L 396 105.255155 
L 409.5 106.938789 
L 414 107.044359 
L 418.5 106.669069 
L 423 105.854319 
L 432 103.65155 
L 436.5 102.743029 
L 441 102.216658 
L 445.5 102.142341 
L 450 102.482854 
L 454.5 103.121293 
L 468 105.385267 
L 472.5 105.930922 
L 477 106.326725 
L 486 106.759194 
L 495 106.843488 
L 504 106.607555 
L 513 106.081946 
L 535.5 104.543695 
L 549 103.675352 
L 558 102.849818 
L 567 102.014093 
L 571.5 101.809733 
L 576 101.895795 
L 580.5 102.344352 
L 585 103.146809 
L 594 105.257291 
L 598.5 106.085819 
L 603 106.430791 
L 607.5 106.154932 
L 612 105.287685 
L 621 102.729781 
L 625.5 101.728433 
L 630 101.297965 
L 634.5 101.525447 
L 639 102.292063 
L 648 104.290161 
L 652.5 104.943947 
L 657 105.194232 
L 670.5 104.958267 
L 675 105.200881 
L 684 106.179947 
L 688.5 106.478334 
L 693 106.373454 
L 697.5 105.832917 
L 706.5 104.219573 
L 711 103.754494 
L 715.5 103.812209 
L 720 104.373974 
L 729 105.964269 
L 733.5 106.308966 
L 738 106.073957 
L 742.5 105.325151 
L 747 104.340012 
L 751.5 103.496771 
L 756 103.123472 
L 760.5 103.37032 
L 765 104.157622 
L 774 106.211997 
L 778.5 106.863092 
L 783 107.058472 
L 787.5 106.872408 
L 796.5 106.204232 
L 801 106.105768 
L 810 106.45616 
L 814.5 106.610277 
L 819 106.5418 
L 823.5 106.203228 
L 837 104.695321 
L 841.5 104.554409 
L 846 104.702259 
L 846 104.702259 
" clip-path="url(#pb0548c273a)" style="fill: none; stroke: #ff7f0e; stroke-width: 2.2; stroke-linecap: square"/>
   </g>
   <g id="line2d_41">
    <path d="M 126 89.336438 
L 130.5 90.853951 
L 135 91.500908 
L 139.5 91.370588 
L 144 90.854267 
L 148.5 90.471049 
L 153 90.641215 
L 157.5 91.49424 
L 166.5 94.005538 
L 171 94.513954 
L 175.5 93.858179 
L 180 91.939398 
L 184.5 89.087673 
L 189 85.969849 
L 193.5 83.371992 
L 198 81.940292 
L 202.5 81.978587 
L 207 83.375071 
L 211.5 85.677094 
L 216 88.274455 
L 220.5 90.612683 
L 225 92.353336 
L 229.5 93.428043 
L 234 93.981872 
L 243 94.4141 
L 252 94.60931 
L 256.5 94.487479 
L 261 94.122639 
L 274.5 92.406904 
L 279 92.180331 
L 283.5 92.289051 
L 297 93.489614 
L 301.5 93.642197 
L 306 93.562042 
L 315 93.116348 
L 319.5 93.028327 
L 324 93.13738 
L 333 93.776953 
L 337.5 94.103522 
L 342 94.316735 
L 351 94.360072 
L 364.5 93.991561 
L 369 93.764653 
L 373.5 93.417842 
L 382.5 92.33913 
L 391.5 91.207476 
L 396 90.88883 
L 400.5 90.830503 
L 405 91.029727 
L 414 91.927302 
L 423 92.88802 
L 432 93.476867 
L 441 93.640395 
L 450 93.433692 
L 468 92.708105 
L 472.5 92.721347 
L 481.5 93.102009 
L 495 93.937593 
L 504 94.214617 
L 517.5 94.267371 
L 553.5 94.212517 
L 567 93.882019 
L 576 94.006255 
L 589.5 94.511 
L 594 94.381965 
L 598.5 93.932332 
L 603 93.143131 
L 616.5 89.917527 
L 621 89.23814 
L 625.5 89.059476 
L 630 89.427238 
L 634.5 90.260996 
L 648 93.501503 
L 652.5 94.132283 
L 657 94.374362 
L 661.5 94.284726 
L 675 93.402513 
L 679.5 93.295926 
L 688.5 93.478787 
L 702 93.923038 
L 733.5 94.580361 
L 747 94.262903 
L 756 94.130899 
L 769.5 94.265723 
L 787.5 94.516682 
L 792 94.32717 
L 796.5 93.773166 
L 801 92.695902 
L 805.5 91.02592 
L 810 88.85652 
L 814.5 86.473404 
L 819 84.31356 
L 823.5 82.852742 
L 828 82.453021 
L 832.5 83.225565 
L 837 84.966607 
L 846 89.336438 
L 846 89.336438 
" clip-path="url(#pb0548c273a)" style="fill: none; stroke: #2ca02c; stroke-width: 2.2; stroke-linecap: square"/>
   </g>
   <g id="line2d_42">
    <path d="M 126 79.030188 
L 130.5 80.14715 
L 135 81.072259 
L 139.5 81.594543 
L 144 81.637641 
L 148.5 81.281547 
L 157.5 80.226613 
L 162 79.978747 
L 166.5 80.075495 
L 171 80.473425 
L 180 81.551629 
L 184.5 81.904383 
L 189 82.025323 
L 198 81.775327 
L 207 81.540417 
L 216 81.686335 
L 229.5 81.993512 
L 247.5 82.003344 
L 256.5 81.861165 
L 265.5 81.458022 
L 274.5 80.691099 
L 279 80.127786 
L 288 78.653669 
L 292.5 77.879298 
L 297 77.261182 
L 301.5 76.961078 
L 306 77.094174 
L 310.5 77.671966 
L 324 80.444514 
L 328.5 80.961456 
L 333 81.081783 
L 346.5 80.545058 
L 351 80.709792 
L 364.5 81.978344 
L 369 82.026387 
L 373.5 81.753366 
L 382.5 80.97243 
L 387 80.942268 
L 391.5 81.279537 
L 396 81.80452 
L 400.5 82.149207 
L 405 81.904263 
L 409.5 80.810896 
L 414 78.913529 
L 418.5 76.599106 
L 423 74.493305 
L 427.5 73.244533 
L 432 73.277169 
L 436.5 74.613258 
L 441 76.838073 
L 445.5 79.22881 
L 450 81.000697 
L 454.5 81.578073 
L 459 80.788863 
L 463.5 78.912368 
L 468 76.568331 
L 472.5 74.495417 
L 477 73.305214 
L 481.5 73.300151 
L 486 74.412114 
L 490.5 76.26862 
L 495 78.346763 
L 499.5 80.149522 
L 504 81.341775 
L 508.5 81.809098 
L 513 81.637245 
L 517.5 81.038697 
L 526.5 79.534527 
L 531 78.999934 
L 535.5 78.7383 
L 540 78.765249 
L 544.5 79.050422 
L 553.5 80.116828 
L 562.5 81.226657 
L 567 81.595239 
L 571.5 81.798592 
L 580.5 81.842706 
L 598.5 81.583747 
L 603 81.304187 
L 607.5 80.797443 
L 612 80.039905 
L 621 78.019384 
L 625.5 77.029201 
L 630 76.277678 
L 634.5 75.909697 
L 639 76.0098 
L 643.5 76.581741 
L 648 77.544434 
L 661.5 81.063714 
L 666 81.812362 
L 670.5 82.137177 
L 675 82.037241 
L 679.5 81.603399 
L 688.5 80.385312 
L 693 79.936544 
L 697.5 79.739341 
L 702 79.808707 
L 706.5 80.091785 
L 724.5 81.649862 
L 733.5 82.060431 
L 738 82.140226 
L 742.5 82.106763 
L 747 81.924907 
L 751.5 81.570418 
L 756 81.050731 
L 769.5 79.187746 
L 774 78.809008 
L 778.5 78.692676 
L 783 78.854988 
L 787.5 79.250568 
L 796.5 80.29915 
L 801 80.663444 
L 805.5 80.744128 
L 810 80.470894 
L 814.5 79.8574 
L 828 77.420888 
L 832.5 77.109082 
L 837 77.306588 
L 841.5 77.998516 
L 846 79.030188 
L 846 79.030188 
" clip-path="url(#pb0548c273a)" style="fill: none; stroke: #d62728; stroke-width: 2.2; stroke-linecap: square"/>
   </g>
   <g id="line2d_43">
    <path d="M 126 69.28615 
L 130.5 69.411081 
L 135 69.288258 
L 153 68.121929 
L 157.5 68.251557 
L 166.5 68.894162 
L 171 68.964566 
L 175.5 68.538388 
L 180 67.484026 
L 184.5 65.853722 
L 193.5 62.011744 
L 198 60.622032 
L 202.5 60.061091 
L 207 60.463354 
L 211.5 61.727305 
L 216 63.553708 
L 220.5 65.544384 
L 225 67.323487 
L 229.5 68.636978 
L 234 69.397773 
L 238.5 69.668033 
L 243 69.5955 
L 252 69.000641 
L 265.5 67.792999 
L 274.5 66.971295 
L 279 66.746047 
L 283.5 66.748808 
L 288 67.002902 
L 292.5 67.466375 
L 306 69.105484 
L 310.5 69.440349 
L 315 69.626251 
L 324 69.706326 
L 364.5 69.516845 
L 373.5 69.195888 
L 391.5 68.275484 
L 400.5 67.523106 
L 414 65.873907 
L 418.5 65.586141 
L 423 65.665096 
L 427.5 66.156568 
L 432 66.975178 
L 436.5 67.911748 
L 441 68.695198 
L 445.5 69.08961 
L 450 68.988085 
L 454.5 68.461852 
L 463.5 67.116927 
L 468 66.841138 
L 472.5 67.002622 
L 486 68.414282 
L 490.5 68.319258 
L 495 67.747665 
L 504 65.971748 
L 508.5 65.389217 
L 513 65.330148 
L 517.5 65.823739 
L 522 66.713659 
L 526.5 67.728196 
L 531 68.587387 
L 535.5 69.099511 
L 540 69.208461 
L 544.5 68.979115 
L 553.5 67.998183 
L 567 66.161828 
L 576 64.830471 
L 580.5 64.353717 
L 585 64.1774 
L 589.5 64.380116 
L 594 64.941874 
L 607.5 67.284968 
L 612 67.729929 
L 616.5 67.904138 
L 630 67.865188 
L 634.5 68.054038 
L 643.5 68.831477 
L 652.5 69.563764 
L 657 69.702879 
L 661.5 69.633118 
L 666 69.340072 
L 670.5 68.820331 
L 675 68.082507 
L 684 66.134973 
L 688.5 65.134631 
L 693 64.328701 
L 697.5 63.885642 
L 702 63.922879 
L 706.5 64.462342 
L 711 65.411934 
L 720 67.741769 
L 724.5 68.672401 
L 729 69.237753 
L 733.5 69.409021 
L 738 69.260908 
L 751.5 68.343393 
L 756 68.25668 
L 765 68.452199 
L 774 68.60639 
L 778.5 68.487854 
L 783 68.210123 
L 792 67.318827 
L 801 66.413042 
L 805.5 66.116738 
L 810 65.982888 
L 814.5 66.030643 
L 819 66.260598 
L 823.5 66.65619 
L 832.5 67.788835 
L 841.5 68.927684 
L 846 69.28615 
L 846 69.28615 
" clip-path="url(#pb0548c273a)" style="fill: none; stroke: #9467bd; stroke-width: 2.2; stroke-linecap: square"/>
   </g>
   <g id="patch_3">
    <path d="M 90 383.904 
L 90 44.64 
" style="fill: none; stroke: #000000; stroke-width: 2; stroke-linejoin: miter; stroke-linecap: square"/>
   </g>
   <g id="patch_4">
    <path d="M 882 383.904 
L 882 44.64 
" style="fill: none; stroke: #000000; stroke-width: 2; stroke-linejoin: miter; stroke-linecap: square"/>
   </g>
   <g id="patch_5">
    <path d="M 90 383.904 
L 882 383.904 
" style="fill: none; stroke: #000000; stroke-width: 2; stroke-linejoin: miter; stroke-linecap: square"/>
   </g>
   <g id="patch_6">
    <path d="M 90 44.64 
L 882 44.64 
" style="fill: none; stroke: #000000; stroke-width: 2; stroke-linejoin: miter; stroke-linecap: square"/>
   </g>
   <g id="text_12">
    <!-- Instantaneous intensity over time: many random initializations (stacked) -->
    <g transform="translate(267.380625 38.64) scale(0.12 -0.12)">
     <defs>
      <path id="DejaVuSans-76" d="M 191 3500 
L 800 3500 
L 1894 563 
L 2988 3500 
L 3597 3500 
L 2284 0 
L 1503 0 
L 191 3500 
z
" transform="scale(0.015625)"/>
      <path id="DejaVuSans-3a" d="M 750 794 
L 1409 794 
L 1409 0 
L 750 0 
L 750 794 
z
M 750 3309 
L 1409 3309 
L 1409 2516 
L 750 2516 
L 750 3309 
z
" transform="scale(0.015625)"/>
      <path id="DejaVuSans-63" d="M 3122 3366 
L 3122 2828 
Q 2878 2963 2633 3030 
Q 2388 3097 2138 3097 
Q 1578 3097 1268 2742 
Q 959 2388 959 1747 
Q 959 1106 1268 751 
Q 1578 397 2138 397 
Q 2388 397 2633 464 
Q 2878 531 3122 666 
L 3122 134 
Q 2881 22 2623 -34 
Q 2366 -91 2075 -91 
Q 1284 -91 818 406 
Q 353 903 353 1747 
Q 353 2603 823 3093 
Q 1294 3584 2113 3584 
Q 2378 3584 2631 3529 
Q 2884 3475 3122 3366 
z
" transform="scale(0.015625)"/>
      <path id="DejaVuSans-6b" d="M 581 4863 
L 1159 4863 
L 1159 1991 
L 2875 3500 
L 3609 3500 
L 1753 1863 
L 3688 0 
L 2938 0 
L 1159 1709 
L 1159 0 
L 581 0 
L 581 4863 
z
" transform="scale(0.015625)"/>
     </defs>
     <use xlink:href="#DejaVuSans-49"/>
     <use xlink:href="#DejaVuSans-6e" x="29.492188"/>
     <use xlink:href="#DejaVuSans-73" x="92.871094"/>
     <use xlink:href="#DejaVuSans-74" x="144.970703"/>
     <use xlink:href="#DejaVuSans-61" x="184.179688"/>
     <use xlink:href="#DejaVuSans-6e" x="245.458984"/>
     <use xlink:href="#DejaVuSans-74" x="308.837891"/>
     <use xlink:href="#DejaVuSans-61" x="348.046875"/>
     <use xlink:href="#DejaVuSans-6e" x="409.326172"/>
     <use xlink:href="#DejaVuSans-65" x="472.705078"/>
     <use xlink:href="#DejaVuSans-6f" x="534.228516"/>
     <use xlink:href="#DejaVuSans-75" x="595.410156"/>
     <use xlink:href="#DejaVuSans-73" x="658.789062"/>
     <use xlink:href="#DejaVuSans-20" x="710.888672"/>
     <use xlink:href="#DejaVuSans-69" x="742.675781"/>
     <use xlink:href="#DejaVuSans-6e" x="770.458984"/>
     <use xlink:href="#DejaVuSans-74" x="833.837891"/>
     <use xlink:href="#DejaVuSans-65" x="873.046875"/>
     <use xlink:href="#DejaVuSans-6e" x="934.570312"/>
     <use xlink:href="#DejaVuSans-73" x="997.949219"/>
     <use xlink:href="#DejaVuSans-69" x="1050.048828"/>
     <use xlink:href="#DejaVuSans-74" x="1077.832031"/>
     <use xlink:href="#DejaVuSans-79" x="1117.041016"/>
     <use xlink:href="#DejaVuSans-20" x="1176.220703"/>
     <use xlink:href="#DejaVuSans-6f" x="1208.007812"/>
     <use xlink:href="#DejaVuSans-76" x="1269.189453"/>
     <use xlink:href="#DejaVuSans-65" x="1328.369141"/>
     <use xlink:href="#DejaVuSans-72" x="1389.892578"/>
     <use xlink:href="#DejaVuSans-20" x="1431.005859"/>
     <use xlink:href="#DejaVuSans-74" x="1462.792969"/>
     <use xlink:href="#DejaVuSans-69" x="1502.001953"/>
     <use xlink:href="#DejaVuSans-6d" x="1529.785156"/>
     <use xlink:href="#DejaVuSans-65" x="1627.197266"/>
     <use xlink:href="#DejaVuSans-3a" x="1688.720703"/>
     <use xlink:href="#DejaVuSans-20" x="1722.412109"/>
     <use xlink:href="#DejaVuSans-6d" x="1754.199219"/>
     <use xlink:href="#DejaVuSans-61" x="1851.611328"/>
     <use xlink:href="#DejaVuSans-6e" x="1912.890625"/>
     <use xlink:href="#DejaVuSans-79" x="1976.269531"/>
     <use xlink:href="#DejaVuSans-20" x="2035.449219"/>
     <use xlink:href="#DejaVuSans-72" x="2067.236328"/>
     <use xlink:href="#DejaVuSans-61" x="2108.349609"/>
     <use xlink:href="#DejaVuSans-6e" x="2169.628906"/>
     <use xlink:href="#DejaVuSans-64" x="2233.007812"/>
     <use xlink:href="#DejaVuSans-6f" x="2296.484375"/>
     <use xlink:href="#DejaVuSans-6d" x="2357.666016"/>
     <use xlink:href="#DejaVuSans-20" x="2455.078125"/>
     <use xlink:href="#DejaVuSans-69" x="2486.865234"/>
     <use xlink:href="#DejaVuSans-6e" x="2514.648438"/>
     <use xlink:href="#DejaVuSans-69" x="2578.027344"/>
     <use xlink:href="#DejaVuSans-74" x="2605.810547"/>
     <use xlink:href="#DejaVuSans-69" x="2645.019531"/>
     <use xlink:href="#DejaVuSans-61" x="2672.802734"/>
     <use xlink:href="#DejaVuSans-6c" x="2734.082031"/>
     <use xlink:href="#DejaVuSans-69" x="2761.865234"/>
     <use xlink:href="#DejaVuSans-7a" x="2789.648438"/>
     <use xlink:href="#DejaVuSans-61" x="2842.138672"/>
     <use xlink:href="#DejaVuSans-74" x="2903.417969"/>
     <use xlink:href="#DejaVuSans-69" x="2942.626953"/>
     <use xlink:href="#DejaVuSans-6f" x="2970.410156"/>
     <use xlink:href="#DejaVuSans-6e" x="3031.591797"/>
     <use xlink:href="#DejaVuSans-73" x="3094.970703"/>
     <use xlink:href="#DejaVuSans-20" x="3147.070312"/>
     <use xlink:href="#DejaVuSans-28" x="3178.857422"/>
     <use xlink:href="#DejaVuSans-73" x="3217.871094"/>
     <use xlink:href="#DejaVuSans-74" x="3269.970703"/>
     <use xlink:href="#DejaVuSans-61" x="3309.179688"/>
     <use xlink:href="#DejaVuSans-63" x="3370.458984"/>
     <use xlink:href="#DejaVuSans-6b" x="3425.439453"/>
     <use xlink:href="#DejaVuSans-65" x="3479.724609"/>
     <use xlink:href="#DejaVuSans-64" x="3541.248047"/>
     <use xlink:href="#DejaVuSans-29" x="3604.724609"/>
    </g>
   </g>
  </g>
 </g>
 <defs>
  <clipPath id="pb0548c273a">
   <rect x="90" y="44.64" width="792" height="339.264"/>
  </clipPath>
 </defs>
</svg>
