<?xml version="1.0" encoding="utf-8" standalone="no"?>
<!DOCTYPE svg PUBLIC "-//W3C//DTD SVG 1.1//EN"
  "http://www.w3.org/Graphics/SVG/1.1/DTD/svg11.dtd">
<svg xmlns:xlink="http://www.w3.org/1999/xlink" width="900" height="352.8" viewBox="0 0 900 352.8" xmlns="http://www.w3.org/2000/svg" version="1.1">
 
 <defs>
  <style type="text/css">*{stroke-linejoin: round; stroke-linecap: butt}</style>
 </defs>
 <g id="figure_1">
  <g id="patch_1">
   <path d="M 0 352.8 
L 900 352.8 
L 900 0 
L 0 0 
z
" style="fill: #ffffff"/>
  </g>
  <g id="axes_1">
   <g id="patch_2">
    <path d="M 90 303.408 
L 882 303.408 
L 882 35.28 
L 90 35.28 
z
" style="fill: #ffffff"/>
   </g>
   <g id="patch_3">
    <path d="M 126 303.408 
L 136.285714 303.408 
L 136.285714 302.203472 
L 126 302.203472 
z
" clip-path="url(#pe458e3f830)" style="fill: #1f77b4; opacity: 0.7"/>
   </g>
   <g id="patch_4">
    <path d="M 136.285714 303.408 
L 146.571429 303.408 
L 146.571429 301.601208 
L 136.285714 301.601208 
z
" clip-path="url(#pe458e3f830)" style="fill: #1f77b4; opacity: 0.7"/>
   </g>
   <g id="patch_5">
    <path d="M 146.571429 303.408 
L 156.857143 303.408 
L 156.857143 302.203472 
L 146.571429 302.203472 
z
" clip-path="url(#pe458e3f830)" style="fill: #1f77b4; opacity: 0.7"/>
   </g>
   <g id="patch_6">
    <path d="M 156.857143 303.408 
L 167.142857 303.408 
L 167.142857 301.601208 
L 156.857143 301.601208 
z
" clip-path="url(#pe458e3f830)" style="fill: #1f77b4; opacity: 0.7"/>
   </g>
   <g id="patch_7">
    <path d="M 167.142857 303.408 
L 177.428571 303.408 
L 177.428571 299.794415 
L 167.142857 299.794415 
z
" clip-path="url(#pe458e3f830)" style="fill: #1f77b4; opacity: 0.7"/>
   </g>
   <g id="patch_8">
    <path d="M 177.428571 303.408 
L 187.714286 303.408 
L 187.714286 297.385358 
L 177.428571 297.385358 
z
" clip-path="url(#pe458e3f830)" style="fill: #1f77b4; opacity: 0.7"/>
   </g>
   <g id="patch_9">
    <path d="M 187.714286 303.408 
L 198 303.408 
L 198 297.385358 
L 187.714286 297.385358 
z
" clip-path="url(#pe458e3f830)" style="fill: #1f77b4; opacity: 0.7"/>
   </g>
   <g id="patch_10">
    <path d="M 198 303.408 
L 208.285714 303.408 
L 208.285714 292.567245 
L 198 292.567245 
z
" clip-path="url(#pe458e3f830)" style="fill: #1f77b4; opacity: 0.7"/>
   </g>
   <g id="patch_11">
    <path d="M 208.285714 303.408 
L 218.571429 303.408 
L 218.571429 291.362717 
L 208.285714 291.362717 
z
" clip-path="url(#pe458e3f830)" style="fill: #1f77b4; opacity: 0.7"/>
   </g>
   <g id="patch_12">
    <path d="M 218.571429 303.408 
L 228.857143 303.408 
L 228.857143 284.135547 
L 218.571429 284.135547 
z
" clip-path="url(#pe458e3f830)" style="fill: #1f77b4; opacity: 0.7"/>
   </g>
   <g id="patch_13">
    <path d="M 228.857143 303.408 
L 239.142857 303.408 
L 239.142857 282.328755 
L 228.857143 282.328755 
z
" clip-path="url(#pe458e3f830)" style="fill: #1f77b4; opacity: 0.7"/>
   </g>
   <g id="patch_14">
    <path d="M 239.142857 303.408 
L 249.428571 303.408 
L 249.428571 262.454038 
L 239.142857 262.454038 
z
" clip-path="url(#pe458e3f830)" style="fill: #1f77b4; opacity: 0.7"/>
   </g>
   <g id="patch_15">
    <path d="M 249.428571 303.408 
L 259.714286 303.408 
L 259.714286 266.067623 
L 249.428571 266.067623 
z
" clip-path="url(#pe458e3f830)" style="fill: #1f77b4; opacity: 0.7"/>
   </g>
   <g id="patch_16">
    <path d="M 259.714286 303.408 
L 270 303.408 
L 270 250.408755 
L 259.714286 250.408755 
z
" clip-path="url(#pe458e3f830)" style="fill: #1f77b4; opacity: 0.7"/>
   </g>
   <g id="patch_17">
    <path d="M 270 303.408 
L 280.285714 303.408 
L 280.285714 247.397434 
L 270 247.397434 
z
" clip-path="url(#pe458e3f830)" style="fill: #1f77b4; opacity: 0.7"/>
   </g>
   <g id="patch_18">
    <path d="M 280.285714 303.408 
L 290.571429 303.408 
L 290.571429 231.136302 
L 280.285714 231.136302 
z
" clip-path="url(#pe458e3f830)" style="fill: #1f77b4; opacity: 0.7"/>
   </g>
   <g id="patch_19">
    <path d="M 290.571429 303.408 
L 300.857143 303.408 
L 300.857143 214.87517 
L 290.571429 214.87517 
z
" clip-path="url(#pe458e3f830)" style="fill: #1f77b4; opacity: 0.7"/>
   </g>
   <g id="patch_20">
    <path d="M 300.857143 303.408 
L 311.142857 303.408 
L 311.142857 199.818566 
L 300.857143 199.818566 
z
" clip-path="url(#pe458e3f830)" style="fill: #1f77b4; opacity: 0.7"/>
   </g>
   <g id="patch_21">
    <path d="M 311.142857 303.408 
L 321.428571 303.408 
L 321.428571 202.227623 
L 311.142857 202.227623 
z
" clip-path="url(#pe458e3f830)" style="fill: #1f77b4; opacity: 0.7"/>
   </g>
   <g id="patch_22">
    <path d="M 321.428571 303.408 
L 331.714286 303.408 
L 331.714286 178.137057 
L 321.428571 178.137057 
z
" clip-path="url(#pe458e3f830)" style="fill: #1f77b4; opacity: 0.7"/>
   </g>
   <g id="patch_23">
    <path d="M 331.714286 303.408 
L 342 303.408 
L 342 158.864604 
L 331.714286 158.864604 
z
" clip-path="url(#pe458e3f830)" style="fill: #1f77b4; opacity: 0.7"/>
   </g>
   <g id="patch_24">
    <path d="M 342 303.408 
L 352.285714 303.408 
L 352.285714 162.478189 
L 342 162.478189 
z
" clip-path="url(#pe458e3f830)" style="fill: #1f77b4; opacity: 0.7"/>
   </g>
   <g id="patch_25">
    <path d="M 352.285714 303.408 
L 362.571429 303.408 
L 362.571429 160.069132 
L 352.285714 160.069132 
z
" clip-path="url(#pe458e3f830)" style="fill: #1f77b4; opacity: 0.7"/>
   </g>
   <g id="patch_26">
    <path d="M 362.571429 303.408 
L 372.857143 303.408 
L 372.857143 151.637434 
L 362.571429 151.637434 
z
" clip-path="url(#pe458e3f830)" style="fill: #1f77b4; opacity: 0.7"/>
   </g>
   <g id="patch_27">
    <path d="M 372.857143 303.408 
L 383.142857 303.408 
L 383.142857 96.831396 
L 372.857143 96.831396 
z
" clip-path="url(#pe458e3f830)" style="fill: #1f77b4; opacity: 0.7"/>
   </g>
   <g id="patch_28">
    <path d="M 383.142857 303.408 
L 393.428571 303.408 
L 393.428571 112.490264 
L 383.142857 112.490264 
z
" clip-path="url(#pe458e3f830)" style="fill: #1f77b4; opacity: 0.7"/>
   </g>
   <g id="patch_29">
    <path d="M 393.428571 303.408 
L 403.714286 303.408 
L 403.714286 98.035925 
L 393.428571 98.035925 
z
" clip-path="url(#pe458e3f830)" style="fill: #1f77b4; opacity: 0.7"/>
   </g>
   <g id="patch_30">
    <path d="M 403.714286 303.408 
L 414 303.408 
L 414 81.774792 
L 403.714286 81.774792 
z
" clip-path="url(#pe458e3f830)" style="fill: #1f77b4; opacity: 0.7"/>
   </g>
   <g id="patch_31">
    <path d="M 414 303.408 
L 424.285714 303.408 
L 424.285714 63.104604 
L 414 63.104604 
z
" clip-path="url(#pe458e3f830)" style="fill: #1f77b4; opacity: 0.7"/>
   </g>
   <g id="patch_32">
    <path d="M 424.285714 303.408 
L 434.571429 303.408 
L 434.571429 70.934038 
L 424.285714 70.934038 
z
" clip-path="url(#pe458e3f830)" style="fill: #1f77b4; opacity: 0.7"/>
   </g>
   <g id="patch_33">
    <path d="M 434.571429 303.408 
L 444.857143 303.408 
L 444.857143 48.048 
L 434.571429 48.048 
z
" clip-path="url(#pe458e3f830)" style="fill: #1f77b4; opacity: 0.7"/>
   </g>
   <g id="patch_34">
    <path d="M 444.857143 303.408 
L 455.142857 303.408 
L 455.142857 81.774792 
L 444.857143 81.774792 
z
" clip-path="url(#pe458e3f830)" style="fill: #1f77b4; opacity: 0.7"/>
   </g>
   <g id="patch_35">
    <path d="M 455.142857 303.408 
L 465.428571 303.408 
L 465.428571 89.604226 
L 455.142857 89.604226 
z
" clip-path="url(#pe458e3f830)" style="fill: #1f77b4; opacity: 0.7"/>
   </g>
   <g id="patch_36">
    <path d="M 465.428571 303.408 
L 475.714286 303.408 
L 475.714286 81.774792 
L 465.428571 81.774792 
z
" clip-path="url(#pe458e3f830)" style="fill: #1f77b4; opacity: 0.7"/>
   </g>
   <g id="patch_37">
    <path d="M 475.714286 303.408 
L 486 303.408 
L 486 96.229132 
L 475.714286 96.229132 
z
" clip-path="url(#pe458e3f830)" style="fill: #1f77b4; opacity: 0.7"/>
   </g>
   <g id="patch_38">
    <path d="M 486 303.408 
L 496.285714 303.408 
L 496.285714 81.172528 
L 486 81.172528 
z
" clip-path="url(#pe458e3f830)" style="fill: #1f77b4; opacity: 0.7"/>
   </g>
   <g id="patch_39">
    <path d="M 496.285714 303.408 
L 506.571429 303.408 
L 506.571429 99.240453 
L 496.285714 99.240453 
z
" clip-path="url(#pe458e3f830)" style="fill: #1f77b4; opacity: 0.7"/>
   </g>
   <g id="patch_40">
    <path d="M 506.571429 303.408 
L 516.857143 303.408 
L 516.857143 125.740075 
L 506.571429 125.740075 
z
" clip-path="url(#pe458e3f830)" style="fill: #1f77b4; opacity: 0.7"/>
   </g>
   <g id="patch_41">
    <path d="M 516.857143 303.408 
L 527.142857 303.408 
L 527.142857 131.160453 
L 516.857143 131.160453 
z
" clip-path="url(#pe458e3f830)" style="fill: #1f77b4; opacity: 0.7"/>
   </g>
   <g id="patch_42">
    <path d="M 527.142857 303.408 
L 537.428571 303.408 
L 537.428571 126.34234 
L 527.142857 126.34234 
z
" clip-path="url(#pe458e3f830)" style="fill: #1f77b4; opacity: 0.7"/>
   </g>
   <g id="patch_43">
    <path d="M 537.428571 303.408 
L 547.714286 303.408 
L 547.714286 158.26234 
L 537.428571 158.26234 
z
" clip-path="url(#pe458e3f830)" style="fill: #1f77b4; opacity: 0.7"/>
   </g>
   <g id="patch_44">
    <path d="M 547.714286 303.408 
L 558 303.408 
L 558 172.716679 
L 547.714286 172.716679 
z
" clip-path="url(#pe458e3f830)" style="fill: #1f77b4; opacity: 0.7"/>
   </g>
   <g id="patch_45">
    <path d="M 558 303.408 
L 568.285714 303.408 
L 568.285714 164.887245 
L 558 164.887245 
z
" clip-path="url(#pe458e3f830)" style="fill: #1f77b4; opacity: 0.7"/>
   </g>
   <g id="patch_46">
    <path d="M 568.285714 303.408 
L 578.571429 303.408 
L 578.571429 196.807245 
L 568.285714 196.807245 
z
" clip-path="url(#pe458e3f830)" style="fill: #1f77b4; opacity: 0.7"/>
   </g>
   <g id="patch_47">
    <path d="M 578.571429 303.408 
L 588.857143 303.408 
L 588.857143 179.341585 
L 578.571429 179.341585 
z
" clip-path="url(#pe458e3f830)" style="fill: #1f77b4; opacity: 0.7"/>
   </g>
   <g id="patch_48">
    <path d="M 588.857143 303.408 
L 599.142857 303.408 
L 599.142857 198.614038 
L 588.857143 198.614038 
z
" clip-path="url(#pe458e3f830)" style="fill: #1f77b4; opacity: 0.7"/>
   </g>
   <g id="patch_49">
    <path d="M 599.142857 303.408 
L 609.428571 303.408 
L 609.428571 213.068377 
L 599.142857 213.068377 
z
" clip-path="url(#pe458e3f830)" style="fill: #1f77b4; opacity: 0.7"/>
   </g>
   <g id="patch_50">
    <path d="M 609.428571 303.408 
L 619.714286 303.408 
L 619.714286 223.909132 
L 609.428571 223.909132 
z
" clip-path="url(#pe458e3f830)" style="fill: #1f77b4; opacity: 0.7"/>
   </g>
   <g id="patch_51">
    <path d="M 619.714286 303.408 
L 630 303.408 
L 630 241.977057 
L 619.714286 241.977057 
z
" clip-path="url(#pe458e3f830)" style="fill: #1f77b4; opacity: 0.7"/>
   </g>
   <g id="patch_52">
    <path d="M 630 303.408 
L 640.285714 303.408 
L 640.285714 247.397434 
L 630 247.397434 
z
" clip-path="url(#pe458e3f830)" style="fill: #1f77b4; opacity: 0.7"/>
   </g>
   <g id="patch_53">
    <path d="M 640.285714 303.408 
L 650.571429 303.408 
L 650.571429 254.624604 
L 640.285714 254.624604 
z
" clip-path="url(#pe458e3f830)" style="fill: #1f77b4; opacity: 0.7"/>
   </g>
   <g id="patch_54">
    <path d="M 650.571429 303.408 
L 660.857143 303.408 
L 660.857143 264.863094 
L 650.571429 264.863094 
z
" clip-path="url(#pe458e3f830)" style="fill: #1f77b4; opacity: 0.7"/>
   </g>
   <g id="patch_55">
    <path d="M 660.857143 303.408 
L 671.142857 303.408 
L 671.142857 265.465358 
L 660.857143 265.465358 
z
" clip-path="url(#pe458e3f830)" style="fill: #1f77b4; opacity: 0.7"/>
   </g>
   <g id="patch_56">
    <path d="M 671.142857 303.408 
L 681.428571 303.408 
L 681.428571 279.317434 
L 671.142857 279.317434 
z
" clip-path="url(#pe458e3f830)" style="fill: #1f77b4; opacity: 0.7"/>
   </g>
   <g id="patch_57">
    <path d="M 681.428571 303.408 
L 691.714286 303.408 
L 691.714286 275.703849 
L 681.428571 275.703849 
z
" clip-path="url(#pe458e3f830)" style="fill: #1f77b4; opacity: 0.7"/>
   </g>
   <g id="patch_58">
    <path d="M 691.714286 303.408 
L 702 303.408 
L 702 283.533283 
L 691.714286 283.533283 
z
" clip-path="url(#pe458e3f830)" style="fill: #1f77b4; opacity: 0.7"/>
   </g>
   <g id="patch_59">
    <path d="M 702 303.408 
L 712.285714 303.408 
L 712.285714 287.146868 
L 702 287.146868 
z
" clip-path="url(#pe458e3f830)" style="fill: #1f77b4; opacity: 0.7"/>
   </g>
   <g id="patch_60">
    <path d="M 712.285714 303.408 
L 722.571429 303.408 
L 722.571429 290.158189 
L 712.285714 290.158189 
z
" clip-path="url(#pe458e3f830)" style="fill: #1f77b4; opacity: 0.7"/>
   </g>
   <g id="patch_61">
    <path d="M 722.571429 303.408 
L 732.857143 303.408 
L 732.857143 297.385358 
L 722.571429 297.385358 
z
" clip-path="url(#pe458e3f830)" style="fill: #1f77b4; opacity: 0.7"/>
   </g>
   <g id="patch_62">
    <path d="M 732.857143 303.408 
L 743.142857 303.408 
L 743.142857 299.192151 
L 732.857143 299.192151 
z
" clip-path="url(#pe458e3f830)" style="fill: #1f77b4; opacity: 0.7"/>
   </g>
   <g id="patch_63">
    <path d="M 743.142857 303.408 
L 753.428571 303.408 
L 753.428571 294.374038 
L 743.142857 294.374038 
z
" clip-path="url(#pe458e3f830)" style="fill: #1f77b4; opacity: 0.7"/>
   </g>
   <g id="patch_64">
    <path d="M 753.428571 303.408 
L 763.714286 303.408 
L 763.714286 296.783094 
L 753.428571 296.783094 
z
" clip-path="url(#pe458e3f830)" style="fill: #1f77b4; opacity: 0.7"/>
   </g>
   <g id="patch_65">
    <path d="M 763.714286 303.408 
L 774 303.408 
L 774 299.794415 
L 763.714286 299.794415 
z
" clip-path="url(#pe458e3f830)" style="fill: #1f77b4; opacity: 0.7"/>
   </g>
   <g id="patch_66">
    <path d="M 774 303.408 
L 784.285714 303.408 
L 784.285714 300.396679 
L 774 300.396679 
z
" clip-path="url(#pe458e3f830)" style="fill: #1f77b4; opacity: 0.7"/>
   </g>
   <g id="patch_67">
    <path d="M 784.285714 303.408 
L 794.571429 303.408 
L 794.571429 301.601208 
L 784.285714 301.601208 
z
" clip-path="url(#pe458e3f830)" style="fill: #1f77b4; opacity: 0.7"/>
   </g>
   <g id="patch_68">
    <path d="M 794.571429 303.408 
L 804.857143 303.408 
L 804.857143 300.998943 
L 794.571429 300.998943 
z
" clip-path="url(#pe458e3f830)" style="fill: #1f77b4; opacity: 0.7"/>
   </g>
   <g id="patch_69">
    <path d="M 804.857143 303.408 
L 815.142857 303.408 
L 815.142857 300.998943 
L 804.857143 300.998943 
z
" clip-path="url(#pe458e3f830)" style="fill: #1f77b4; opacity: 0.7"/>
   </g>
   <g id="patch_70">
    <path d="M 815.142857 303.408 
L 825.428571 303.408 
L 825.428571 302.203472 
L 815.142857 302.203472 
z
" clip-path="url(#pe458e3f830)" style="fill: #1f77b4; opacity: 0.7"/>
   </g>
   <g id="patch_71">
    <path d="M 825.428571 303.408 
L 835.714286 303.408 
L 835.714286 299.192151 
L 825.428571 299.192151 
z
" clip-path="url(#pe458e3f830)" style="fill: #1f77b4; opacity: 0.7"/>
   </g>
   <g id="patch_72">
    <path d="M 835.714286 303.408 
L 846 303.408 
L 846 302.805736 
L 835.714286 302.805736 
z
" clip-path="url(#pe458e3f830)" style="fill: #1f77b4; opacity: 0.7"/>
   </g>
   <g id="matplotlib.axis_1">
    <g id="xtick_1">
     <g id="line2d_1">
      <path d="M 105.692557 303.408 
L 105.692557 35.28 
" clip-path="url(#pe458e3f830)" style="fill: none; stroke: #b0b0b0; stroke-opacity: 0.25; stroke-width: 0.8; stroke-linecap: square"/>
     </g>
     <g id="line2d_2">
      <defs>
       <path id="m5d8960203c" d="M 0 0 
L 0 3.5 
" style="stroke: #000000; stroke-width: 2"/>
      </defs>
      <g>
       <use xlink:href="#m5d8960203c" x="105.692557" y="303.408" style="stroke: #000000; stroke-width: 2"/>
      </g>
     </g>
     <g id="text_1">
      <!-- 0.4 -->
      <g transform="translate(97.740995 318.006438) scale(0.1 -0.1)">
       <defs>
        <path id="DejaVuSans-30" d="M 2034 4250 
Q 1547 4250 1301 3770 
Q 1056 3291 1056 2328 
Q 1056 1369 1301 889 
Q 1547 409 2034 409 
Q 2525 409 2770 889 
Q 3016 1369 3016 2328 
Q 3016 3291 2770 3770 
Q 2525 4250 2034 4250 
z
M 2034 4750 
Q 2819 4750 3233 4129 
Q 3647 3509 3647 2328 
Q 3647 1150 3233 529 
Q 2819 -91 2034 -91 
Q 1250 -91 836 529 
Q 422 1150 422 2328 
Q 422 3509 836 4129 
Q 1250 4750 2034 4750 
z
" transform="scale(0.015625)"/>
        <path id="DejaVuSans-2e" d="M 684 794 
L 1344 794 
L 1344 0 
L 684 0 
L 684 794 
z
" transform="scale(0.015625)"/>
        <path id="DejaVuSans-34" d="M 2419 4116 
L 825 1625 
L 2419 1625 
L 2419 4116 
z
M 2253 4666 
L 3047 4666 
L 3047 1625 
L 3713 1625 
L 3713 1100 
L 3047 1100 
L 3047 0 
L 2419 0 
L 2419 1100 
L 313 1100 
L 313 1709 
L 2253 4666 
z
" transform="scale(0.015625)"/>
       </defs>
       <use xlink:href="#DejaVuSans-30"/>
       <use xlink:href="#DejaVuSans-2e" x="63.623047"/>
       <use xlink:href="#DejaVuSans-34" x="95.410156"/>
      </g>
     </g>
    </g>
    <g id="xtick_2">
     <g id="line2d_3">
      <path d="M 222.009942 303.408 
L 222.009942 35.28 
" clip-path="url(#pe458e3f830)" style="fill: none; stroke: #b0b0b0; stroke-opacity: 0.25; stroke-width: 0.8; stroke-linecap: square"/>
     </g>
     <g id="line2d_4">
      <g>
       <use xlink:href="#m5d8960203c" x="222.009942" y="303.408" style="stroke: #000000; stroke-width: 2"/>
      </g>
     </g>
     <g id="text_2">
      <!-- 0.6 -->
      <g transform="translate(214.05838 318.006438) scale(0.1 -0.1)">
       <defs>
        <path id="DejaVuSans-36" d="M 2113 2584 
Q 1688 2584 1439 2293 
Q 1191 2003 1191 1497 
Q 1191 994 1439 701 
Q 1688 409 2113 409 
Q 2538 409 2786 701 
Q 3034 994 3034 1497 
Q 3034 2003 2786 2293 
Q 2538 2584 2113 2584 
z
M 3366 4563 
L 3366 3988 
Q 3128 4100 2886 4159 
Q 2644 4219 2406 4219 
Q 1781 4219 1451 3797 
Q 1122 3375 1075 2522 
Q 1259 2794 1537 2939 
Q 1816 3084 2150 3084 
Q 2853 3084 3261 2657 
Q 3669 2231 3669 1497 
Q 3669 778 3244 343 
Q 2819 -91 2113 -91 
Q 1303 -91 875 529 
Q 447 1150 447 2328 
Q 447 3434 972 4092 
Q 1497 4750 2381 4750 
Q 2619 4750 2861 4703 
Q 3103 4656 3366 4563 
z
" transform="scale(0.015625)"/>
       </defs>
       <use xlink:href="#DejaVuSans-30"/>
       <use xlink:href="#DejaVuSans-2e" x="63.623047"/>
       <use xlink:href="#DejaVuSans-36" x="95.410156"/>
      </g>
     </g>
    </g>
    <g id="xtick_3">
     <g id="line2d_5">
      <path d="M 338.327328 303.408 
L 338.327328 35.28 
" clip-path="url(#pe458e3f830)" style="fill: none; stroke: #b0b0b0; stroke-opacity: 0.25; stroke-width: 0.8; stroke-linecap: square"/>
     </g>
     <g id="line2d_6">
      <g>
       <use xlink:href="#m5d8960203c" x="338.327328" y="303.408" style="stroke: #000000; stroke-width: 2"/>
      </g>
     </g>
     <g id="text_3">
      <!-- 0.8 -->
      <g transform="translate(330.375765 318.006438) scale(0.1 -0.1)">
       <defs>
        <path id="DejaVuSans-38" d="M 2034 2216 
Q 1584 2216 1326 1975 
Q 1069 1734 1069 1313 
Q 1069 891 1326 650 
Q 1584 409 2034 409 
Q 2484 409 2743 651 
Q 3003 894 3003 1313 
Q 3003 1734 2745 1975 
Q 2488 2216 2034 2216 
z
M 1403 2484 
Q 997 2584 770 2862 
Q 544 3141 544 3541 
Q 544 4100 942 4425 
Q 1341 4750 2034 4750 
Q 2731 4750 3128 4425 
Q 3525 4100 3525 3541 
Q 3525 3141 3298 2862 
Q 3072 2584 2669 2484 
Q 3125 2378 3379 2068 
Q 3634 1759 3634 1313 
Q 3634 634 3220 271 
Q 2806 -91 2034 -91 
Q 1263 -91 848 271 
Q 434 634 434 1313 
Q 434 1759 690 2068 
Q 947 2378 1403 2484 
z
M 1172 3481 
Q 1172 3119 1398 2916 
Q 1625 2713 2034 2713 
Q 2441 2713 2670 2916 
Q 2900 3119 2900 3481 
Q 2900 3844 2670 4047 
Q 2441 4250 2034 4250 
Q 1625 4250 1398 4047 
Q 1172 3844 1172 3481 
z
" transform="scale(0.015625)"/>
       </defs>
       <use xlink:href="#DejaVuSans-30"/>
       <use xlink:href="#DejaVuSans-2e" x="63.623047"/>
       <use xlink:href="#DejaVuSans-38" x="95.410156"/>
      </g>
     </g>
    </g>
    <g id="xtick_4">
     <g id="line2d_7">
      <path d="M 454.644713 303.408 
L 454.644713 35.28 
" clip-path="url(#pe458e3f830)" style="fill: none; stroke: #b0b0b0; stroke-opacity: 0.25; stroke-width: 0.8; stroke-linecap: square"/>
     </g>
     <g id="line2d_8">
      <g>
       <use xlink:href="#m5d8960203c" x="454.644713" y="303.408" style="stroke: #000000; stroke-width: 2"/>
      </g>
     </g>
     <g id="text_4">
      <!-- 1.0 -->
      <g transform="translate(446.69315 318.006438) scale(0.1 -0.1)">
       <defs>
        <path id="DejaVuSans-31" d="M 794 531 
L 1825 531 
L 1825 4091 
L 703 3866 
L 703 4441 
L 1819 4666 
L 2450 4666 
L 2450 531 
L 3481 531 
L 3481 0 
L 794 0 
L 794 531 
z
" transform="scale(0.015625)"/>
       </defs>
       <use xlink:href="#DejaVuSans-31"/>
       <use xlink:href="#DejaVuSans-2e" x="63.623047"/>
       <use xlink:href="#DejaVuSans-30" x="95.410156"/>
      </g>
     </g>
    </g>
    <g id="xtick_5">
     <g id="line2d_9">
      <path d="M 570.962098 303.408 
L 570.962098 35.28 
" clip-path="url(#pe458e3f830)" style="fill: none; stroke: #b0b0b0; stroke-opacity: 0.25; stroke-width: 0.8; stroke-linecap: square"/>
     </g>
     <g id="line2d_10">
      <g>
       <use xlink:href="#m5d8960203c" x="570.962098" y="303.408" style="stroke: #000000; stroke-width: 2"/>
      </g>
     </g>
     <g id="text_5">
      <!-- 1.2 -->
      <g transform="translate(563.010535 318.006438) scale(0.1 -0.1)">
       <defs>
        <path id="DejaVuSans-32" d="M 1228 531 
L 3431 531 
L 3431 0 
L 469 0 
L 469 531 
Q 828 903 1448 1529 
Q 2069 2156 2228 2338 
Q 2531 2678 2651 2914 
Q 2772 3150 2772 3378 
Q 2772 3750 2511 3984 
Q 2250 4219 1831 4219 
Q 1534 4219 1204 4116 
Q 875 4013 500 3803 
L 500 4441 
Q 881 4594 1212 4672 
Q 1544 4750 1819 4750 
Q 2544 4750 2975 4387 
Q 3406 4025 3406 3419 
Q 3406 3131 3298 2873 
Q 3191 2616 2906 2266 
Q 2828 2175 2409 1742 
Q 1991 1309 1228 531 
z
" transform="scale(0.015625)"/>
       </defs>
       <use xlink:href="#DejaVuSans-31"/>
       <use xlink:href="#DejaVuSans-2e" x="63.623047"/>
       <use xlink:href="#DejaVuSans-32" x="95.410156"/>
      </g>
     </g>
    </g>
    <g id="xtick_6">
     <g id="line2d_11">
      <path d="M 687.279483 303.408 
L 687.279483 35.28 
" clip-path="url(#pe458e3f830)" style="fill: none; stroke: #b0b0b0; stroke-opacity: 0.25; stroke-width: 0.8; stroke-linecap: square"/>
     </g>
     <g id="line2d_12">
      <g>
       <use xlink:href="#m5d8960203c" x="687.279483" y="303.408" style="stroke: #000000; stroke-width: 2"/>
      </g>
     </g>
     <g id="text_6">
      <!-- 1.4 -->
      <g transform="translate(679.327921 318.006438) scale(0.1 -0.1)">
       <use xlink:href="#DejaVuSans-31"/>
       <use xlink:href="#DejaVuSans-2e" x="63.623047"/>
       <use xlink:href="#DejaVuSans-34" x="95.410156"/>
      </g>
     </g>
    </g>
    <g id="xtick_7">
     <g id="line2d_13">
      <path d="M 803.596868 303.408 
L 803.596868 35.28 
" clip-path="url(#pe458e3f830)" style="fill: none; stroke: #b0b0b0; stroke-opacity: 0.25; stroke-width: 0.8; stroke-linecap: square"/>
     </g>
     <g id="line2d_14">
      <g>
       <use xlink:href="#m5d8960203c" x="803.596868" y="303.408" style="stroke: #000000; stroke-width: 2"/>
      </g>
     </g>
     <g id="text_7">
      <!-- 1.6 -->
      <g transform="translate(795.645306 318.006438) scale(0.1 -0.1)">
       <use xlink:href="#DejaVuSans-31"/>
       <use xlink:href="#DejaVuSans-2e" x="63.623047"/>
       <use xlink:href="#DejaVuSans-36" x="95.410156"/>
      </g>
     </g>
    </g>
    <g id="text_8">
     <!-- ⟨I⟩$_t$ / ⟨⟨I⟩$_t$⟩ [a.u.] -->
     <g transform="translate(448.45 331.684563) scale(0.1 -0.1)">
      <defs>
       <path id="DejaVuSans-27e8" d="M 572 2006 
L 1453 4856 
L 1984 4856 
L 1103 2006 
L 1984 -844 
L 1453 -844 
L 572 2006 
z
" transform="scale(0.015625)"/>
       <path id="DejaVuSans-49" d="M 628 4666 
L 1259 4666 
L 1259 0 
L 628 0 
L 628 4666 
z
" transform="scale(0.015625)"/>
       <path id="DejaVuSans-27e9" d="M 1925 2006 
L 1044 -844 
L 513 -844 
L 1394 2006 
L 513 4856 
L 1044 4856 
L 1925 2006 
z
" transform="scale(0.015625)"/>
       <path id="DejaVuSans-Oblique-74" d="M 2706 3500 
L 2619 3053 
L 1472 3053 
L 1100 1153 
Q 1081 1047 1072 975 
Q 1063 903 1063 863 
Q 1063 663 1183 572 
Q 1303 481 1569 481 
L 2150 481 
L 2053 0 
L 1503 0 
Q 991 0 739 200 
Q 488 400 488 806 
Q 488 878 497 964 
Q 506 1050 525 1153 
L 897 3053 
L 409 3053 
L 500 3500 
L 978 3500 
L 1172 4494 
L 1747 4494 
L 1556 3500 
L 2706 3500 
z
" transform="scale(0.015625)"/>
       <path id="DejaVuSans-20" transform="scale(0.015625)"/>
       <path id="DejaVuSans-2f" d="M 1625 4666 
L 2156 4666 
L 531 -594 
L 0 -594 
L 1625 4666 
z
" transform="scale(0.015625)"/>
       <path id="DejaVuSans-5b" d="M 550 4863 
L 1875 4863 
L 1875 4416 
L 1125 4416 
L 1125 -397 
L 1875 -397 
L 1875 -844 
L 550 -844 
L 550 4863 
z
" transform="scale(0.015625)"/>
       <path id="DejaVuSans-61" d="M 2194 1759 
Q 1497 1759 1228 1600 
Q 959 1441 959 1056 
Q 959 750 1161 570 
Q 1363 391 1709 391 
Q 2188 391 2477 730 
Q 2766 1069 2766 1631 
L 2766 1759 
L 2194 1759 
z
M 3341 1997 
L 3341 0 
L 2766 0 
L 2766 531 
Q 2569 213 2275 61 
Q 1981 -91 1556 -91 
Q 1019 -91 701 211 
Q 384 513 384 1019 
Q 384 1609 779 1909 
Q 1175 2209 1959 2209 
L 2766 2209 
L 2766 2266 
Q 2766 2663 2505 2880 
Q 2244 3097 1772 3097 
Q 1472 3097 1187 3025 
Q 903 2953 641 2809 
L 641 3341 
Q 956 3463 1253 3523 
Q 1550 3584 1831 3584 
Q 2591 3584 2966 3190 
Q 3341 2797 3341 1997 
z
" transform="scale(0.015625)"/>
       <path id="DejaVuSans-75" d="M 544 1381 
L 544 3500 
L 1119 3500 
L 1119 1403 
Q 1119 906 1312 657 
Q 1506 409 1894 409 
Q 2359 409 2629 706 
Q 2900 1003 2900 1516 
L 2900 3500 
L 3475 3500 
L 3475 0 
L 2900 0 
L 2900 538 
Q 2691 219 2414 64 
Q 2138 -91 1772 -91 
Q 1169 -91 856 284 
Q 544 659 544 1381 
z
M 1991 3584 
L 1991 3584 
z
" transform="scale(0.015625)"/>
       <path id="DejaVuSans-5d" d="M 1947 4863 
L 1947 -844 
L 622 -844 
L 622 -397 
L 1369 -397 
L 1369 4416 
L 622 4416 
L 622 4863 
L 1947 4863 
z
" transform="scale(0.015625)"/>
      </defs>
      <use xlink:href="#DejaVuSans-27e8" transform="translate(0 0.015625)"/>
      <use xlink:href="#DejaVuSans-49" transform="translate(39.013672 0.015625)"/>
      <use xlink:href="#DejaVuSans-27e9" transform="translate(68.505859 0.015625)"/>
      <use xlink:href="#DejaVuSans-Oblique-74" transform="translate(108.476562 -16.390625) scale(0.7)"/>
      <use xlink:href="#DejaVuSans-20" transform="translate(138.657227 0.015625)"/>
      <use xlink:href="#DejaVuSans-2f" transform="translate(170.444336 0.015625)"/>
      <use xlink:href="#DejaVuSans-20" transform="translate(204.135742 0.015625)"/>
      <use xlink:href="#DejaVuSans-27e8" transform="translate(235.922852 0.015625)"/>
      <use xlink:href="#DejaVuSans-27e8" transform="translate(274.936523 0.015625)"/>
      <use xlink:href="#DejaVuSans-49" transform="translate(313.950195 0.015625)"/>
      <use xlink:href="#DejaVuSans-27e9" transform="translate(343.442383 0.015625)"/>
      <use xlink:href="#DejaVuSans-Oblique-74" transform="translate(383.413086 -16.390625) scale(0.7)"/>
      <use xlink:href="#DejaVuSans-27e9" transform="translate(413.59375 0.015625)"/>
      <use xlink:href="#DejaVuSans-20" transform="translate(452.607422 0.015625)"/>
      <use xlink:href="#DejaVuSans-5b" transform="translate(484.394531 0.015625)"/>
      <use xlink:href="#DejaVuSans-61" transform="translate(523.408203 0.015625)"/>
      <use xlink:href="#DejaVuSans-2e" transform="translate(584.6875 0.015625)"/>
      <use xlink:href="#DejaVuSans-75" transform="translate(616.474609 0.015625)"/>
      <use xlink:href="#DejaVuSans-2e" transform="translate(679.853516 0.015625)"/>
      <use xlink:href="#DejaVuSans-5d" transform="translate(711.640625 0.015625)"/>
     </g>
    </g>
   </g>
   <g id="matplotlib.axis_2">
    <g id="ytick_1">
     <g id="line2d_15">
      <path d="M 90 303.408 
L 882 303.408 
" clip-path="url(#pe458e3f830)" style="fill: none; stroke: #b0b0b0; stroke-opacity: 0.25; stroke-width: 0.8; stroke-linecap: square"/>
     </g>
     <g id="line2d_16">
      <defs>
       <path id="ma6fd6684e6" d="M 0 0 
L -3.5 0 
" style="stroke: #000000; stroke-width: 2"/>
      </defs>
      <g>
       <use xlink:href="#ma6fd6684e6" x="90" y="303.408" style="stroke: #000000; stroke-width: 2"/>
      </g>
     </g>
     <g id="text_9">
      <!-- 0.0 -->
      <g transform="translate(67.096875 307.207219) scale(0.1 -0.1)">
       <use xlink:href="#DejaVuSans-30"/>
       <use xlink:href="#DejaVuSans-2e" x="63.623047"/>
       <use xlink:href="#DejaVuSans-30" x="95.410156"/>
      </g>
     </g>
    </g>
    <g id="ytick_2">
     <g id="line2d_17">
      <path d="M 90 250.150983 
L 882 250.150983 
" clip-path="url(#pe458e3f830)" style="fill: none; stroke: #b0b0b0; stroke-opacity: 0.25; stroke-width: 0.8; stroke-linecap: square"/>
     </g>
     <g id="line2d_18">
      <g>
       <use xlink:href="#ma6fd6684e6" x="90" y="250.150983" style="stroke: #000000; stroke-width: 2"/>
      </g>
     </g>
     <g id="text_10">
      <!-- 0.5 -->
      <g transform="translate(67.096875 253.950202) scale(0.1 -0.1)">
       <defs>
        <path id="DejaVuSans-35" d="M 691 4666 
L 3169 4666 
L 3169 4134 
L 1269 4134 
L 1269 2991 
Q 1406 3038 1543 3061 
Q 1681 3084 1819 3084 
Q 2600 3084 3056 2656 
Q 3513 2228 3513 1497 
Q 3513 744 3044 326 
Q 2575 -91 1722 -91 
Q 1428 -91 1123 -41 
Q 819 9 494 109 
L 494 744 
Q 775 591 1075 516 
Q 1375 441 1709 441 
Q 2250 441 2565 725 
Q 2881 1009 2881 1497 
Q 2881 1984 2565 2268 
Q 2250 2553 1709 2553 
Q 1456 2553 1204 2497 
Q 953 2441 691 2322 
L 691 4666 
z
" transform="scale(0.015625)"/>
       </defs>
       <use xlink:href="#DejaVuSans-30"/>
       <use xlink:href="#DejaVuSans-2e" x="63.623047"/>
       <use xlink:href="#DejaVuSans-35" x="95.410156"/>
      </g>
     </g>
    </g>
    <g id="ytick_3">
     <g id="line2d_19">
      <path d="M 90 196.893966 
L 882 196.893966 
" clip-path="url(#pe458e3f830)" style="fill: none; stroke: #b0b0b0; stroke-opacity: 0.25; stroke-width: 0.8; stroke-linecap: square"/>
     </g>
     <g id="line2d_20">
      <g>
       <use xlink:href="#ma6fd6684e6" x="90" y="196.893966" style="stroke: #000000; stroke-width: 2"/>
      </g>
     </g>
     <g id="text_11">
      <!-- 1.0 -->
      <g transform="translate(67.096875 200.693184) scale(0.1 -0.1)">
       <use xlink:href="#DejaVuSans-31"/>
       <use xlink:href="#DejaVuSans-2e" x="63.623047"/>
       <use xlink:href="#DejaVuSans-30" x="95.410156"/>
      </g>
     </g>
    </g>
    <g id="ytick_4">
     <g id="line2d_21">
      <path d="M 90 143.636948 
L 882 143.636948 
" clip-path="url(#pe458e3f830)" style="fill: none; stroke: #b0b0b0; stroke-opacity: 0.25; stroke-width: 0.8; stroke-linecap: square"/>
     </g>
     <g id="line2d_22">
      <g>
       <use xlink:href="#ma6fd6684e6" x="90" y="143.636948" style="stroke: #000000; stroke-width: 2"/>
      </g>
     </g>
     <g id="text_12">
      <!-- 1.5 -->
      <g transform="translate(67.096875 147.436167) scale(0.1 -0.1)">
       <use xlink:href="#DejaVuSans-31"/>
       <use xlink:href="#DejaVuSans-2e" x="63.623047"/>
       <use xlink:href="#DejaVuSans-35" x="95.410156"/>
      </g>
     </g>
    </g>
    <g id="ytick_5">
     <g id="line2d_23">
      <path d="M 90 90.379931 
L 882 90.379931 
" clip-path="url(#pe458e3f830)" style="fill: none; stroke: #b0b0b0; stroke-opacity: 0.25; stroke-width: 0.8; stroke-linecap: square"/>
     </g>
     <g id="line2d_24">
      <g>
       <use xlink:href="#ma6fd6684e6" x="90" y="90.379931" style="stroke: #000000; stroke-width: 2"/>
      </g>
     </g>
     <g id="text_13">
      <!-- 2.0 -->
      <g transform="translate(67.096875 94.17915) scale(0.1 -0.1)">
       <use xlink:href="#DejaVuSans-32"/>
       <use xlink:href="#DejaVuSans-2e" x="63.623047"/>
       <use xlink:href="#DejaVuSans-30" x="95.410156"/>
      </g>
     </g>
    </g>
    <g id="ytick_6">
     <g id="line2d_25">
      <path d="M 90 37.122914 
L 882 37.122914 
" clip-path="url(#pe458e3f830)" style="fill: none; stroke: #b0b0b0; stroke-opacity: 0.25; stroke-width: 0.8; stroke-linecap: square"/>
     </g>
     <g id="line2d_26">
      <g>
       <use xlink:href="#ma6fd6684e6" x="90" y="37.122914" style="stroke: #000000; stroke-width: 2"/>
      </g>
     </g>
     <g id="text_14">
      <!-- 2.5 -->
      <g transform="translate(67.096875 40.922133) scale(0.1 -0.1)">
       <use xlink:href="#DejaVuSans-32"/>
       <use xlink:href="#DejaVuSans-2e" x="63.623047"/>
       <use xlink:href="#DejaVuSans-35" x="95.410156"/>
      </g>
     </g>
    </g>
    <g id="text_15">
     <!-- Probability density [a.u.^-1] -->
     <g transform="translate(61.017187 239.771344) rotate(-90) scale(0.1 -0.1)">
      <defs>
       <path id="DejaVuSans-50" d="M 1259 4147 
L 1259 2394 
L 2053 2394 
Q 2494 2394 2734 2622 
Q 2975 2850 2975 3272 
Q 2975 3691 2734 3919 
Q 2494 4147 2053 4147 
L 1259 4147 
z
M 628 4666 
L 2053 4666 
Q 2838 4666 3239 4311 
Q 3641 3956 3641 3272 
Q 3641 2581 3239 2228 
Q 2838 1875 2053 1875 
L 1259 1875 
L 1259 0 
L 628 0 
L 628 4666 
z
" transform="scale(0.015625)"/>
       <path id="DejaVuSans-72" d="M 2631 2963 
Q 2534 3019 2420 3045 
Q 2306 3072 2169 3072 
Q 1681 3072 1420 2755 
Q 1159 2438 1159 1844 
L 1159 0 
L 581 0 
L 581 3500 
L 1159 3500 
L 1159 2956 
Q 1341 3275 1631 3429 
Q 1922 3584 2338 3584 
Q 2397 3584 2469 3576 
Q 2541 3569 2628 3553 
L 2631 2963 
z
" transform="scale(0.015625)"/>
       <path id="DejaVuSans-6f" d="M 1959 3097 
Q 1497 3097 1228 2736 
Q 959 2375 959 1747 
Q 959 1119 1226 758 
Q 1494 397 1959 397 
Q 2419 397 2687 759 
Q 2956 1122 2956 1747 
Q 2956 2369 2687 2733 
Q 2419 3097 1959 3097 
z
M 1959 3584 
Q 2709 3584 3137 3096 
Q 3566 2609 3566 1747 
Q 3566 888 3137 398 
Q 2709 -91 1959 -91 
Q 1206 -91 779 398 
Q 353 888 353 1747 
Q 353 2609 779 3096 
Q 1206 3584 1959 3584 
z
" transform="scale(0.015625)"/>
       <path id="DejaVuSans-62" d="M 3116 1747 
Q 3116 2381 2855 2742 
Q 2594 3103 2138 3103 
Q 1681 3103 1420 2742 
Q 1159 2381 1159 1747 
Q 1159 1113 1420 752 
Q 1681 391 2138 391 
Q 2594 391 2855 752 
Q 3116 1113 3116 1747 
z
M 1159 2969 
Q 1341 3281 1617 3432 
Q 1894 3584 2278 3584 
Q 2916 3584 3314 3078 
Q 3713 2572 3713 1747 
Q 3713 922 3314 415 
Q 2916 -91 2278 -91 
Q 1894 -91 1617 61 
Q 1341 213 1159 525 
L 1159 0 
L 581 0 
L 581 4863 
L 1159 4863 
L 1159 2969 
z
" transform="scale(0.015625)"/>
       <path id="DejaVuSans-69" d="M 603 3500 
L 1178 3500 
L 1178 0 
L 603 0 
L 603 3500 
z
M 603 4863 
L 1178 4863 
L 1178 4134 
L 603 4134 
L 603 4863 
z
" transform="scale(0.015625)"/>
       <path id="DejaVuSans-6c" d="M 603 4863 
L 1178 4863 
L 1178 0 
L 603 0 
L 603 4863 
z
" transform="scale(0.015625)"/>
       <path id="DejaVuSans-74" d="M 1172 4494 
L 1172 3500 
L 2356 3500 
L 2356 3053 
L 1172 3053 
L 1172 1153 
Q 1172 725 1289 603 
Q 1406 481 1766 481 
L 2356 481 
L 2356 0 
L 1766 0 
Q 1100 0 847 248 
Q 594 497 594 1153 
L 594 3053 
L 172 3053 
L 172 3500 
L 594 3500 
L 594 4494 
L 1172 4494 
z
" transform="scale(0.015625)"/>
       <path id="DejaVuSans-79" d="M 2059 -325 
Q 1816 -950 1584 -1140 
Q 1353 -1331 966 -1331 
L 506 -1331 
L 506 -850 
L 844 -850 
Q 1081 -850 1212 -737 
Q 1344 -625 1503 -206 
L 1606 56 
L 191 3500 
L 800 3500 
L 1894 763 
L 2988 3500 
L 3597 3500 
L 2059 -325 
z
" transform="scale(0.015625)"/>
       <path id="DejaVuSans-64" d="M 2906 2969 
L 2906 4863 
L 3481 4863 
L 3481 0 
L 2906 0 
L 2906 525 
Q 2725 213 2448 61 
Q 2172 -91 1784 -91 
Q 1150 -91 751 415 
Q 353 922 353 1747 
Q 353 2572 751 3078 
Q 1150 3584 1784 3584 
Q 2172 3584 2448 3432 
Q 2725 3281 2906 2969 
z
M 947 1747 
Q 947 1113 1208 752 
Q 1469 391 1925 391 
Q 2381 391 2643 752 
Q 2906 1113 2906 1747 
Q 2906 2381 2643 2742 
Q 2381 3103 1925 3103 
Q 1469 3103 1208 2742 
Q 947 2381 947 1747 
z
" transform="scale(0.015625)"/>
       <path id="DejaVuSans-65" d="M 3597 1894 
L 3597 1613 
L 953 1613 
Q 991 1019 1311 708 
Q 1631 397 2203 397 
Q 2534 397 2845 478 
Q 3156 559 3463 722 
L 3463 178 
Q 3153 47 2828 -22 
Q 2503 -91 2169 -91 
Q 1331 -91 842 396 
Q 353 884 353 1716 
Q 353 2575 817 3079 
Q 1281 3584 2069 3584 
Q 2775 3584 3186 3129 
Q 3597 2675 3597 1894 
z
M 3022 2063 
Q 3016 2534 2758 2815 
Q 2500 3097 2075 3097 
Q 1594 3097 1305 2825 
Q 1016 2553 972 2059 
L 3022 2063 
z
" transform="scale(0.015625)"/>
       <path id="DejaVuSans-6e" d="M 3513 2113 
L 3513 0 
L 2938 0 
L 2938 2094 
Q 2938 2591 2744 2837 
Q 2550 3084 2163 3084 
Q 1697 3084 1428 2787 
Q 1159 2491 1159 1978 
L 1159 0 
L 581 0 
L 581 3500 
L 1159 3500 
L 1159 2956 
Q 1366 3272 1645 3428 
Q 1925 3584 2291 3584 
Q 2894 3584 3203 3211 
Q 3513 2838 3513 2113 
z
" transform="scale(0.015625)"/>
       <path id="DejaVuSans-73" d="M 2834 3397 
L 2834 2853 
Q 2591 2978 2328 3040 
Q 2066 3103 1784 3103 
Q 1356 3103 1142 2972 
Q 928 2841 928 2578 
Q 928 2378 1081 2264 
Q 1234 2150 1697 2047 
L 1894 2003 
Q 2506 1872 2764 1633 
Q 3022 1394 3022 966 
Q 3022 478 2636 193 
Q 2250 -91 1575 -91 
Q 1294 -91 989 -36 
Q 684 19 347 128 
L 347 722 
Q 666 556 975 473 
Q 1284 391 1588 391 
Q 1994 391 2212 530 
Q 2431 669 2431 922 
Q 2431 1156 2273 1281 
Q 2116 1406 1581 1522 
L 1381 1569 
Q 847 1681 609 1914 
Q 372 2147 372 2553 
Q 372 3047 722 3315 
Q 1072 3584 1716 3584 
Q 2034 3584 2315 3537 
Q 2597 3491 2834 3397 
z
" transform="scale(0.015625)"/>
       <path id="DejaVuSans-5e" d="M 2988 4666 
L 4684 2925 
L 4056 2925 
L 2681 4159 
L 1306 2925 
L 678 2925 
L 2375 4666 
L 2988 4666 
z
" transform="scale(0.015625)"/>
       <path id="DejaVuSans-2d" d="M 313 2009 
L 1997 2009 
L 1997 1497 
L 313 1497 
L 313 2009 
z
" transform="scale(0.015625)"/>
      </defs>
      <use xlink:href="#DejaVuSans-50"/>
      <use xlink:href="#DejaVuSans-72" x="58.552734"/>
      <use xlink:href="#DejaVuSans-6f" x="97.416016"/>
      <use xlink:href="#DejaVuSans-62" x="158.597656"/>
      <use xlink:href="#DejaVuSans-61" x="222.074219"/>
      <use xlink:href="#DejaVuSans-62" x="283.353516"/>
      <use xlink:href="#DejaVuSans-69" x="346.830078"/>
      <use xlink:href="#DejaVuSans-6c" x="374.613281"/>
      <use xlink:href="#DejaVuSans-69" x="402.396484"/>
      <use xlink:href="#DejaVuSans-74" x="430.179688"/>
      <use xlink:href="#DejaVuSans-79" x="469.388672"/>
      <use xlink:href="#DejaVuSans-20" x="528.568359"/>
      <use xlink:href="#DejaVuSans-64" x="560.355469"/>
      <use xlink:href="#DejaVuSans-65" x="623.832031"/>
      <use xlink:href="#DejaVuSans-6e" x="685.355469"/>
      <use xlink:href="#DejaVuSans-73" x="748.734375"/>
      <use xlink:href="#DejaVuSans-69" x="800.833984"/>
      <use xlink:href="#DejaVuSans-74" x="828.617188"/>
      <use xlink:href="#DejaVuSans-79" x="867.826172"/>
      <use xlink:href="#DejaVuSans-20" x="927.005859"/>
      <use xlink:href="#DejaVuSans-5b" x="958.792969"/>
      <use xlink:href="#DejaVuSans-61" x="997.806641"/>
      <use xlink:href="#DejaVuSans-2e" x="1059.085938"/>
      <use xlink:href="#DejaVuSans-75" x="1090.873047"/>
      <use xlink:href="#DejaVuSans-2e" x="1154.251953"/>
      <use xlink:href="#DejaVuSans-5e" x="1186.039062"/>
      <use xlink:href="#DejaVuSans-2d" x="1269.828125"/>
      <use xlink:href="#DejaVuSans-31" x="1305.912109"/>
      <use xlink:href="#DejaVuSans-5d" x="1369.535156"/>
     </g>
    </g>
   </g>
   <g id="line2d_27">
    <path d="M 454.644713 303.408 
L 454.644713 35.28 
" clip-path="url(#pe458e3f830)" style="fill: none; stroke-dasharray: 7.4,3.2; stroke-dashoffset: 0; stroke: #1f77b4; stroke-opacity: 0.45; stroke-width: 2"/>
   </g>
   <g id="patch_73">
    <path d="M 90 303.408 
L 90 35.28 
" style="fill: none; stroke: #000000; stroke-width: 2; stroke-linejoin: miter; stroke-linecap: square"/>
   </g>
   <g id="patch_74">
    <path d="M 882 303.408 
L 882 35.28 
" style="fill: none; stroke: #000000; stroke-width: 2; stroke-linejoin: miter; stroke-linecap: square"/>
   </g>
   <g id="patch_75">
    <path d="M 90 303.408 
L 882 303.408 
" style="fill: none; stroke: #000000; stroke-width: 2; stroke-linejoin: miter; stroke-linecap: square"/>
   </g>
   <g id="patch_76">
    <path d="M 90 35.28 
L 882 35.28 
" style="fill: none; stroke: #000000; stroke-width: 2; stroke-linejoin: miter; stroke-linecap: square"/>
   </g>
   <g id="text_16">
    <!-- Distribution of time-averaged intensity across random phase initializations -->
    <g transform="translate(261.54375 29.28) scale(0.12 -0.12)">
     <defs>
      <path id="DejaVuSans-44" d="M 1259 4147 
L 1259 519 
L 2022 519 
Q 2988 519 3436 956 
Q 3884 1394 3884 2338 
Q 3884 3275 3436 3711 
Q 2988 4147 2022 4147 
L 1259 4147 
z
M 628 4666 
L 1925 4666 
Q 3281 4666 3915 4102 
Q 4550 3538 4550 2338 
Q 4550 1131 3912 565 
Q 3275 0 1925 0 
L 628 0 
L 628 4666 
z
" transform="scale(0.015625)"/>
      <path id="DejaVuSans-66" d="M 2375 4863 
L 2375 4384 
L 1825 4384 
Q 1516 4384 1395 4259 
Q 1275 4134 1275 3809 
L 1275 3500 
L 2222 3500 
L 2222 3053 
L 1275 3053 
L 1275 0 
L 697 0 
L 697 3053 
L 147 3053 
L 147 3500 
L 697 3500 
L 697 3744 
Q 697 4328 969 4595 
Q 1241 4863 1831 4863 
L 2375 4863 
z
" transform="scale(0.015625)"/>
      <path id="DejaVuSans-6d" d="M 3328 2828 
Q 3544 3216 3844 3400 
Q 4144 3584 4550 3584 
Q 5097 3584 5394 3201 
Q 5691 2819 5691 2113 
L 5691 0 
L 5113 0 
L 5113 2094 
Q 5113 2597 4934 2840 
Q 4756 3084 4391 3084 
Q 3944 3084 3684 2787 
Q 3425 2491 3425 1978 
L 3425 0 
L 2847 0 
L 2847 2094 
Q 2847 2600 2669 2842 
Q 2491 3084 2119 3084 
Q 1678 3084 1418 2786 
Q 1159 2488 1159 1978 
L 1159 0 
L 581 0 
L 581 3500 
L 1159 3500 
L 1159 2956 
Q 1356 3278 1631 3431 
Q 1906 3584 2284 3584 
Q 2666 3584 2933 3390 
Q 3200 3197 3328 2828 
z
" transform="scale(0.015625)"/>
      <path id="DejaVuSans-76" d="M 191 3500 
L 800 3500 
L 1894 563 
L 2988 3500 
L 3597 3500 
L 2284 0 
L 1503 0 
L 191 3500 
z
" transform="scale(0.015625)"/>
      <path id="DejaVuSans-67" d="M 2906 1791 
Q 2906 2416 2648 2759 
Q 2391 3103 1925 3103 
Q 1463 3103 1205 2759 
Q 947 2416 947 1791 
Q 947 1169 1205 825 
Q 1463 481 1925 481 
Q 2391 481 2648 825 
Q 2906 1169 2906 1791 
z
M 3481 434 
Q 3481 -459 3084 -895 
Q 2688 -1331 1869 -1331 
Q 1566 -1331 1297 -1286 
Q 1028 -1241 775 -1147 
L 775 -588 
Q 1028 -725 1275 -790 
Q 1522 -856 1778 -856 
Q 2344 -856 2625 -561 
Q 2906 -266 2906 331 
L 2906 616 
Q 2728 306 2450 153 
Q 2172 0 1784 0 
Q 1141 0 747 490 
Q 353 981 353 1791 
Q 353 2603 747 3093 
Q 1141 3584 1784 3584 
Q 2172 3584 2450 3431 
Q 2728 3278 2906 2969 
L 2906 3500 
L 3481 3500 
L 3481 434 
z
" transform="scale(0.015625)"/>
      <path id="DejaVuSans-63" d="M 3122 3366 
L 3122 2828 
Q 2878 2963 2633 3030 
Q 2388 3097 2138 3097 
Q 1578 3097 1268 2742 
Q 959 2388 959 1747 
Q 959 1106 1268 751 
Q 1578 397 2138 397 
Q 2388 397 2633 464 
Q 2878 531 3122 666 
L 3122 134 
Q 2881 22 2623 -34 
Q 2366 -91 2075 -91 
Q 1284 -91 818 406 
Q 353 903 353 1747 
Q 353 2603 823 3093 
Q 1294 3584 2113 3584 
Q 2378 3584 2631 3529 
Q 2884 3475 3122 3366 
z
" transform="scale(0.015625)"/>
      <path id="DejaVuSans-70" d="M 1159 525 
L 1159 -1331 
L 581 -1331 
L 581 3500 
L 1159 3500 
L 1159 2969 
Q 1341 3281 1617 3432 
Q 1894 3584 2278 3584 
Q 2916 3584 3314 3078 
Q 3713 2572 3713 1747 
Q 3713 922 3314 415 
Q 2916 -91 2278 -91 
Q 1894 -91 1617 61 
Q 1341 213 1159 525 
z
M 3116 1747 
Q 3116 2381 2855 2742 
Q 2594 3103 2138 3103 
Q 1681 3103 1420 2742 
Q 1159 2381 1159 1747 
Q 1159 1113 1420 752 
Q 1681 391 2138 391 
Q 2594 391 2855 752 
Q 3116 1113 3116 1747 
z
" transform="scale(0.015625)"/>
      <path id="DejaVuSans-68" d="M 3513 2113 
L 3513 0 
L 2938 0 
L 2938 2094 
Q 2938 2591 2744 2837 
Q 2550 3084 2163 3084 
Q 1697 3084 1428 2787 
Q 1159 2491 1159 1978 
L 1159 0 
L 581 0 
L 581 4863 
L 1159 4863 
L 1159 2956 
Q 1366 3272 1645 3428 
Q 1925 3584 2291 3584 
Q 2894 3584 3203 3211 
Q 3513 2838 3513 2113 
z
" transform="scale(0.015625)"/>
      <path id="DejaVuSans-7a" d="M 353 3500 
L 3084 3500 
L 3084 2975 
L 922 459 
L 3084 459 
L 3084 0 
L 275 0 
L 275 525 
L 2438 3041 
L 353 3041 
L 353 3500 
z
" transform="scale(0.015625)"/>
     </defs>
     <use xlink:href="#DejaVuSans-44"/>
     <use xlink:href="#DejaVuSans-69" x="77.001953"/>
     <use xlink:href="#DejaVuSans-73" x="104.785156"/>
     <use xlink:href="#DejaVuSans-74" x="156.884766"/>
     <use xlink:href="#DejaVuSans-72" x="196.09375"/>
     <use xlink:href="#DejaVuSans-69" x="237.207031"/>
     <use xlink:href="#DejaVuSans-62" x="264.990234"/>
     <use xlink:href="#DejaVuSans-75" x="328.466797"/>
     <use xlink:href="#DejaVuSans-74" x="391.845703"/>
     <use xlink:href="#DejaVuSans-69" x="431.054688"/>
     <use xlink:href="#DejaVuSans-6f" x="458.837891"/>
     <use xlink:href="#DejaVuSans-6e" x="520.019531"/>
     <use xlink:href="#DejaVuSans-20" x="583.398438"/>
     <use xlink:href="#DejaVuSans-6f" x="615.185547"/>
     <use xlink:href="#DejaVuSans-66" x="676.367188"/>
     <use xlink:href="#DejaVuSans-20" x="711.572266"/>
     <use xlink:href="#DejaVuSans-74" x="743.359375"/>
     <use xlink:href="#DejaVuSans-69" x="782.568359"/>
     <use xlink:href="#DejaVuSans-6d" x="810.351562"/>
     <use xlink:href="#DejaVuSans-65" x="907.763672"/>
     <use xlink:href="#DejaVuSans-2d" x="969.287109"/>
     <use xlink:href="#DejaVuSans-61" x="1005.371094"/>
     <use xlink:href="#DejaVuSans-76" x="1066.650391"/>
     <use xlink:href="#DejaVuSans-65" x="1125.830078"/>
     <use xlink:href="#DejaVuSans-72" x="1187.353516"/>
     <use xlink:href="#DejaVuSans-61" x="1228.466797"/>
     <use xlink:href="#DejaVuSans-67" x="1289.746094"/>
     <use xlink:href="#DejaVuSans-65" x="1353.222656"/>
     <use xlink:href="#DejaVuSans-64" x="1414.746094"/>
     <use xlink:href="#DejaVuSans-20" x="1478.222656"/>
     <use xlink:href="#DejaVuSans-69" x="1510.009766"/>
     <use xlink:href="#DejaVuSans-6e" x="1537.792969"/>
     <use xlink:href="#DejaVuSans-74" x="1601.171875"/>
     <use xlink:href="#DejaVuSans-65" x="1640.380859"/>
     <use xlink:href="#DejaVuSans-6e" x="1701.904297"/>
     <use xlink:href="#DejaVuSans-73" x="1765.283203"/>
     <use xlink:href="#DejaVuSans-69" x="1817.382812"/>
     <use xlink:href="#DejaVuSans-74" x="1845.166016"/>
     <use xlink:href="#DejaVuSans-79" x="1884.375"/>
     <use xlink:href="#DejaVuSans-20" x="1943.554688"/>
     <use xlink:href="#DejaVuSans-61" x="1975.341797"/>
     <use xlink:href="#DejaVuSans-63" x="2036.621094"/>
     <use xlink:href="#DejaVuSans-72" x="2091.601562"/>
     <use xlink:href="#DejaVuSans-6f" x="2130.464844"/>
     <use xlink:href="#DejaVuSans-73" x="2191.646484"/>
     <use xlink:href="#DejaVuSans-73" x="2243.746094"/>
     <use xlink:href="#DejaVuSans-20" x="2295.845703"/>
     <use xlink:href="#DejaVuSans-72" x="2327.632812"/>
     <use xlink:href="#DejaVuSans-61" x="2368.746094"/>
     <use xlink:href="#DejaVuSans-6e" x="2430.025391"/>
     <use xlink:href="#DejaVuSans-64" x="2493.404297"/>
     <use xlink:href="#DejaVuSans-6f" x="2556.880859"/>
     <use xlink:href="#DejaVuSans-6d" x="2618.0625"/>
     <use xlink:href="#DejaVuSans-20" x="2715.474609"/>
     <use xlink:href="#DejaVuSans-70" x="2747.261719"/>
     <use xlink:href="#DejaVuSans-68" x="2810.738281"/>
     <use xlink:href="#DejaVuSans-61" x="2874.117188"/>
     <use xlink:href="#DejaVuSans-73" x="2935.396484"/>
     <use xlink:href="#DejaVuSans-65" x="2987.496094"/>
     <use xlink:href="#DejaVuSans-20" x="3049.019531"/>
     <use xlink:href="#DejaVuSans-69" x="3080.806641"/>
     <use xlink:href="#DejaVuSans-6e" x="3108.589844"/>
     <use xlink:href="#DejaVuSans-69" x="3171.96875"/>
     <use xlink:href="#DejaVuSans-74" x="3199.751953"/>
     <use xlink:href="#DejaVuSans-69" x="3238.960938"/>
     <use xlink:href="#DejaVuSans-61" x="3266.744141"/>
     <use xlink:href="#DejaVuSans-6c" x="3328.023438"/>
     <use xlink:href="#DejaVuSans-69" x="3355.806641"/>
     <use xlink:href="#DejaVuSans-7a" x="3383.589844"/>
     <use xlink:href="#DejaVuSans-61" x="3436.080078"/>
     <use xlink:href="#DejaVuSans-74" x="3497.359375"/>
     <use xlink:href="#DejaVuSans-69" x="3536.568359"/>
     <use xlink:href="#DejaVuSans-6f" x="3564.351562"/>
     <use xlink:href="#DejaVuSans-6e" x="3625.533203"/>
     <use xlink:href="#DejaVuSans-73" x="3688.912109"/>
    </g>
   </g>
  </g>
 </g>
 <defs>
  <clipPath id="pe458e3f830">
   <rect x="90" y="35.28" width="792" height="268.128"/>
  </clipPath>
 </defs>
</svg>
