<svg xmlns="http://www.w3.org/2000/svg" width="900" height="260" viewBox="0 0 900 260">
  <title>Step 2: wavenumber k (phase slope in space)</title>
  <defs>
    <style>
      .axis { stroke: #000; stroke-width: 2; fill: none; }
      .thin { stroke: #000; stroke-width: 1.2; fill: none; }
      .wave { stroke: #000; stroke-width: 2.6; fill: none; }
      .dash { stroke-dasharray: 6 4; }
      .label { font-family: sans-serif; font-size: 16px; fill: #000; }
      .small { font-family: sans-serif; font-size: 13px; fill: #000; }
      .eq { font-family: sans-serif; font-size: 15px; fill: #000; }
    </style>
  </defs>

  <text class="label" x="40" y="28">Step 2: wavenumber k = 2π/λ is “phase advance per meter” (rad/m)</text>

  <!-- Left panel: wave -->
  <rect class="thin" x="40" y="44" width="420" height="170"/>
  <text class="small" x="54" y="68">Wave repeats every λ</text>

  <line class="axis" x1="70" y1="155" x2="430" y2="155"/>
  <polygon points="430,155 418,149 418,161" fill="#000"/>
  <text class="small" x="440" y="160">x</text>

  <line class="thin dash" x1="70" y1="155" x2="430" y2="155"/>
  <path class="wave" d="M 80.00 155.00 L 81.96 152.19 L 83.91 149.40 L 85.87 146.64 L 87.82 143.91 L 89.78 141.25 L 91.73 138.65 L 93.69 136.12 L 95.64 133.70 L 97.60 131.38 L 99.55 129.17 L 101.51 127.09 L 103.46 125.15 L 105.42 123.36 L 107.37 121.72 L 109.33 120.24 L 111.28 118.94 L 113.24 117.81 L 115.20 116.87 L 117.15 116.12 L 119.11 115.55 L 121.06 115.19 L 123.02 115.01 L 124.97 115.04 L 126.93 115.26 L 128.88 115.68 L 130.84 116.29 L 132.79 117.09 L 134.75 118.08 L 136.70 119.25 L 138.66 120.60 L 140.61 122.11 L 142.57 123.79 L 144.53 125.62 L 146.48 127.60 L 148.44 129.71 L 150.39 131.95 L 152.35 134.29 L 154.30 136.75 L 156.26 139.29 L 158.21 141.91 L 160.17 144.59 L 162.12 147.33 L 164.08 150.10 L 166.03 152.89 L 167.99 155.70 L 169.94 158.51 L 171.90 161.29 L 173.85 164.05 L 175.81 166.76 L 177.77 169.41 L 179.72 171.99 L 181.68 174.49 L 183.63 176.89 L 185.59 179.19 L 187.54 181.36 L 189.50 183.41 L 191.45 185.31 L 193.41 187.07 L 195.36 188.67 L 197.32 190.10 L 199.27 191.36 L 201.23 192.44 L 203.18 193.33 L 205.14 194.04 L 207.09 194.56 L 209.05 194.88 L 211.01 195.00 L 212.96 194.92 L 214.92 194.65 L 216.87 194.19 L 218.83 193.53 L 220.78 192.68 L 222.74 191.65 L 224.69 190.43 L 226.65 189.04 L 228.60 187.48 L 230.56 185.77 L 232.51 183.90 L 234.47 181.89 L 236.42 179.74 L 238.38 177.48 L 240.34 175.10 L 242.29 172.63 L 244.25 170.06 L 246.20 167.43 L 248.16 164.73 L 250.11 161.98 L 252.07 159.20 L 254.02 156.40 L 255.98 153.60 L 257.93 150.80 L 259.89 148.02 L 261.84 145.27 L 263.80 142.57 L 265.75 139.94 L 267.71 137.37 L 269.66 134.90 L 271.62 132.52 L 273.58 130.26 L 275.53 128.11 L 277.49 126.10 L 279.44 124.23 L 281.40 122.52 L 283.35 120.96 L 285.31 119.57 L 287.26 118.35 L 289.22 117.32 L 291.17 116.47 L 293.13 115.81 L 295.08 115.35 L 297.04 115.08 L 298.99 115.00 L 300.95 115.12 L 302.91 115.44 L 304.86 115.96 L 306.82 116.67 L 308.77 117.56 L 310.73 118.64 L 312.68 119.90 L 314.64 121.33 L 316.59 122.93 L 318.55 124.69 L 320.50 126.59 L 322.46 128.64 L 324.41 130.81 L 326.37 133.11 L 328.32 135.51 L 330.28 138.01 L 332.23 140.59 L 334.19 143.24 L 336.15 145.95 L 338.10 148.71 L 340.06 151.49 L 342.01 154.30 L 343.97 157.11 L 345.92 159.90 L 347.88 162.67 L 349.83 165.41 L 351.79 168.09 L 353.74 170.71 L 355.70 173.25 L 357.65 175.71 L 359.61 178.05 L 361.56 180.29 L 363.52 182.40 L 365.47 184.38 L 367.43 186.21 L 369.39 187.89 L 371.34 189.40 L 373.30 190.75 L 375.25 191.92 L 377.21 192.91 L 379.16 193.71 L 381.12 194.32 L 383.07 194.74 L 385.03 194.96 L 386.98 194.99 L 388.94 194.81 L 390.89 194.45 L 392.85 193.88 L 394.80 193.13 L 396.76 192.19 L 398.72 191.06 L 400.67 189.76 L 402.63 188.28 L 404.58 186.64 L 406.54 184.85 L 408.49 182.91 L 410.45 180.83 L 412.40 178.62 L 414.36 176.30 L 416.31 173.88 L 418.27 171.35 L 420.22 168.75 L 422.18 166.09 L 424.13 163.36 L 426.09 160.60 L 428.04 157.81 L 430.00 155.00"/>

  <!-- λ marker -->
  <line class="thin" x1="140" y1="82" x2="140" y2="102"/>
  <line class="thin" x1="315" y1="82" x2="315" y2="102"/>
  <line class="axis" x1="140" y1="82" x2="315" y2="82"/>
  <polygon points="315,82 305,77 305,87" fill="#000"/>
  <polygon points="140,82 150,77 150,87" fill="#000" transform="rotate(180 140 82)"/>
  <text class="small" x="225" y="74">λ</text>

  <!-- Right panel: phase vs x -->
  <rect class="thin" x="480" y="44" width="380" height="170"/>
  <text class="small" x="494" y="68">Phase grows linearly with x</text>

  <line class="axis" x1="520" y1="190" x2="840" y2="190"/>
  <polygon points="840,190 828,184 828,196" fill="#000"/>
  <text class="small" x="850" y="195">x</text>

  <line class="axis" x1="520" y1="190" x2="520" y2="80"/>
  <polygon points="520,80 514,92 526,92" fill="#000"/>
  <text class="small" x="470" y="88">phase φ</text>

  <!-- line φ(x)=kx -->
  <line class="thin" x1="540" y1="190" x2="800" y2="90"/>
  <polygon points="800,90 790,92 796,100" fill="#000"/>
  <text class="small" x="690" y="108">slope = k</text>

  <!-- show that Δx=λ gives Δφ=2π -->
  <line class="thin dash" x1="600" y1="190" x2="600" y2="144"/>
  <line class="thin dash" x1="720" y1="190" x2="720" y2="98"/>
  <line class="axis" x1="600" y1="206" x2="720" y2="206"/>
  <polygon points="720,206 710,201 710,211" fill="#000"/>
  <polygon points="600,206 610,201 610,211" fill="#000" transform="rotate(180 600 206)"/>
  <text class="small" x="653" y="228">Δx = λ</text>

  <text class="small" x="728" y="120">Δφ = 2π</text>

  <!-- Equation -->
  <text class="eq" x="120" y="244">k = 2π/λ  =  Δφ/Δx</text>
</svg>
