<svg xmlns="http://www.w3.org/2000/svg" width="900" height="330" viewBox="0 0 900 330">
  <title>Shorter wavelength means larger k (more oscillations per meter)</title>
  <defs>
    <style>
      .axis { stroke: #000; stroke-width: 2; fill: none; }
      .thin { stroke: #000; stroke-width: 1.2; fill: none; }
      .label { font-family: sans-serif; font-size: 16px; fill: #000; }
      .small { font-family: sans-serif; font-size: 13px; fill: #000; }
      .wave1 { stroke: #111; stroke-width: 2.6; fill: none; }
      .wave2 { stroke: #444; stroke-width: 2.6; fill: none; }
      .wave3 { stroke: #777; stroke-width: 2.6; fill: none; }
    </style>
  </defs>

  <text class="label" x="40" y="30">Visual: shorter λ → larger k = 2π/λ (more oscillations per unit distance)</text>
  <line class="axis" x1="140" y1="295" x2="860" y2="295"/>
  <polygon points="860,295 848,289 848,301" fill="#000"/>
  <text class="small" x="870" y="300">x [µm]</text>
  <line class="axis" x1="110" y1="295" x2="110" y2="55"/>
  <polygon points="110,55 104,67 116,67" fill="#000"/>
  <text class="small" x="70" y="62">E [a.u.]</text>
  <line class="thin" x1="140.0" y1="290" x2="140.0" y2="300"/>
  <text class="small" x="136.0" y="317">0</text>
  <line class="thin" x1="500.0" y1="290" x2="500.0" y2="300"/>
  <text class="small" x="496.0" y="317">2</text>
  <line class="thin" x1="860.0" y1="290" x2="860.0" y2="300"/>
  <text class="small" x="856.0" y="317">4</text>
  <line class="thin" x1="140" y1="90" x2="860" y2="90" opacity="0.35"/>
  <path class="wave1" d="M 140.00,90.00 L 141.44,87.18 L 142.89,84.40 L 144.33,81.67 L 145.77,79.02 L 147.21,76.49 L 148.66,74.09 L 150.10,71.85 L 151.54,69.80 L 152.99,67.95 L 154.43,66.33 L 155.87,64.94 L 157.31,63.81 L 158.76,62.95 L 160.20,62.36 L 161.64,62.05 L 163.09,62.02 L 164.53,62.28 L 165.97,62.82 L 167.41,63.63 L 168.86,64.71 L 170.30,66.05 L 171.74,67.63 L 173.19,69.44 L 174.63,71.45 L 176.07,73.66 L 177.52,76.03 L 178.96,78.54 L 180.40,81.16 L 181.84,83.88 L 183.29,86.66 L 184.73,89.47 L 186.17,92.29 L 187.62,95.08 L 189.06,97.83 L 190.50,100.49 L 191.94,103.05 L 193.39,105.47 L 194.83,107.74 L 196.27,109.83 L 197.72,111.72 L 199.16,113.38 L 200.60,114.81 L 202.04,115.99 L 203.49,116.91 L 204.93,117.55 L 206.37,117.91 L 207.82,117.99 L 209.26,117.79 L 210.70,117.30 L 212.14,116.54 L 213.59,115.51 L 215.03,114.22 L 216.47,112.68 L 217.92,110.92 L 219.36,108.94 L 220.80,106.77 L 222.24,104.43 L 223.69,101.94 L 225.13,99.34 L 226.57,96.63 L 228.02,93.87 L 229.46,91.06 L 230.90,88.24 L 232.34,85.44 L 233.79,82.68 L 235.23,80.00 L 236.67,77.42 L 238.12,74.97 L 239.56,72.67 L 241.00,70.55 L 242.44,68.62 L 243.89,66.91 L 245.33,65.43 L 246.77,64.21 L 248.22,63.24 L 249.66,62.55 L 251.10,62.13 L 252.55,62.00 L 253.99,62.15 L 255.43,62.58 L 256.87,63.30 L 258.32,64.28 L 259.76,65.52 L 261.20,67.01 L 262.65,68.73 L 264.09,70.67 L 265.53,72.81 L 266.97,75.12 L 268.42,77.58 L 269.86,80.17 L 271.30,82.85 L 272.75,85.61 L 274.19,88.41 L 275.63,91.23 L 277.07,94.04 L 278.52,96.81 L 279.96,99.50 L 281.40,102.10 L 282.85,104.58 L 284.29,106.91 L 285.73,109.07 L 287.17,111.03 L 288.62,112.79 L 290.06,114.31 L 291.50,115.58 L 292.95,116.60 L 294.39,117.34 L 295.83,117.81 L 297.27,118.00 L 298.72,117.90 L 300.16,117.52 L 301.60,116.86 L 303.05,115.93 L 304.49,114.73 L 305.93,113.29 L 307.37,111.61 L 308.82,109.71 L 310.26,107.60 L 311.70,105.33 L 313.15,102.89 L 314.59,100.33 L 316.03,97.66 L 317.47,94.91 L 318.92,92.11 L 320.36,89.29 L 321.80,86.48 L 323.25,83.71 L 324.69,81.00 L 326.13,78.38 L 327.58,75.87 L 329.02,73.51 L 330.46,71.32 L 331.90,69.32 L 333.35,67.52 L 334.79,65.96 L 336.23,64.64 L 337.68,63.57 L 339.12,62.78 L 340.56,62.26 L 342.00,62.02 L 343.45,62.06 L 344.89,62.39 L 346.33,63.00 L 347.78,63.88 L 349.22,65.02 L 350.66,66.42 L 352.10,68.06 L 353.55,69.92 L 354.99,71.99 L 356.43,74.23 L 357.88,76.64 L 359.32,79.18 L 360.76,81.84 L 362.20,84.57 L 363.65,87.36 L 365.09,90.18 L 366.53,92.99 L 367.98,95.78 L 369.42,98.50 L 370.86,101.14 L 372.30,103.67 L 373.75,106.06 L 375.19,108.28 L 376.63,110.32 L 378.08,112.16 L 379.52,113.77 L 380.96,115.13 L 382.40,116.25 L 383.85,117.09 L 385.29,117.67 L 386.73,117.96 L 388.18,117.97 L 389.62,117.69 L 391.06,117.14 L 392.51,116.31 L 393.95,115.21 L 395.39,113.86 L 396.83,112.26 L 398.28,110.44 L 399.72,108.41 L 401.16,106.20 L 402.61,103.82 L 404.05,101.30 L 405.49,98.67 L 406.93,95.95 L 408.38,93.17 L 409.82,90.35 L 411.26,87.54 L 412.71,84.74 L 414.15,82.00 L 415.59,79.35 L 417.03,76.80 L 418.48,74.38 L 419.92,72.12 L 421.36,70.05 L 422.81,68.17 L 424.25,66.52 L 425.69,65.10 L 427.13,63.94 L 428.58,63.04 L 430.02,62.42 L 431.46,62.07 L 432.91,62.01 L 434.35,62.23 L 435.79,62.74 L 437.23,63.52 L 438.68,64.56 L 440.12,65.87 L 441.56,67.42 L 443.01,69.20 L 444.45,71.19 L 445.89,73.37 L 447.33,75.72 L 448.78,78.22 L 450.22,80.83 L 451.66,83.54 L 453.11,86.31 L 454.55,89.12 L 455.99,91.94 L 457.43,94.74 L 458.88,97.49 L 460.32,100.16 L 461.76,102.74 L 463.21,105.18 L 464.65,107.47 L 466.09,109.58 L 467.54,111.49 L 468.98,113.19 L 470.42,114.65 L 471.86,115.86 L 473.31,116.81 L 474.75,117.49 L 476.19,117.88 L 477.64,118.00 L 479.08,117.83 L 480.52,117.38 L 481.96,116.65 L 483.41,115.65 L 484.85,114.39 L 486.29,112.89 L 487.74,111.15 L 489.18,109.20 L 490.62,107.05 L 492.06,104.73 L 493.51,102.26 L 494.95,99.67 L 496.39,96.98 L 497.84,94.21 L 499.28,91.41 L 500.72,88.59 L 502.16,85.79 L 503.61,83.02 L 505.05,80.33 L 506.49,77.74 L 507.94,75.27 L 509.38,72.95 L 510.82,70.80 L 512.26,68.85 L 513.71,67.11 L 515.15,65.61 L 516.59,64.35 L 518.04,63.35 L 519.48,62.62 L 520.92,62.17 L 522.36,62.00 L 523.81,62.12 L 525.25,62.51 L 526.69,63.19 L 528.14,64.14 L 529.58,65.35 L 531.02,66.81 L 532.46,68.51 L 533.91,70.42 L 535.35,72.53 L 536.79,74.82 L 538.24,77.26 L 539.68,79.84 L 541.12,82.51 L 542.57,85.26 L 544.01,88.06 L 545.45,90.88 L 546.89,93.69 L 548.34,96.46 L 549.78,99.17 L 551.22,101.78 L 552.67,104.28 L 554.11,106.63 L 555.55,108.81 L 556.99,110.80 L 558.44,112.58 L 559.88,114.13 L 561.32,115.44 L 562.77,116.48 L 564.21,117.26 L 565.65,117.77 L 567.09,117.99 L 568.54,117.93 L 569.98,117.58 L 571.42,116.96 L 572.87,116.06 L 574.31,114.90 L 575.75,113.48 L 577.19,111.83 L 578.64,109.95 L 580.08,107.88 L 581.52,105.62 L 582.97,103.20 L 584.41,100.65 L 585.85,98.00 L 587.29,95.26 L 588.74,92.46 L 590.18,89.65 L 591.62,86.83 L 593.07,84.05 L 594.51,81.33 L 595.95,78.70 L 597.39,76.18 L 598.84,73.80 L 600.28,71.59 L 601.72,69.56 L 603.17,67.74 L 604.61,66.14 L 606.05,64.79 L 607.49,63.69 L 608.94,62.86 L 610.38,62.31 L 611.82,62.03 L 613.27,62.04 L 614.71,62.33 L 616.15,62.91 L 617.60,63.75 L 619.04,64.87 L 620.48,66.23 L 621.92,67.84 L 623.37,69.68 L 624.81,71.72 L 626.25,73.94 L 627.70,76.33 L 629.14,78.86 L 630.58,81.50 L 632.02,84.22 L 633.47,87.01 L 634.91,89.82 L 636.35,92.64 L 637.80,95.43 L 639.24,98.16 L 640.68,100.82 L 642.12,103.36 L 643.57,105.77 L 645.01,108.01 L 646.45,110.08 L 647.90,111.94 L 649.34,113.58 L 650.78,114.98 L 652.22,116.12 L 653.67,117.00 L 655.11,117.61 L 656.55,117.94 L 658.00,117.98 L 659.44,117.74 L 660.88,117.22 L 662.32,116.43 L 663.77,115.36 L 665.21,114.04 L 666.65,112.48 L 668.10,110.68 L 669.54,108.68 L 670.98,106.49 L 672.42,104.13 L 673.87,101.62 L 675.31,99.00 L 676.75,96.29 L 678.20,93.52 L 679.64,90.71 L 681.08,87.89 L 682.53,85.09 L 683.97,82.34 L 685.41,79.67 L 686.85,77.11 L 688.30,74.67 L 689.74,72.40 L 691.18,70.29 L 692.63,68.39 L 694.07,66.71 L 695.51,65.27 L 696.95,64.07 L 698.40,63.14 L 699.84,62.48 L 701.28,62.10 L 702.73,62.00 L 704.17,62.19 L 705.61,62.66 L 707.05,63.40 L 708.50,64.42 L 709.94,65.69 L 711.38,67.21 L 712.83,68.97 L 714.27,70.93 L 715.71,73.09 L 717.15,75.42 L 718.60,77.90 L 720.04,80.50 L 721.48,83.19 L 722.93,85.96 L 724.37,88.77 L 725.81,91.59 L 727.25,94.39 L 728.70,97.15 L 730.14,99.83 L 731.58,102.42 L 733.03,104.88 L 734.47,107.19 L 735.91,109.33 L 737.35,111.27 L 738.80,112.99 L 740.24,114.48 L 741.68,115.72 L 743.13,116.70 L 744.57,117.42 L 746.01,117.85 L 747.45,118.00 L 748.90,117.87 L 750.34,117.45 L 751.78,116.76 L 753.23,115.79 L 754.67,114.57 L 756.11,113.09 L 757.56,111.38 L 759.00,109.45 L 760.44,107.33 L 761.88,105.03 L 763.33,102.58 L 764.77,100.00 L 766.21,97.32 L 767.66,94.56 L 769.10,91.76 L 770.54,88.94 L 771.98,86.13 L 773.43,83.37 L 774.87,80.66 L 776.31,78.06 L 777.76,75.57 L 779.20,73.23 L 780.64,71.06 L 782.08,69.08 L 783.53,67.32 L 784.97,65.78 L 786.41,64.49 L 787.86,63.46 L 789.30,62.70 L 790.74,62.21 L 792.18,62.01 L 793.63,62.09 L 795.07,62.45 L 796.51,63.09 L 797.96,64.01 L 799.40,65.19 L 800.84,66.62 L 802.28,68.28 L 803.73,70.17 L 805.17,72.26 L 806.61,74.53 L 808.06,76.95 L 809.50,79.51 L 810.94,82.17 L 812.38,84.92 L 813.83,87.71 L 815.27,90.53 L 816.71,93.34 L 818.16,96.12 L 819.60,98.84 L 821.04,101.46 L 822.48,103.97 L 823.93,106.34 L 825.37,108.55 L 826.81,110.56 L 828.26,112.37 L 829.70,113.95 L 831.14,115.29 L 832.59,116.37 L 834.03,117.18 L 835.47,117.72 L 836.91,117.98 L 838.36,117.95 L 839.80,117.64 L 841.24,117.05 L 842.69,116.19 L 844.13,115.06 L 845.57,113.67 L 847.01,112.05 L 848.46,110.20 L 849.90,108.15 L 851.34,105.91 L 852.79,103.51 L 854.23,100.98 L 855.67,98.33 L 857.11,95.60 L 858.56,92.82 L 860.00,90.00"/>
  <text class="small" x="40" y="65">λ = 0.5 µm  →  k = 2π/λ ≈ 12.57 rad/µm</text>
  <line class="thin" x1="140" y1="170" x2="860" y2="170" opacity="0.35"/>
  <path class="wave2" d="M 140.00,170.00 L 141.44,168.59 L 142.89,167.18 L 144.33,165.79 L 145.77,164.40 L 147.21,163.02 L 148.66,161.67 L 150.10,160.33 L 151.54,159.02 L 152.99,157.74 L 154.43,156.49 L 155.87,155.27 L 157.31,154.09 L 158.76,152.95 L 160.20,151.85 L 161.64,150.80 L 163.09,149.80 L 164.53,148.85 L 165.97,147.95 L 167.41,147.11 L 168.86,146.33 L 170.30,145.61 L 171.74,144.94 L 173.19,144.35 L 174.63,143.81 L 176.07,143.35 L 177.52,142.95 L 178.96,142.62 L 180.40,142.36 L 181.84,142.17 L 183.29,142.05 L 184.73,142.00 L 186.17,142.02 L 187.62,142.12 L 189.06,142.28 L 190.50,142.51 L 191.94,142.82 L 193.39,143.19 L 194.83,143.63 L 196.27,144.14 L 197.72,144.71 L 199.16,145.35 L 200.60,146.05 L 202.04,146.81 L 203.49,147.63 L 204.93,148.51 L 206.37,149.44 L 207.82,150.42 L 209.26,151.45 L 210.70,152.53 L 212.14,153.66 L 213.59,154.82 L 215.03,156.03 L 216.47,157.26 L 217.92,158.54 L 219.36,159.84 L 220.80,161.16 L 222.24,162.51 L 223.69,163.88 L 225.13,165.26 L 226.57,166.66 L 228.02,168.06 L 229.46,169.47 L 230.90,170.88 L 232.34,172.29 L 233.79,173.69 L 235.23,175.08 L 236.67,176.46 L 238.12,177.83 L 239.56,179.17 L 241.00,180.49 L 242.44,181.78 L 243.89,183.05 L 245.33,184.28 L 246.77,185.47 L 248.22,186.63 L 249.66,187.74 L 251.10,188.81 L 252.55,189.83 L 253.99,190.80 L 255.43,191.72 L 256.87,192.58 L 258.32,193.38 L 259.76,194.13 L 261.20,194.81 L 262.65,195.44 L 264.09,195.99 L 265.53,196.48 L 266.97,196.91 L 268.42,197.26 L 269.86,197.55 L 271.30,197.77 L 272.75,197.91 L 274.19,197.99 L 275.63,197.99 L 277.07,197.93 L 278.52,197.79 L 279.96,197.58 L 281.40,197.30 L 282.85,196.96 L 284.29,196.54 L 285.73,196.06 L 287.17,195.51 L 288.62,194.90 L 290.06,194.22 L 291.50,193.48 L 292.95,192.68 L 294.39,191.83 L 295.83,190.92 L 297.27,189.95 L 298.72,188.94 L 300.16,187.88 L 301.60,186.77 L 303.05,185.62 L 304.49,184.43 L 305.93,183.20 L 307.37,181.94 L 308.82,180.65 L 310.26,179.34 L 311.70,178.00 L 313.15,176.63 L 314.59,175.26 L 316.03,173.87 L 317.47,172.46 L 318.92,171.06 L 320.36,169.65 L 321.80,168.24 L 323.25,166.83 L 324.69,165.44 L 326.13,164.05 L 327.58,162.68 L 329.02,161.33 L 330.46,160.00 L 331.90,158.70 L 333.35,157.42 L 334.79,156.18 L 336.23,154.97 L 337.68,153.80 L 339.12,152.67 L 340.56,151.59 L 342.00,150.55 L 343.45,149.56 L 344.89,148.62 L 346.33,147.74 L 347.78,146.91 L 349.22,146.14 L 350.66,145.43 L 352.10,144.79 L 353.55,144.21 L 354.99,143.69 L 356.43,143.24 L 357.88,142.86 L 359.32,142.55 L 360.76,142.31 L 362.20,142.13 L 363.65,142.03 L 365.09,142.00 L 366.53,142.04 L 367.98,142.15 L 369.42,142.33 L 370.86,142.58 L 372.30,142.91 L 373.75,143.30 L 375.19,143.75 L 376.63,144.28 L 378.08,144.87 L 379.52,145.52 L 380.96,146.23 L 382.40,147.01 L 383.85,147.84 L 385.29,148.73 L 386.73,149.68 L 388.18,150.67 L 389.62,151.72 L 391.06,152.81 L 392.51,153.94 L 393.95,155.12 L 395.39,156.33 L 396.83,157.58 L 398.28,158.86 L 399.72,160.17 L 401.16,161.50 L 402.61,162.85 L 404.05,164.22 L 405.49,165.61 L 406.93,167.01 L 408.38,168.41 L 409.82,169.82 L 411.26,171.23 L 412.71,172.64 L 414.15,174.04 L 415.59,175.43 L 417.03,176.81 L 418.48,178.16 L 419.92,179.50 L 421.36,180.82 L 422.81,182.10 L 424.25,183.36 L 425.69,184.58 L 427.13,185.77 L 428.58,186.91 L 430.02,188.01 L 431.46,189.07 L 432.91,190.08 L 434.35,191.03 L 435.79,191.94 L 437.23,192.79 L 438.68,193.58 L 440.12,194.31 L 441.56,194.98 L 443.01,195.58 L 444.45,196.12 L 445.89,196.60 L 447.33,197.00 L 448.78,197.34 L 450.22,197.61 L 451.66,197.81 L 453.11,197.94 L 454.55,198.00 L 455.99,197.98 L 457.43,197.90 L 458.88,197.74 L 460.32,197.52 L 461.76,197.22 L 463.21,196.86 L 464.65,196.43 L 466.09,195.93 L 467.54,195.36 L 468.98,194.73 L 470.42,194.04 L 471.86,193.29 L 473.31,192.48 L 474.75,191.61 L 476.19,190.68 L 477.64,189.71 L 479.08,188.68 L 480.52,187.60 L 481.96,186.49 L 483.41,185.33 L 484.85,184.13 L 486.29,182.89 L 487.74,181.62 L 489.18,180.33 L 490.62,179.00 L 492.06,177.66 L 493.51,176.29 L 494.95,174.91 L 496.39,173.52 L 497.84,172.11 L 499.28,170.71 L 500.72,169.29 L 502.16,167.89 L 503.61,166.48 L 505.05,165.09 L 506.49,163.71 L 507.94,162.34 L 509.38,161.00 L 510.82,159.67 L 512.26,158.38 L 513.71,157.11 L 515.15,155.87 L 516.59,154.67 L 518.04,153.51 L 519.48,152.40 L 520.92,151.32 L 522.36,150.29 L 523.81,149.32 L 525.25,148.39 L 526.69,147.52 L 528.14,146.71 L 529.58,145.96 L 531.02,145.27 L 532.46,144.64 L 533.91,144.07 L 535.35,143.57 L 536.79,143.14 L 538.24,142.78 L 539.68,142.48 L 541.12,142.26 L 542.57,142.10 L 544.01,142.02 L 545.45,142.00 L 546.89,142.06 L 548.34,142.19 L 549.78,142.39 L 551.22,142.66 L 552.67,143.00 L 554.11,143.40 L 555.55,143.88 L 556.99,144.42 L 558.44,145.02 L 559.88,145.69 L 561.32,146.42 L 562.77,147.21 L 564.21,148.06 L 565.65,148.97 L 567.09,149.92 L 568.54,150.93 L 569.98,151.99 L 571.42,153.09 L 572.87,154.23 L 574.31,155.42 L 575.75,156.64 L 577.19,157.90 L 578.64,159.18 L 580.08,160.50 L 581.52,161.84 L 582.97,163.19 L 584.41,164.57 L 585.85,165.96 L 587.29,167.36 L 588.74,168.77 L 590.18,170.18 L 591.62,171.59 L 593.07,172.99 L 594.51,174.39 L 595.95,175.78 L 597.39,177.15 L 598.84,178.50 L 600.28,179.83 L 601.72,181.14 L 603.17,182.42 L 604.61,183.67 L 606.05,184.88 L 607.49,186.06 L 608.94,187.19 L 610.38,188.28 L 611.82,189.33 L 613.27,190.32 L 614.71,191.27 L 616.15,192.16 L 617.60,192.99 L 619.04,193.77 L 620.48,194.48 L 621.92,195.13 L 623.37,195.72 L 624.81,196.25 L 626.25,196.70 L 627.70,197.09 L 629.14,197.42 L 630.58,197.67 L 632.02,197.85 L 633.47,197.96 L 634.91,198.00 L 636.35,197.97 L 637.80,197.87 L 639.24,197.69 L 640.68,197.45 L 642.12,197.14 L 643.57,196.76 L 645.01,196.31 L 646.45,195.79 L 647.90,195.21 L 649.34,194.57 L 650.78,193.86 L 652.22,193.09 L 653.67,192.26 L 655.11,191.38 L 656.55,190.44 L 658.00,189.45 L 659.44,188.41 L 660.88,187.33 L 662.32,186.20 L 663.77,185.03 L 665.21,183.82 L 666.65,182.58 L 668.10,181.30 L 669.54,180.00 L 670.98,178.67 L 672.42,177.32 L 673.87,175.95 L 675.31,174.56 L 676.75,173.17 L 678.20,171.76 L 679.64,170.35 L 681.08,168.94 L 682.53,167.54 L 683.97,166.13 L 685.41,164.74 L 686.85,163.37 L 688.30,162.00 L 689.74,160.66 L 691.18,159.35 L 692.63,158.06 L 694.07,156.80 L 695.51,155.57 L 696.95,154.38 L 698.40,153.23 L 699.84,152.12 L 701.28,151.06 L 702.73,150.05 L 704.17,149.08 L 705.61,148.17 L 707.05,147.32 L 708.50,146.52 L 709.94,145.78 L 711.38,145.10 L 712.83,144.49 L 714.27,143.94 L 715.71,143.46 L 717.15,143.04 L 718.60,142.70 L 720.04,142.42 L 721.48,142.21 L 722.93,142.07 L 724.37,142.01 L 725.81,142.01 L 727.25,142.09 L 728.70,142.23 L 730.14,142.45 L 731.58,142.74 L 733.03,143.09 L 734.47,143.52 L 735.91,144.01 L 737.35,144.56 L 738.80,145.19 L 740.24,145.87 L 741.68,146.62 L 743.13,147.42 L 744.57,148.28 L 746.01,149.20 L 747.45,150.17 L 748.90,151.19 L 750.34,152.26 L 751.78,153.37 L 753.23,154.53 L 754.67,155.72 L 756.11,156.95 L 757.56,158.22 L 759.00,159.51 L 760.44,160.83 L 761.88,162.17 L 763.33,163.54 L 764.77,164.92 L 766.21,166.31 L 767.66,167.71 L 769.10,169.12 L 770.54,170.53 L 771.98,171.94 L 773.43,173.34 L 774.87,174.74 L 776.31,176.12 L 777.76,177.49 L 779.20,178.84 L 780.64,180.16 L 782.08,181.46 L 783.53,182.74 L 784.97,183.97 L 786.41,185.18 L 787.86,186.34 L 789.30,187.47 L 790.74,188.55 L 792.18,189.58 L 793.63,190.56 L 795.07,191.49 L 796.51,192.37 L 797.96,193.19 L 799.40,193.95 L 800.84,194.65 L 802.28,195.29 L 803.73,195.86 L 805.17,196.37 L 806.61,196.81 L 808.06,197.18 L 809.50,197.49 L 810.94,197.72 L 812.38,197.88 L 813.83,197.98 L 815.27,198.00 L 816.71,197.95 L 818.16,197.83 L 819.60,197.64 L 821.04,197.38 L 822.48,197.05 L 823.93,196.65 L 825.37,196.19 L 826.81,195.65 L 828.26,195.06 L 829.70,194.39 L 831.14,193.67 L 832.59,192.89 L 834.03,192.05 L 835.47,191.15 L 836.91,190.20 L 838.36,189.20 L 839.80,188.15 L 841.24,187.05 L 842.69,185.91 L 844.13,184.73 L 845.57,183.51 L 847.01,182.26 L 848.46,180.98 L 849.90,179.67 L 851.34,178.33 L 852.79,176.98 L 854.23,175.60 L 855.67,174.21 L 857.11,172.82 L 858.56,171.41 L 860.00,170.00"/>
  <text class="small" x="40" y="145">λ = 1 µm  →  k = 2π/λ ≈ 6.28 rad/µm</text>
  <line class="thin" x1="140" y1="250" x2="860" y2="250" opacity="0.35"/>
  <path class="wave3" d="M 140.00,250.00 L 141.44,249.29 L 142.89,248.59 L 144.33,247.89 L 145.77,247.18 L 147.21,246.48 L 148.66,245.79 L 150.10,245.09 L 151.54,244.40 L 152.99,243.71 L 154.43,243.02 L 155.87,242.34 L 157.31,241.67 L 158.76,241.00 L 160.20,240.33 L 161.64,239.67 L 163.09,239.02 L 164.53,238.38 L 165.97,237.74 L 167.41,237.11 L 168.86,236.49 L 170.30,235.87 L 171.74,235.27 L 173.19,234.67 L 174.63,234.09 L 176.07,233.51 L 177.52,232.95 L 178.96,232.40 L 180.40,231.85 L 181.84,231.32 L 183.29,230.80 L 184.73,230.29 L 186.17,229.80 L 187.62,229.32 L 189.06,228.85 L 190.50,228.39 L 191.94,227.95 L 193.39,227.52 L 194.83,227.11 L 196.27,226.71 L 197.72,226.33 L 199.16,225.96 L 200.60,225.61 L 202.04,225.27 L 203.49,224.94 L 204.93,224.64 L 206.37,224.35 L 207.82,224.07 L 209.26,223.81 L 210.70,223.57 L 212.14,223.35 L 213.59,223.14 L 215.03,222.95 L 216.47,222.78 L 217.92,222.62 L 219.36,222.48 L 220.80,222.36 L 222.24,222.26 L 223.69,222.17 L 225.13,222.10 L 226.57,222.05 L 228.02,222.02 L 229.46,222.00 L 230.90,222.00 L 232.34,222.02 L 233.79,222.06 L 235.23,222.12 L 236.67,222.19 L 238.12,222.28 L 239.56,222.39 L 241.00,222.51 L 242.44,222.66 L 243.89,222.82 L 245.33,223.00 L 246.77,223.19 L 248.22,223.40 L 249.66,223.63 L 251.10,223.88 L 252.55,224.14 L 253.99,224.42 L 255.43,224.71 L 256.87,225.02 L 258.32,225.35 L 259.76,225.69 L 261.20,226.05 L 262.65,226.42 L 264.09,226.81 L 265.53,227.21 L 266.97,227.63 L 268.42,228.06 L 269.86,228.51 L 271.30,228.97 L 272.75,229.44 L 274.19,229.92 L 275.63,230.42 L 277.07,230.93 L 278.52,231.45 L 279.96,231.99 L 281.40,232.53 L 282.85,233.09 L 284.29,233.66 L 285.73,234.23 L 287.17,234.82 L 288.62,235.42 L 290.06,236.03 L 291.50,236.64 L 292.95,237.26 L 294.39,237.90 L 295.83,238.54 L 297.27,239.18 L 298.72,239.84 L 300.16,240.50 L 301.60,241.16 L 303.05,241.84 L 304.49,242.51 L 305.93,243.19 L 307.37,243.88 L 308.82,244.57 L 310.26,245.26 L 311.70,245.96 L 313.15,246.66 L 314.59,247.36 L 316.03,248.06 L 317.47,248.77 L 318.92,249.47 L 320.36,250.18 L 321.80,250.88 L 323.25,251.59 L 324.69,252.29 L 326.13,252.99 L 327.58,253.69 L 329.02,254.39 L 330.46,255.08 L 331.90,255.78 L 333.35,256.46 L 334.79,257.15 L 336.23,257.83 L 337.68,258.50 L 339.12,259.17 L 340.56,259.83 L 342.00,260.49 L 343.45,261.14 L 344.89,261.78 L 346.33,262.42 L 347.78,263.05 L 349.22,263.67 L 350.66,264.28 L 352.10,264.88 L 353.55,265.47 L 354.99,266.06 L 356.43,266.63 L 357.88,267.19 L 359.32,267.74 L 360.76,268.28 L 362.20,268.81 L 363.65,269.33 L 365.09,269.83 L 366.53,270.32 L 367.98,270.80 L 369.42,271.27 L 370.86,271.72 L 372.30,272.16 L 373.75,272.58 L 375.19,272.99 L 376.63,273.38 L 378.08,273.77 L 379.52,274.13 L 380.96,274.48 L 382.40,274.81 L 383.85,275.13 L 385.29,275.44 L 386.73,275.72 L 388.18,275.99 L 389.62,276.25 L 391.06,276.48 L 392.51,276.70 L 393.95,276.91 L 395.39,277.09 L 396.83,277.26 L 398.28,277.42 L 399.72,277.55 L 401.16,277.67 L 402.61,277.77 L 404.05,277.85 L 405.49,277.91 L 406.93,277.96 L 408.38,277.99 L 409.82,278.00 L 411.26,277.99 L 412.71,277.97 L 414.15,277.93 L 415.59,277.87 L 417.03,277.79 L 418.48,277.69 L 419.92,277.58 L 421.36,277.45 L 422.81,277.30 L 424.25,277.14 L 425.69,276.96 L 427.13,276.76 L 428.58,276.54 L 430.02,276.31 L 431.46,276.06 L 432.91,275.79 L 434.35,275.51 L 435.79,275.21 L 437.23,274.90 L 438.68,274.57 L 440.12,274.22 L 441.56,273.86 L 443.01,273.48 L 444.45,273.09 L 445.89,272.68 L 447.33,272.26 L 448.78,271.83 L 450.22,271.38 L 451.66,270.92 L 453.11,270.44 L 454.55,269.95 L 455.99,269.45 L 457.43,268.94 L 458.88,268.41 L 460.32,267.88 L 461.76,267.33 L 463.21,266.77 L 464.65,266.20 L 466.09,265.62 L 467.54,265.03 L 468.98,264.43 L 470.42,263.82 L 471.86,263.20 L 473.31,262.58 L 474.75,261.94 L 476.19,261.30 L 477.64,260.65 L 479.08,260.00 L 480.52,259.34 L 481.96,258.67 L 483.41,258.00 L 484.85,257.32 L 486.29,256.63 L 487.74,255.95 L 489.18,255.26 L 490.62,254.56 L 492.06,253.87 L 493.51,253.17 L 494.95,252.46 L 496.39,251.76 L 497.84,251.06 L 499.28,250.35 L 500.72,249.65 L 502.16,248.94 L 503.61,248.24 L 505.05,247.54 L 506.49,246.83 L 507.94,246.13 L 509.38,245.44 L 510.82,244.74 L 512.26,244.05 L 513.71,243.37 L 515.15,242.68 L 516.59,242.00 L 518.04,241.33 L 519.48,240.66 L 520.92,240.00 L 522.36,239.35 L 523.81,238.70 L 525.25,238.06 L 526.69,237.42 L 528.14,236.80 L 529.58,236.18 L 531.02,235.57 L 532.46,234.97 L 533.91,234.38 L 535.35,233.80 L 536.79,233.23 L 538.24,232.67 L 539.68,232.12 L 541.12,231.59 L 542.57,231.06 L 544.01,230.55 L 545.45,230.05 L 546.89,229.56 L 548.34,229.08 L 549.78,228.62 L 551.22,228.17 L 552.67,227.74 L 554.11,227.32 L 555.55,226.91 L 556.99,226.52 L 558.44,226.14 L 559.88,225.78 L 561.32,225.43 L 562.77,225.10 L 564.21,224.79 L 565.65,224.49 L 567.09,224.21 L 568.54,223.94 L 569.98,223.69 L 571.42,223.46 L 572.87,223.24 L 574.31,223.04 L 575.75,222.86 L 577.19,222.70 L 578.64,222.55 L 580.08,222.42 L 581.52,222.31 L 582.97,222.21 L 584.41,222.13 L 585.85,222.07 L 587.29,222.03 L 588.74,222.01 L 590.18,222.00 L 591.62,222.01 L 593.07,222.04 L 594.51,222.09 L 595.95,222.15 L 597.39,222.23 L 598.84,222.33 L 600.28,222.45 L 601.72,222.58 L 603.17,222.74 L 604.61,222.91 L 606.05,223.09 L 607.49,223.30 L 608.94,223.52 L 610.38,223.75 L 611.82,224.01 L 613.27,224.28 L 614.71,224.56 L 616.15,224.87 L 617.60,225.19 L 619.04,225.52 L 620.48,225.87 L 621.92,226.23 L 623.37,226.62 L 624.81,227.01 L 626.25,227.42 L 627.70,227.84 L 629.14,228.28 L 630.58,228.73 L 632.02,229.20 L 633.47,229.68 L 634.91,230.17 L 636.35,230.67 L 637.80,231.19 L 639.24,231.72 L 640.68,232.26 L 642.12,232.81 L 643.57,233.37 L 645.01,233.94 L 646.45,234.53 L 647.90,235.12 L 649.34,235.72 L 650.78,236.33 L 652.22,236.95 L 653.67,237.58 L 655.11,238.22 L 656.55,238.86 L 658.00,239.51 L 659.44,240.17 L 660.88,240.83 L 662.32,241.50 L 663.77,242.17 L 665.21,242.85 L 666.65,243.54 L 668.10,244.22 L 669.54,244.92 L 670.98,245.61 L 672.42,246.31 L 673.87,247.01 L 675.31,247.71 L 676.75,248.41 L 678.20,249.12 L 679.64,249.82 L 681.08,250.53 L 682.53,251.23 L 683.97,251.94 L 685.41,252.64 L 686.85,253.34 L 688.30,254.04 L 689.74,254.74 L 691.18,255.43 L 692.63,256.12 L 694.07,256.81 L 695.51,257.49 L 696.95,258.16 L 698.40,258.84 L 699.84,259.50 L 701.28,260.16 L 702.73,260.82 L 704.17,261.46 L 705.61,262.10 L 707.05,262.74 L 708.50,263.36 L 709.94,263.97 L 711.38,264.58 L 712.83,265.18 L 714.27,265.77 L 715.71,266.34 L 717.15,266.91 L 718.60,267.47 L 720.04,268.01 L 721.48,268.55 L 722.93,269.07 L 724.37,269.58 L 725.81,270.08 L 727.25,270.56 L 728.70,271.03 L 730.14,271.49 L 731.58,271.94 L 733.03,272.37 L 734.47,272.79 L 735.91,273.19 L 737.35,273.58 L 738.80,273.95 L 740.24,274.31 L 741.68,274.65 L 743.13,274.98 L 744.57,275.29 L 746.01,275.58 L 747.45,275.86 L 748.90,276.12 L 750.34,276.37 L 751.78,276.60 L 753.23,276.81 L 754.67,277.00 L 756.11,277.18 L 757.56,277.34 L 759.00,277.49 L 760.44,277.61 L 761.88,277.72 L 763.33,277.81 L 764.77,277.88 L 766.21,277.94 L 767.66,277.98 L 769.10,278.00 L 770.54,278.00 L 771.98,277.98 L 773.43,277.95 L 774.87,277.90 L 776.31,277.83 L 777.76,277.74 L 779.20,277.64 L 780.64,277.52 L 782.08,277.38 L 783.53,277.22 L 784.97,277.05 L 786.41,276.86 L 787.86,276.65 L 789.30,276.43 L 790.74,276.19 L 792.18,275.93 L 793.63,275.65 L 795.07,275.36 L 796.51,275.06 L 797.96,274.73 L 799.40,274.39 L 800.84,274.04 L 802.28,273.67 L 803.73,273.29 L 805.17,272.89 L 806.61,272.48 L 808.06,272.05 L 809.50,271.61 L 810.94,271.15 L 812.38,270.68 L 813.83,270.20 L 815.27,269.71 L 816.71,269.20 L 818.16,268.68 L 819.60,268.15 L 821.04,267.60 L 822.48,267.05 L 823.93,266.49 L 825.37,265.91 L 826.81,265.33 L 828.26,264.73 L 829.70,264.13 L 831.14,263.51 L 832.59,262.89 L 834.03,262.26 L 835.47,261.62 L 836.91,260.98 L 838.36,260.33 L 839.80,259.67 L 841.24,259.00 L 842.69,258.33 L 844.13,257.66 L 845.57,256.98 L 847.01,256.29 L 848.46,255.60 L 849.90,254.91 L 851.34,254.21 L 852.79,253.52 L 854.23,252.82 L 855.67,252.11 L 857.11,251.41 L 858.56,250.71 L 860.00,250.00"/>
  <text class="small" x="40" y="225">λ = 2 µm  →  k = 2π/λ ≈ 3.14 rad/µm</text>

  <text class="small" x="40" y="320">Same x-range for all three rows: shorter λ fits more cycles → larger k (spatial frequency).</text>
</svg>