<svg xmlns="http://www.w3.org/2000/svg" width="900" height="240" viewBox="0 0 900 240">
  <title>Step 1: wavelength λ (spatial period)</title>
  <defs>
    <style>
      .axis { stroke: #000; stroke-width: 2; fill: none; }
      .thin { stroke: #000; stroke-width: 1.2; fill: none; }
      .wave { stroke: #000; stroke-width: 2.6; fill: none; }
      .dash { stroke-dasharray: 6 4; }
      .label { font-family: sans-serif; font-size: 16px; fill: #000; }
      .small { font-family: sans-serif; font-size: 13px; fill: #000; }
      .eq { font-family: sans-serif; font-size: 15px; fill: #000; }
    </style>
  </defs>

  <text class="label" x="40" y="28">Step 1: wavelength λ is the spatial period of a monochromatic wave</text>

  <!-- Axes -->
  <line class="axis" x1="80" y1="130" x2="840" y2="130"/>
  <line class="axis" x1="80" y1="200" x2="80" y2="60"/>
  <polygon points="80,60 74,72 86,72" fill="#000"/>
  <text class="small" x="18" y="68">E [a.u.]</text>
  <polygon points="840,130 828,124 828,136" fill="#000"/>
  <text class="small" x="850" y="135">x (m)</text>

  <line class="thin dash" x1="80" y1="130" x2="840" y2="130"/>
  <text class="small" x="86" y="123">0</text>

  <!-- Wave -->
  <path class="wave" d="M 100.00 130.00 L 103.01 126.45 L 106.03 122.93 L 109.04 119.45 L 112.05 116.04 L 115.06 112.71 L 118.08 109.49 L 121.09 106.40 L 124.10 103.45 L 127.11 100.67 L 130.13 98.08 L 133.14 95.68 L 136.15 93.49 L 139.16 91.53 L 142.18 89.81 L 145.19 88.34 L 148.20 87.13 L 151.21 86.19 L 154.23 85.51 L 157.24 85.12 L 160.25 85.00 L 163.26 85.16 L 166.28 85.61 L 169.29 86.32 L 172.30 87.31 L 175.31 88.57 L 178.33 90.08 L 181.34 91.84 L 184.35 93.84 L 187.36 96.06 L 190.38 98.50 L 193.39 101.12 L 196.40 103.93 L 199.41 106.91 L 202.43 110.02 L 205.44 113.26 L 208.45 116.60 L 211.46 120.03 L 214.48 123.52 L 217.49 127.04 L 220.50 130.59 L 223.51 134.13 L 226.53 137.65 L 229.54 141.12 L 232.55 144.52 L 235.56 147.83 L 238.58 151.03 L 241.59 154.10 L 244.60 157.02 L 247.62 159.77 L 250.63 162.34 L 253.64 164.70 L 256.65 166.85 L 259.67 168.77 L 262.68 170.45 L 265.69 171.88 L 268.70 173.05 L 271.72 173.95 L 274.73 174.57 L 277.74 174.92 L 280.75 174.99 L 283.77 174.78 L 286.78 174.29 L 289.79 173.53 L 292.80 172.50 L 295.82 171.20 L 298.83 169.64 L 301.84 167.84 L 304.85 165.81 L 307.87 163.55 L 310.88 161.08 L 313.89 158.42 L 316.90 155.58 L 319.92 152.59 L 322.93 149.45 L 325.94 146.19 L 328.95 142.83 L 331.97 139.39 L 334.98 135.90 L 337.99 132.36 L 341.00 128.82 L 344.02 125.28 L 347.03 121.77 L 350.04 118.31 L 353.05 114.92 L 356.07 111.62 L 359.08 108.45 L 362.09 105.40 L 365.10 102.51 L 368.12 99.79 L 371.13 97.25 L 374.14 94.92 L 377.15 92.81 L 380.17 90.93 L 383.18 89.29 L 386.19 87.91 L 389.21 86.79 L 392.22 85.93 L 395.23 85.35 L 398.24 85.05 L 401.26 85.02 L 404.27 85.28 L 407.28 85.81 L 410.29 86.62 L 413.31 87.70 L 416.32 89.04 L 419.33 90.64 L 422.34 92.48 L 425.36 94.56 L 428.37 96.85 L 431.38 99.35 L 434.39 102.04 L 437.41 104.91 L 440.42 107.93 L 443.43 111.09 L 446.44 114.36 L 449.46 117.74 L 452.47 121.18 L 455.48 124.69 L 458.49 128.23 L 461.51 131.77 L 464.52 135.31 L 467.53 138.82 L 470.54 142.26 L 473.56 145.64 L 476.57 148.91 L 479.58 152.07 L 482.59 155.09 L 485.61 157.96 L 488.62 160.65 L 491.63 163.15 L 494.64 165.44 L 497.66 167.52 L 500.67 169.36 L 503.68 170.96 L 506.69 172.30 L 509.71 173.38 L 512.72 174.19 L 515.73 174.72 L 518.74 174.98 L 521.76 174.95 L 524.77 174.65 L 527.78 174.07 L 530.79 173.21 L 533.81 172.09 L 536.82 170.71 L 539.83 169.07 L 542.85 167.19 L 545.86 165.08 L 548.87 162.75 L 551.88 160.21 L 554.90 157.49 L 557.91 154.60 L 560.92 151.55 L 563.93 148.38 L 566.95 145.08 L 569.96 141.69 L 572.97 138.23 L 575.98 134.72 L 579.00 131.18 L 582.01 127.64 L 585.02 124.10 L 588.03 120.61 L 591.05 117.17 L 594.06 113.81 L 597.07 110.55 L 600.08 107.41 L 603.10 104.42 L 606.11 101.58 L 609.12 98.92 L 612.13 96.45 L 615.15 94.19 L 618.16 92.16 L 621.17 90.36 L 624.18 88.80 L 627.20 87.50 L 630.21 86.47 L 633.22 85.71 L 636.23 85.22 L 639.25 85.01 L 642.26 85.08 L 645.27 85.43 L 648.28 86.05 L 651.30 86.95 L 654.31 88.12 L 657.32 89.55 L 660.33 91.23 L 663.35 93.15 L 666.36 95.30 L 669.37 97.66 L 672.38 100.23 L 675.40 102.98 L 678.41 105.90 L 681.42 108.97 L 684.44 112.17 L 687.45 115.48 L 690.46 118.88 L 693.47 122.35 L 696.49 125.87 L 699.50 129.41 L 702.51 132.96 L 705.52 136.48 L 708.54 139.97 L 711.55 143.40 L 714.56 146.74 L 717.57 149.98 L 720.59 153.09 L 723.60 156.07 L 726.61 158.88 L 729.62 161.50 L 732.64 163.94 L 735.65 166.16 L 738.66 168.16 L 741.67 169.92 L 744.69 171.43 L 747.70 172.69 L 750.71 173.68 L 753.72 174.39 L 756.74 174.84 L 759.75 175.00 L 762.76 174.88 L 765.77 174.49 L 768.79 173.81 L 771.80 172.87 L 774.81 171.66 L 777.82 170.19 L 780.84 168.47 L 783.85 166.51 L 786.86 164.32 L 789.87 161.92 L 792.89 159.33 L 795.90 156.55 L 798.91 153.60 L 801.92 150.51 L 804.94 147.29 L 807.95 143.96 L 810.96 140.55 L 813.97 137.07 L 816.99 133.55 L 820.00 130.00"/>

  <!-- One wavelength marker -->
  <line class="thin" x1="220" y1="58" x2="220" y2="78"/>
  <line class="thin" x1="460" y1="58" x2="460" y2="78"/>
  <line class="axis" x1="220" y1="58" x2="460" y2="58"/>
  <polygon points="460,58 450,53 450,63" fill="#000"/>
  <polygon points="220,58 230,53 230,63" fill="#000" transform="rotate(180 220 58)"/>
  <text class="small" x="336" y="50">λ</text>

  <!-- Caption equation -->
  <text class="eq" x="120" y="210">E(x) = A cos(2π·x/λ + φ₀)</text>
  <text class="small" x="120" y="228">Same x-advance of λ → same phase (one full cycle)</text>
</svg>
