<svg xmlns="http://www.w3.org/2000/svg" width="900" height="320" viewBox="0 0 900 320">
  <title>Modal dispersion: short pulse spreads by Δτ ≈ ΔOPL/c</title>

  <defs>
    <style>
      .axis { stroke: #000; stroke-width: 2; fill: none; }
      .thin { stroke: #000; stroke-width: 1.2; fill: none; }
      .pulse { stroke: #000; stroke-width: 2.6; fill: none; }
      .dash { stroke-dasharray: 6 4; }
      .label { font-family: sans-serif; font-size: 16px; fill: #000; }
      .small { font-family: sans-serif; font-size: 13px; fill: #000; }
      .eq { font-family: sans-serif; font-size: 15px; fill: #000; }
    </style>
  </defs>

  <text class="label" x="40" y="26">Modal dispersion (impulse response): different modes arrive at different times</text>
  <rect class="thin" x="40" y="44" width="420" height="240"/>
  <rect class="thin" x="480" y="44" width="380" height="240"/>
  <text class="small" x="54" y="68">Input (launched pulse)</text>
  <text class="small" x="494" y="68">Output after MMF (step-index)</text>
  <line class="axis" x1="70" y1="240" x2="430" y2="240"/>
  <polygon points="430,240 418,234 418,246" fill="#000"/>
  <text class="small" x="440" y="245">t</text>
  <line class="thin dash" x1="70" y1="240" x2="430" y2="240"/>
  <path class="pulse" d="M 70.00 240.00 L 71.20 240.00 L 72.41 240.00 L 73.61 240.00 L 74.82 240.00 L 76.02 240.00 L 77.22 240.00 L 78.43 240.00 L 79.63 240.00 L 80.84 240.00 L 82.04 240.00 L 83.24 240.00 L 84.45 240.00 L 85.65 240.00 L 86.86 240.00 L 88.06 240.00 L 89.26 240.00 L 90.47 240.00 L 91.67 240.00 L 92.88 240.00 L 94.08 240.00 L 95.28 240.00 L 96.49 239.99 L 97.69 239.99 L 98.90 239.98 L 100.10 239.97 L 101.30 239.95 L 102.51 239.92 L 103.71 239.88 L 104.92 239.81 L 106.12 239.71 L 107.32 239.57 L 108.53 239.36 L 109.73 239.08 L 110.94 238.68 L 112.14 238.14 L 113.34 237.42 L 114.55 236.47 L 115.75 235.24 L 116.96 233.67 L 118.16 231.71 L 119.36 229.30 L 120.57 226.38 L 121.77 222.91 L 122.98 218.87 L 124.18 214.25 L 125.38 209.07 L 126.59 203.38 L 127.79 197.28 L 129.00 190.87 L 130.20 184.32 L 131.40 177.80 L 132.61 171.51 L 133.81 165.68 L 135.02 160.51 L 136.22 156.20 L 137.42 152.94 L 138.63 150.84 L 139.83 150.01 L 141.04 150.48 L 142.24 152.23 L 143.44 155.18 L 144.65 159.22 L 145.85 164.17 L 147.06 169.84 L 148.26 176.02 L 149.46 182.49 L 150.67 189.06 L 151.87 195.52 L 153.08 201.73 L 154.28 207.54 L 155.48 212.86 L 156.69 217.64 L 157.89 221.84 L 159.10 225.47 L 160.30 228.54 L 161.51 231.09 L 162.71 233.17 L 163.91 234.84 L 165.12 236.16 L 166.32 237.18 L 167.53 237.96 L 168.73 238.55 L 169.93 238.98 L 171.14 239.29 L 172.34 239.52 L 173.55 239.68 L 174.75 239.79 L 175.95 239.86 L 177.16 239.91 L 178.36 239.94 L 179.57 239.96 L 180.77 239.98 L 181.97 239.99 L 183.18 239.99 L 184.38 240.00 L 185.59 240.00 L 186.79 240.00 L 187.99 240.00 L 189.20 240.00 L 190.40 240.00 L 191.61 240.00 L 192.81 240.00 L 194.01 240.00 L 195.22 240.00 L 196.42 240.00 L 197.63 240.00 L 198.83 240.00 L 200.03 240.00 L 201.24 240.00 L 202.44 240.00 L 203.65 240.00 L 204.85 240.00 L 206.05 240.00 L 207.26 240.00 L 208.46 240.00 L 209.67 240.00 L 210.87 240.00 L 212.07 240.00 L 213.28 240.00 L 214.48 240.00 L 215.69 240.00 L 216.89 240.00 L 218.09 240.00 L 219.30 240.00 L 220.50 240.00 L 221.71 240.00 L 222.91 240.00 L 224.11 240.00 L 225.32 240.00 L 226.52 240.00 L 227.73 240.00 L 228.93 240.00 L 230.13 240.00 L 231.34 240.00 L 232.54 240.00 L 233.75 240.00 L 234.95 240.00 L 236.15 240.00 L 237.36 240.00 L 238.56 240.00 L 239.77 240.00 L 240.97 240.00 L 242.17 240.00 L 243.38 240.00 L 244.58 240.00 L 245.79 240.00 L 246.99 240.00 L 248.19 240.00 L 249.40 240.00 L 250.60 240.00 L 251.81 240.00 L 253.01 240.00 L 254.21 240.00 L 255.42 240.00 L 256.62 240.00 L 257.83 240.00 L 259.03 240.00 L 260.23 240.00 L 261.44 240.00 L 262.64 240.00 L 263.85 240.00 L 265.05 240.00 L 266.25 240.00 L 267.46 240.00 L 268.66 240.00 L 269.87 240.00 L 271.07 240.00 L 272.27 240.00 L 273.48 240.00 L 274.68 240.00 L 275.89 240.00 L 277.09 240.00 L 278.29 240.00 L 279.50 240.00 L 280.70 240.00 L 281.91 240.00 L 283.11 240.00 L 284.31 240.00 L 285.52 240.00 L 286.72 240.00 L 287.93 240.00 L 289.13 240.00 L 290.33 240.00 L 291.54 240.00 L 292.74 240.00 L 293.95 240.00 L 295.15 240.00 L 296.35 240.00 L 297.56 240.00 L 298.76 240.00 L 299.97 240.00 L 301.17 240.00 L 302.37 240.00 L 303.58 240.00 L 304.78 240.00 L 305.99 240.00 L 307.19 240.00 L 308.39 240.00 L 309.60 240.00 L 310.80 240.00 L 312.01 240.00 L 313.21 240.00 L 314.41 240.00 L 315.62 240.00 L 316.82 240.00 L 318.03 240.00 L 319.23 240.00 L 320.43 240.00 L 321.64 240.00 L 322.84 240.00 L 324.05 240.00 L 325.25 240.00 L 326.45 240.00 L 327.66 240.00 L 328.86 240.00 L 330.07 240.00 L 331.27 240.00 L 332.47 240.00 L 333.68 240.00 L 334.88 240.00 L 336.09 240.00 L 337.29 240.00 L 338.49 240.00 L 339.70 240.00 L 340.90 240.00 L 342.11 240.00 L 343.31 240.00 L 344.52 240.00 L 345.72 240.00 L 346.92 240.00 L 348.13 240.00 L 349.33 240.00 L 350.54 240.00 L 351.74 240.00 L 352.94 240.00 L 354.15 240.00 L 355.35 240.00 L 356.56 240.00 L 357.76 240.00 L 358.96 240.00 L 360.17 240.00 L 361.37 240.00 L 362.58 240.00 L 363.78 240.00 L 364.98 240.00 L 366.19 240.00 L 367.39 240.00 L 368.60 240.00 L 369.80 240.00 L 371.00 240.00 L 372.21 240.00 L 373.41 240.00 L 374.62 240.00 L 375.82 240.00 L 377.02 240.00 L 378.23 240.00 L 379.43 240.00 L 380.64 240.00 L 381.84 240.00 L 383.04 240.00 L 384.25 240.00 L 385.45 240.00 L 386.66 240.00 L 387.86 240.00 L 389.06 240.00 L 390.27 240.00 L 391.47 240.00 L 392.68 240.00 L 393.88 240.00 L 395.08 240.00 L 396.29 240.00 L 397.49 240.00 L 398.70 240.00 L 399.90 240.00 L 401.10 240.00 L 402.31 240.00 L 403.51 240.00 L 404.72 240.00 L 405.92 240.00 L 407.12 240.00 L 408.33 240.00 L 409.53 240.00 L 410.74 240.00 L 411.94 240.00 L 413.14 240.00 L 414.35 240.00 L 415.55 240.00 L 416.76 240.00 L 417.96 240.00 L 419.16 240.00 L 420.37 240.00 L 421.57 240.00 L 422.78 240.00 L 423.98 240.00 L 425.18 240.00 L 426.39 240.00 L 427.59 240.00 L 428.80 240.00 L 430.00 240.00"/>
  <text class="small" x="120" y="130">~δ(t)</text>
  <line class="axis" x1="510" y1="240" x2="850" y2="240"/>
  <polygon points="850,240 838,234 838,246" fill="#000"/>
  <text class="small" x="860" y="245">t</text>
  <line class="thin dash" x1="510" y1="240" x2="850" y2="240"/>
  <line class="pulse" x1="550.0" y1="240" x2="550.0" y2="180"/>
  <line class="pulse" x1="582.5" y1="240" x2="582.5" y2="200"/>
  <line class="pulse" x1="615.0" y1="240" x2="615.0" y2="160"/>
  <line class="pulse" x1="647.5" y1="240" x2="647.5" y2="205"/>
  <line class="pulse" x1="680.0" y1="240" x2="680.0" y2="170"/>
  <line class="pulse" x1="712.5" y1="240" x2="712.5" y2="195"/>
  <line class="pulse" x1="745.0" y1="240" x2="745.0" y2="185"/>
  <line class="pulse" x1="777.5" y1="240" x2="777.5" y2="210"/>
  <line class="pulse" x1="810.0" y1="240" x2="810.0" y2="190"/>
  <path class="thin" d="M 550.00 202.40 L 552.18 201.35 L 554.37 200.27 L 556.55 199.18 L 558.74 198.06 L 560.92 196.92 L 563.11 195.77 L 565.29 194.60 L 567.48 193.41 L 569.66 192.20 L 571.85 190.98 L 574.03 189.75 L 576.22 188.50 L 578.40 187.24 L 580.59 185.97 L 582.77 184.70 L 584.96 183.41 L 587.14 182.12 L 589.33 180.83 L 591.51 179.53 L 593.70 178.23 L 595.88 176.93 L 598.07 175.63 L 600.25 174.34 L 602.44 173.05 L 604.62 171.77 L 606.81 170.50 L 608.99 169.24 L 611.18 167.99 L 613.36 166.75 L 615.55 165.54 L 617.73 164.34 L 619.92 163.16 L 622.10 162.00 L 624.29 160.87 L 626.47 159.76 L 628.66 158.68 L 630.84 157.63 L 633.03 156.61 L 635.21 155.63 L 637.39 154.67 L 639.58 153.76 L 641.76 152.88 L 643.95 152.04 L 646.13 151.25 L 648.32 150.49 L 650.50 149.78 L 652.69 149.12 L 654.87 148.50 L 657.06 147.93 L 659.24 147.40 L 661.43 146.93 L 663.61 146.51 L 665.80 146.13 L 667.98 145.81 L 670.17 145.55 L 672.35 145.33 L 674.54 145.17 L 676.72 145.06 L 678.91 145.01 L 681.09 145.01 L 683.28 145.06 L 685.46 145.17 L 687.65 145.33 L 689.83 145.55 L 692.02 145.81 L 694.20 146.13 L 696.39 146.51 L 698.57 146.93 L 700.76 147.40 L 702.94 147.93 L 705.13 148.50 L 707.31 149.12 L 709.50 149.78 L 711.68 150.49 L 713.87 151.25 L 716.05 152.04 L 718.24 152.88 L 720.42 153.76 L 722.61 154.67 L 724.79 155.63 L 726.97 156.61 L 729.16 157.63 L 731.34 158.68 L 733.53 159.76 L 735.71 160.87 L 737.90 162.00 L 740.08 163.16 L 742.27 164.34 L 744.45 165.54 L 746.64 166.75 L 748.82 167.99 L 751.01 169.24 L 753.19 170.50 L 755.38 171.77 L 757.56 173.05 L 759.75 174.34 L 761.93 175.63 L 764.12 176.93 L 766.30 178.23 L 768.49 179.53 L 770.67 180.83 L 772.86 182.12 L 775.04 183.41 L 777.23 184.70 L 779.41 185.97 L 781.60 187.24 L 783.78 188.50 L 785.97 189.75 L 788.15 190.98 L 790.34 192.20 L 792.52 193.41 L 794.71 194.60 L 796.89 195.77 L 799.08 196.92 L 801.26 198.06 L 803.45 199.18 L 805.63 200.27 L 807.82 201.35 L 810.00 202.40"/>
  <line class="axis" x1="550" y1="105" x2="810" y2="105"/>
  <polygon points="810,105 800,100 800,110" fill="#000"/>
  <polygon points="550,105 560,100 560,110" fill="#000" transform="rotate(180 550 105)"/>
  <text class="small" x="665.0" y="95">Δτ</text>
  <text class="eq" x="500" y="285">Δτ ≈ ΔOPL / c   (step-index upper bound)</text>
</svg>
