<?xml version="1.0" encoding="utf-8" standalone="no"?>
<!DOCTYPE svg PUBLIC "-//W3C//DTD SVG 1.1//EN"
  "http://www.w3.org/Graphics/SVG/1.1/DTD/svg11.dtd">
<svg xmlns:xlink="http://www.w3.org/1999/xlink" width="900" height="345.6" viewBox="0 0 900 345.6" xmlns="http://www.w3.org/2000/svg" version="1.1">
 
 <defs>
  <style type="text/css">*{stroke-linejoin: round; stroke-linecap: butt}</style>
 </defs>
 <g id="figure_1">
  <g id="patch_1">
   <path d="M 0 345.6 
L 900 345.6 
L 900 0 
L 0 0 
z
" style="fill: #ffffff"/>
  </g>
  <g id="axes_1">
   <g id="patch_2">
    <path d="M 370.562416 297.216 
L 601.437584 297.216 
L 601.437584 34.56 
L 370.562416 34.56 
z
" style="fill: #ffffff"/>
   </g>
   <g id="matplotlib.axis_1">
    <g id="xtick_1">
     <g id="line2d_1">
      <path d="M 393.734839 297.216 
L 393.734839 34.56 
" clip-path="url(#pc19c0e1920)" style="fill: none; stroke: #b0b0b0; stroke-opacity: 0.25; stroke-width: 0.8; stroke-linecap: square"/>
     </g>
     <g id="line2d_2">
      <defs>
       <path id="m9e104356aa" d="M 0 0 
L 0 3.5 
" style="stroke: #000000; stroke-width: 2"/>
      </defs>
      <g>
       <use xlink:href="#m9e104356aa" x="393.734839" y="297.216" style="stroke: #000000; stroke-width: 2"/>
      </g>
     </g>
     <g id="text_1">
      <!-- −0.2 -->
      <g transform="translate(381.593432 311.814437) scale(0.1 -0.1)">
       <defs>
        <path id="DejaVuSans-2212" d="M 678 2272 
L 4684 2272 
L 4684 1741 
L 678 1741 
L 678 2272 
z
" transform="scale(0.015625)"/>
        <path id="DejaVuSans-30" d="M 2034 4250 
Q 1547 4250 1301 3770 
Q 1056 3291 1056 2328 
Q 1056 1369 1301 889 
Q 1547 409 2034 409 
Q 2525 409 2770 889 
Q 3016 1369 3016 2328 
Q 3016 3291 2770 3770 
Q 2525 4250 2034 4250 
z
M 2034 4750 
Q 2819 4750 3233 4129 
Q 3647 3509 3647 2328 
Q 3647 1150 3233 529 
Q 2819 -91 2034 -91 
Q 1250 -91 836 529 
Q 422 1150 422 2328 
Q 422 3509 836 4129 
Q 1250 4750 2034 4750 
z
" transform="scale(0.015625)"/>
        <path id="DejaVuSans-2e" d="M 684 794 
L 1344 794 
L 1344 0 
L 684 0 
L 684 794 
z
" transform="scale(0.015625)"/>
        <path id="DejaVuSans-32" d="M 1228 531 
L 3431 531 
L 3431 0 
L 469 0 
L 469 531 
Q 828 903 1448 1529 
Q 2069 2156 2228 2338 
Q 2531 2678 2651 2914 
Q 2772 3150 2772 3378 
Q 2772 3750 2511 3984 
Q 2250 4219 1831 4219 
Q 1534 4219 1204 4116 
Q 875 4013 500 3803 
L 500 4441 
Q 881 4594 1212 4672 
Q 1544 4750 1819 4750 
Q 2544 4750 2975 4387 
Q 3406 4025 3406 3419 
Q 3406 3131 3298 2873 
Q 3191 2616 2906 2266 
Q 2828 2175 2409 1742 
Q 1991 1309 1228 531 
z
" transform="scale(0.015625)"/>
       </defs>
       <use xlink:href="#DejaVuSans-2212"/>
       <use xlink:href="#DejaVuSans-30" x="83.789062"/>
       <use xlink:href="#DejaVuSans-2e" x="147.412109"/>
       <use xlink:href="#DejaVuSans-32" x="179.199219"/>
      </g>
     </g>
    </g>
    <g id="xtick_2">
     <g id="line2d_3">
      <path d="M 437.389245 297.216 
L 437.389245 34.56 
" clip-path="url(#pc19c0e1920)" style="fill: none; stroke: #b0b0b0; stroke-opacity: 0.25; stroke-width: 0.8; stroke-linecap: square"/>
     </g>
     <g id="line2d_4">
      <g>
       <use xlink:href="#m9e104356aa" x="437.389245" y="297.216" style="stroke: #000000; stroke-width: 2"/>
      </g>
     </g>
     <g id="text_2">
      <!-- 0.0 -->
      <g transform="translate(429.437682 311.814437) scale(0.1 -0.1)">
       <use xlink:href="#DejaVuSans-30"/>
       <use xlink:href="#DejaVuSans-2e" x="63.623047"/>
       <use xlink:href="#DejaVuSans-30" x="95.410156"/>
      </g>
     </g>
    </g>
    <g id="xtick_3">
     <g id="line2d_5">
      <path d="M 481.043651 297.216 
L 481.043651 34.56 
" clip-path="url(#pc19c0e1920)" style="fill: none; stroke: #b0b0b0; stroke-opacity: 0.25; stroke-width: 0.8; stroke-linecap: square"/>
     </g>
     <g id="line2d_6">
      <g>
       <use xlink:href="#m9e104356aa" x="481.043651" y="297.216" style="stroke: #000000; stroke-width: 2"/>
      </g>
     </g>
     <g id="text_3">
      <!-- 0.2 -->
      <g transform="translate(473.092089 311.814437) scale(0.1 -0.1)">
       <use xlink:href="#DejaVuSans-30"/>
       <use xlink:href="#DejaVuSans-2e" x="63.623047"/>
       <use xlink:href="#DejaVuSans-32" x="95.410156"/>
      </g>
     </g>
    </g>
    <g id="xtick_4">
     <g id="line2d_7">
      <path d="M 524.698058 297.216 
L 524.698058 34.56 
" clip-path="url(#pc19c0e1920)" style="fill: none; stroke: #b0b0b0; stroke-opacity: 0.25; stroke-width: 0.8; stroke-linecap: square"/>
     </g>
     <g id="line2d_8">
      <g>
       <use xlink:href="#m9e104356aa" x="524.698058" y="297.216" style="stroke: #000000; stroke-width: 2"/>
      </g>
     </g>
     <g id="text_4">
      <!-- 0.4 -->
      <g transform="translate(516.746495 311.814437) scale(0.1 -0.1)">
       <defs>
        <path id="DejaVuSans-34" d="M 2419 4116 
L 825 1625 
L 2419 1625 
L 2419 4116 
z
M 2253 4666 
L 3047 4666 
L 3047 1625 
L 3713 1625 
L 3713 1100 
L 3047 1100 
L 3047 0 
L 2419 0 
L 2419 1100 
L 313 1100 
L 313 1709 
L 2253 4666 
z
" transform="scale(0.015625)"/>
       </defs>
       <use xlink:href="#DejaVuSans-30"/>
       <use xlink:href="#DejaVuSans-2e" x="63.623047"/>
       <use xlink:href="#DejaVuSans-34" x="95.410156"/>
      </g>
     </g>
    </g>
    <g id="xtick_5">
     <g id="line2d_9">
      <path d="M 568.352464 297.216 
L 568.352464 34.56 
" clip-path="url(#pc19c0e1920)" style="fill: none; stroke: #b0b0b0; stroke-opacity: 0.25; stroke-width: 0.8; stroke-linecap: square"/>
     </g>
     <g id="line2d_10">
      <g>
       <use xlink:href="#m9e104356aa" x="568.352464" y="297.216" style="stroke: #000000; stroke-width: 2"/>
      </g>
     </g>
     <g id="text_5">
      <!-- 0.6 -->
      <g transform="translate(560.400901 311.814437) scale(0.1 -0.1)">
       <defs>
        <path id="DejaVuSans-36" d="M 2113 2584 
Q 1688 2584 1439 2293 
Q 1191 2003 1191 1497 
Q 1191 994 1439 701 
Q 1688 409 2113 409 
Q 2538 409 2786 701 
Q 3034 994 3034 1497 
Q 3034 2003 2786 2293 
Q 2538 2584 2113 2584 
z
M 3366 4563 
L 3366 3988 
Q 3128 4100 2886 4159 
Q 2644 4219 2406 4219 
Q 1781 4219 1451 3797 
Q 1122 3375 1075 2522 
Q 1259 2794 1537 2939 
Q 1816 3084 2150 3084 
Q 2853 3084 3261 2657 
Q 3669 2231 3669 1497 
Q 3669 778 3244 343 
Q 2819 -91 2113 -91 
Q 1303 -91 875 529 
Q 447 1150 447 2328 
Q 447 3434 972 4092 
Q 1497 4750 2381 4750 
Q 2619 4750 2861 4703 
Q 3103 4656 3366 4563 
z
" transform="scale(0.015625)"/>
       </defs>
       <use xlink:href="#DejaVuSans-30"/>
       <use xlink:href="#DejaVuSans-2e" x="63.623047"/>
       <use xlink:href="#DejaVuSans-36" x="95.410156"/>
      </g>
     </g>
    </g>
    <g id="text_6">
     <!-- Re [a.u.] -->
     <g transform="translate(464.772656 325.492562) scale(0.1 -0.1)">
      <defs>
       <path id="DejaVuSans-52" d="M 2841 2188 
Q 3044 2119 3236 1894 
Q 3428 1669 3622 1275 
L 4263 0 
L 3584 0 
L 2988 1197 
Q 2756 1666 2539 1819 
Q 2322 1972 1947 1972 
L 1259 1972 
L 1259 0 
L 628 0 
L 628 4666 
L 2053 4666 
Q 2853 4666 3247 4331 
Q 3641 3997 3641 3322 
Q 3641 2881 3436 2590 
Q 3231 2300 2841 2188 
z
M 1259 4147 
L 1259 2491 
L 2053 2491 
Q 2509 2491 2742 2702 
Q 2975 2913 2975 3322 
Q 2975 3731 2742 3939 
Q 2509 4147 2053 4147 
L 1259 4147 
z
" transform="scale(0.015625)"/>
       <path id="DejaVuSans-65" d="M 3597 1894 
L 3597 1613 
L 953 1613 
Q 991 1019 1311 708 
Q 1631 397 2203 397 
Q 2534 397 2845 478 
Q 3156 559 3463 722 
L 3463 178 
Q 3153 47 2828 -22 
Q 2503 -91 2169 -91 
Q 1331 -91 842 396 
Q 353 884 353 1716 
Q 353 2575 817 3079 
Q 1281 3584 2069 3584 
Q 2775 3584 3186 3129 
Q 3597 2675 3597 1894 
z
M 3022 2063 
Q 3016 2534 2758 2815 
Q 2500 3097 2075 3097 
Q 1594 3097 1305 2825 
Q 1016 2553 972 2059 
L 3022 2063 
z
" transform="scale(0.015625)"/>
       <path id="DejaVuSans-20" transform="scale(0.015625)"/>
       <path id="DejaVuSans-5b" d="M 550 4863 
L 1875 4863 
L 1875 4416 
L 1125 4416 
L 1125 -397 
L 1875 -397 
L 1875 -844 
L 550 -844 
L 550 4863 
z
" transform="scale(0.015625)"/>
       <path id="DejaVuSans-61" d="M 2194 1759 
Q 1497 1759 1228 1600 
Q 959 1441 959 1056 
Q 959 750 1161 570 
Q 1363 391 1709 391 
Q 2188 391 2477 730 
Q 2766 1069 2766 1631 
L 2766 1759 
L 2194 1759 
z
M 3341 1997 
L 3341 0 
L 2766 0 
L 2766 531 
Q 2569 213 2275 61 
Q 1981 -91 1556 -91 
Q 1019 -91 701 211 
Q 384 513 384 1019 
Q 384 1609 779 1909 
Q 1175 2209 1959 2209 
L 2766 2209 
L 2766 2266 
Q 2766 2663 2505 2880 
Q 2244 3097 1772 3097 
Q 1472 3097 1187 3025 
Q 903 2953 641 2809 
L 641 3341 
Q 956 3463 1253 3523 
Q 1550 3584 1831 3584 
Q 2591 3584 2966 3190 
Q 3341 2797 3341 1997 
z
" transform="scale(0.015625)"/>
       <path id="DejaVuSans-75" d="M 544 1381 
L 544 3500 
L 1119 3500 
L 1119 1403 
Q 1119 906 1312 657 
Q 1506 409 1894 409 
Q 2359 409 2629 706 
Q 2900 1003 2900 1516 
L 2900 3500 
L 3475 3500 
L 3475 0 
L 2900 0 
L 2900 538 
Q 2691 219 2414 64 
Q 2138 -91 1772 -91 
Q 1169 -91 856 284 
Q 544 659 544 1381 
z
M 1991 3584 
L 1991 3584 
z
" transform="scale(0.015625)"/>
       <path id="DejaVuSans-5d" d="M 1947 4863 
L 1947 -844 
L 622 -844 
L 622 -397 
L 1369 -397 
L 1369 4416 
L 622 4416 
L 622 4863 
L 1947 4863 
z
" transform="scale(0.015625)"/>
      </defs>
      <use xlink:href="#DejaVuSans-52"/>
      <use xlink:href="#DejaVuSans-65" x="64.982422"/>
      <use xlink:href="#DejaVuSans-20" x="126.505859"/>
      <use xlink:href="#DejaVuSans-5b" x="158.292969"/>
      <use xlink:href="#DejaVuSans-61" x="197.306641"/>
      <use xlink:href="#DejaVuSans-2e" x="258.585938"/>
      <use xlink:href="#DejaVuSans-75" x="290.373047"/>
      <use xlink:href="#DejaVuSans-2e" x="353.751953"/>
      <use xlink:href="#DejaVuSans-5d" x="385.539062"/>
     </g>
    </g>
   </g>
   <g id="matplotlib.axis_2">
    <g id="ytick_1">
     <g id="line2d_11">
      <path d="M 370.562416 281.462548 
L 601.437584 281.462548 
" clip-path="url(#pc19c0e1920)" style="fill: none; stroke: #b0b0b0; stroke-opacity: 0.25; stroke-width: 0.8; stroke-linecap: square"/>
     </g>
     <g id="line2d_12">
      <defs>
       <path id="m7ecfcb4135" d="M 0 0 
L -3.5 0 
" style="stroke: #000000; stroke-width: 2"/>
      </defs>
      <g>
       <use xlink:href="#m7ecfcb4135" x="370.562416" y="281.462548" style="stroke: #000000; stroke-width: 2"/>
      </g>
     </g>
     <g id="text_7">
      <!-- −1.0 -->
      <g transform="translate(339.279603 285.261766) scale(0.1 -0.1)">
       <defs>
        <path id="DejaVuSans-31" d="M 794 531 
L 1825 531 
L 1825 4091 
L 703 3866 
L 703 4441 
L 1819 4666 
L 2450 4666 
L 2450 531 
L 3481 531 
L 3481 0 
L 794 0 
L 794 531 
z
" transform="scale(0.015625)"/>
       </defs>
       <use xlink:href="#DejaVuSans-2212"/>
       <use xlink:href="#DejaVuSans-31" x="83.789062"/>
       <use xlink:href="#DejaVuSans-2e" x="147.412109"/>
       <use xlink:href="#DejaVuSans-30" x="179.199219"/>
      </g>
     </g>
    </g>
    <g id="ytick_2">
     <g id="line2d_13">
      <path d="M 370.562416 237.808141 
L 601.437584 237.808141 
" clip-path="url(#pc19c0e1920)" style="fill: none; stroke: #b0b0b0; stroke-opacity: 0.25; stroke-width: 0.8; stroke-linecap: square"/>
     </g>
     <g id="line2d_14">
      <g>
       <use xlink:href="#m7ecfcb4135" x="370.562416" y="237.808141" style="stroke: #000000; stroke-width: 2"/>
      </g>
     </g>
     <g id="text_8">
      <!-- −0.8 -->
      <g transform="translate(339.279603 241.60736) scale(0.1 -0.1)">
       <defs>
        <path id="DejaVuSans-38" d="M 2034 2216 
Q 1584 2216 1326 1975 
Q 1069 1734 1069 1313 
Q 1069 891 1326 650 
Q 1584 409 2034 409 
Q 2484 409 2743 651 
Q 3003 894 3003 1313 
Q 3003 1734 2745 1975 
Q 2488 2216 2034 2216 
z
M 1403 2484 
Q 997 2584 770 2862 
Q 544 3141 544 3541 
Q 544 4100 942 4425 
Q 1341 4750 2034 4750 
Q 2731 4750 3128 4425 
Q 3525 4100 3525 3541 
Q 3525 3141 3298 2862 
Q 3072 2584 2669 2484 
Q 3125 2378 3379 2068 
Q 3634 1759 3634 1313 
Q 3634 634 3220 271 
Q 2806 -91 2034 -91 
Q 1263 -91 848 271 
Q 434 634 434 1313 
Q 434 1759 690 2068 
Q 947 2378 1403 2484 
z
M 1172 3481 
Q 1172 3119 1398 2916 
Q 1625 2713 2034 2713 
Q 2441 2713 2670 2916 
Q 2900 3119 2900 3481 
Q 2900 3844 2670 4047 
Q 2441 4250 2034 4250 
Q 1625 4250 1398 4047 
Q 1172 3844 1172 3481 
z
" transform="scale(0.015625)"/>
       </defs>
       <use xlink:href="#DejaVuSans-2212"/>
       <use xlink:href="#DejaVuSans-30" x="83.789062"/>
       <use xlink:href="#DejaVuSans-2e" x="147.412109"/>
       <use xlink:href="#DejaVuSans-38" x="179.199219"/>
      </g>
     </g>
    </g>
    <g id="ytick_3">
     <g id="line2d_15">
      <path d="M 370.562416 194.153735 
L 601.437584 194.153735 
" clip-path="url(#pc19c0e1920)" style="fill: none; stroke: #b0b0b0; stroke-opacity: 0.25; stroke-width: 0.8; stroke-linecap: square"/>
     </g>
     <g id="line2d_16">
      <g>
       <use xlink:href="#m7ecfcb4135" x="370.562416" y="194.153735" style="stroke: #000000; stroke-width: 2"/>
      </g>
     </g>
     <g id="text_9">
      <!-- −0.6 -->
      <g transform="translate(339.279603 197.952954) scale(0.1 -0.1)">
       <use xlink:href="#DejaVuSans-2212"/>
       <use xlink:href="#DejaVuSans-30" x="83.789062"/>
       <use xlink:href="#DejaVuSans-2e" x="147.412109"/>
       <use xlink:href="#DejaVuSans-36" x="179.199219"/>
      </g>
     </g>
    </g>
    <g id="ytick_4">
     <g id="line2d_17">
      <path d="M 370.562416 150.499329 
L 601.437584 150.499329 
" clip-path="url(#pc19c0e1920)" style="fill: none; stroke: #b0b0b0; stroke-opacity: 0.25; stroke-width: 0.8; stroke-linecap: square"/>
     </g>
     <g id="line2d_18">
      <g>
       <use xlink:href="#m7ecfcb4135" x="370.562416" y="150.499329" style="stroke: #000000; stroke-width: 2"/>
      </g>
     </g>
     <g id="text_10">
      <!-- −0.4 -->
      <g transform="translate(339.279603 154.298547) scale(0.1 -0.1)">
       <use xlink:href="#DejaVuSans-2212"/>
       <use xlink:href="#DejaVuSans-30" x="83.789062"/>
       <use xlink:href="#DejaVuSans-2e" x="147.412109"/>
       <use xlink:href="#DejaVuSans-34" x="179.199219"/>
      </g>
     </g>
    </g>
    <g id="ytick_5">
     <g id="line2d_19">
      <path d="M 370.562416 106.844922 
L 601.437584 106.844922 
" clip-path="url(#pc19c0e1920)" style="fill: none; stroke: #b0b0b0; stroke-opacity: 0.25; stroke-width: 0.8; stroke-linecap: square"/>
     </g>
     <g id="line2d_20">
      <g>
       <use xlink:href="#m7ecfcb4135" x="370.562416" y="106.844922" style="stroke: #000000; stroke-width: 2"/>
      </g>
     </g>
     <g id="text_11">
      <!-- −0.2 -->
      <g transform="translate(339.279603 110.644141) scale(0.1 -0.1)">
       <use xlink:href="#DejaVuSans-2212"/>
       <use xlink:href="#DejaVuSans-30" x="83.789062"/>
       <use xlink:href="#DejaVuSans-2e" x="147.412109"/>
       <use xlink:href="#DejaVuSans-32" x="179.199219"/>
      </g>
     </g>
    </g>
    <g id="ytick_6">
     <g id="line2d_21">
      <path d="M 370.562416 63.190516 
L 601.437584 63.190516 
" clip-path="url(#pc19c0e1920)" style="fill: none; stroke: #b0b0b0; stroke-opacity: 0.25; stroke-width: 0.8; stroke-linecap: square"/>
     </g>
     <g id="line2d_22">
      <g>
       <use xlink:href="#m7ecfcb4135" x="370.562416" y="63.190516" style="stroke: #000000; stroke-width: 2"/>
      </g>
     </g>
     <g id="text_12">
      <!-- 0.0 -->
      <g transform="translate(347.659291 66.989735) scale(0.1 -0.1)">
       <use xlink:href="#DejaVuSans-30"/>
       <use xlink:href="#DejaVuSans-2e" x="63.623047"/>
       <use xlink:href="#DejaVuSans-30" x="95.410156"/>
      </g>
     </g>
    </g>
    <g id="text_13">
     <!-- Im [a.u.] -->
     <g transform="translate(333.199916 187.134875) rotate(-90) scale(0.1 -0.1)">
      <defs>
       <path id="DejaVuSans-49" d="M 628 4666 
L 1259 4666 
L 1259 0 
L 628 0 
L 628 4666 
z
" transform="scale(0.015625)"/>
       <path id="DejaVuSans-6d" d="M 3328 2828 
Q 3544 3216 3844 3400 
Q 4144 3584 4550 3584 
Q 5097 3584 5394 3201 
Q 5691 2819 5691 2113 
L 5691 0 
L 5113 0 
L 5113 2094 
Q 5113 2597 4934 2840 
Q 4756 3084 4391 3084 
Q 3944 3084 3684 2787 
Q 3425 2491 3425 1978 
L 3425 0 
L 2847 0 
L 2847 2094 
Q 2847 2600 2669 2842 
Q 2491 3084 2119 3084 
Q 1678 3084 1418 2786 
Q 1159 2488 1159 1978 
L 1159 0 
L 581 0 
L 581 3500 
L 1159 3500 
L 1159 2956 
Q 1356 3278 1631 3431 
Q 1906 3584 2284 3584 
Q 2666 3584 2933 3390 
Q 3200 3197 3328 2828 
z
" transform="scale(0.015625)"/>
      </defs>
      <use xlink:href="#DejaVuSans-49"/>
      <use xlink:href="#DejaVuSans-6d" x="29.492188"/>
      <use xlink:href="#DejaVuSans-20" x="126.904297"/>
      <use xlink:href="#DejaVuSans-5b" x="158.691406"/>
      <use xlink:href="#DejaVuSans-61" x="197.705078"/>
      <use xlink:href="#DejaVuSans-2e" x="258.984375"/>
      <use xlink:href="#DejaVuSans-75" x="290.771484"/>
      <use xlink:href="#DejaVuSans-2e" x="354.150391"/>
      <use xlink:href="#DejaVuSans-5d" x="385.9375"/>
     </g>
    </g>
   </g>
   <g id="line2d_23">
    <path d="M 437.389245 63.190516 
L 419.01621 84.555821 
L 415.521939 56.594513 
L 442.772072 49.419913 
L 470.799066 46.498909 
L 481.708491 72.480232 
L 505.758478 87.165012 
L 483.671542 104.663923 
L 480.051387 132.609211 
L 452.924556 140.236773 
L 478.790868 151.416154 
L 490.120552 177.216986 
L 518.295178 176.732151 
L 535.900535 198.734335 
L 563.454239 192.831956 
L 559.861984 220.780845 
L 572.551355 195.620866 
L 590.943258 216.969931 
L 563.715238 224.227999 
L 555.056038 197.41265 
L 530.137091 184.256254 
L 557.870969 179.2686 
L 577.885916 159.433113 
L 564.40766 184.179452 
L 547.444611 206.680554 
L 526.352536 225.36662 
L 505.370877 206.556659 
L 533.545345 207.050621 
L 561.520097 210.435581 
L 550.417079 236.334763 
L 533.919852 259.179591 
L 523.291344 285.277091 
L 501.70143 267.168522 
L 520.323583 246.019998 
L 515.302477 273.747839 
L 487.48049 278.217924 
L 477.067377 252.033735 
L 449.000105 249.529158 
L 470.654328 267.560777 
L 496.447827 278.907144 
L 478.788482 256.94827 
L 453.408046 269.190742 
L 441.111451 243.836484 
L 417.73588 259.572664 
L 402.950469 235.584411 
L 381.056742 217.844361 
L 402.799809 235.768749 
L 406.830246 207.879678 
L 386.679164 227.576849 
L 411.022119 213.383006 
L 425.005712 237.847343 
L 431.514746 265.264074 
L 433.395514 237.148111 
L 453.505883 256.886848 
L 479.798137 246.749687 
L 465.28408 222.596285 
L 481.807106 199.77011 
L 454.98897 191.119547 
L 463.075485 218.113119 
L 466.494388 190.142496 
L 493.181269 181.095119 
" clip-path="url(#pc19c0e1920)" style="fill: none; stroke: #1f77b4; stroke-width: 2.6; stroke-linecap: square"/>
    <defs>
     <path id="m339ba29599" d="M 0 1.75 
C 0.464105 1.75 0.909265 1.565609 1.237437 1.237437 
C 1.565609 0.909265 1.75 0.464105 1.75 0 
C 1.75 -0.464105 1.565609 -0.909265 1.237437 -1.237437 
C 0.909265 -1.565609 0.464105 -1.75 0 -1.75 
C -0.464105 -1.75 -0.909265 -1.565609 -1.237437 -1.237437 
C -1.565609 -0.909265 -1.75 -0.464105 -1.75 0 
C -1.75 0.464105 -1.565609 0.909265 -1.237437 1.237437 
C -0.909265 1.565609 -0.464105 1.75 0 1.75 
z
" style="stroke: #1f77b4"/>
    </defs>
    <g clip-path="url(#pc19c0e1920)">
     <use xlink:href="#m339ba29599" x="437.389245" y="63.190516" style="fill: #1f77b4; stroke: #1f77b4"/>
     <use xlink:href="#m339ba29599" x="419.01621" y="84.555821" style="fill: #1f77b4; stroke: #1f77b4"/>
     <use xlink:href="#m339ba29599" x="415.521939" y="56.594513" style="fill: #1f77b4; stroke: #1f77b4"/>
     <use xlink:href="#m339ba29599" x="442.772072" y="49.419913" style="fill: #1f77b4; stroke: #1f77b4"/>
     <use xlink:href="#m339ba29599" x="470.799066" y="46.498909" style="fill: #1f77b4; stroke: #1f77b4"/>
     <use xlink:href="#m339ba29599" x="481.708491" y="72.480232" style="fill: #1f77b4; stroke: #1f77b4"/>
     <use xlink:href="#m339ba29599" x="505.758478" y="87.165012" style="fill: #1f77b4; stroke: #1f77b4"/>
     <use xlink:href="#m339ba29599" x="483.671542" y="104.663923" style="fill: #1f77b4; stroke: #1f77b4"/>
     <use xlink:href="#m339ba29599" x="480.051387" y="132.609211" style="fill: #1f77b4; stroke: #1f77b4"/>
     <use xlink:href="#m339ba29599" x="452.924556" y="140.236773" style="fill: #1f77b4; stroke: #1f77b4"/>
     <use xlink:href="#m339ba29599" x="478.790868" y="151.416154" style="fill: #1f77b4; stroke: #1f77b4"/>
     <use xlink:href="#m339ba29599" x="490.120552" y="177.216986" style="fill: #1f77b4; stroke: #1f77b4"/>
     <use xlink:href="#m339ba29599" x="518.295178" y="176.732151" style="fill: #1f77b4; stroke: #1f77b4"/>
     <use xlink:href="#m339ba29599" x="535.900535" y="198.734335" style="fill: #1f77b4; stroke: #1f77b4"/>
     <use xlink:href="#m339ba29599" x="563.454239" y="192.831956" style="fill: #1f77b4; stroke: #1f77b4"/>
     <use xlink:href="#m339ba29599" x="559.861984" y="220.780845" style="fill: #1f77b4; stroke: #1f77b4"/>
     <use xlink:href="#m339ba29599" x="572.551355" y="195.620866" style="fill: #1f77b4; stroke: #1f77b4"/>
     <use xlink:href="#m339ba29599" x="590.943258" y="216.969931" style="fill: #1f77b4; stroke: #1f77b4"/>
     <use xlink:href="#m339ba29599" x="563.715238" y="224.227999" style="fill: #1f77b4; stroke: #1f77b4"/>
     <use xlink:href="#m339ba29599" x="555.056038" y="197.41265" style="fill: #1f77b4; stroke: #1f77b4"/>
     <use xlink:href="#m339ba29599" x="530.137091" y="184.256254" style="fill: #1f77b4; stroke: #1f77b4"/>
     <use xlink:href="#m339ba29599" x="557.870969" y="179.2686" style="fill: #1f77b4; stroke: #1f77b4"/>
     <use xlink:href="#m339ba29599" x="577.885916" y="159.433113" style="fill: #1f77b4; stroke: #1f77b4"/>
     <use xlink:href="#m339ba29599" x="564.40766" y="184.179452" style="fill: #1f77b4; stroke: #1f77b4"/>
     <use xlink:href="#m339ba29599" x="547.444611" y="206.680554" style="fill: #1f77b4; stroke: #1f77b4"/>
     <use xlink:href="#m339ba29599" x="526.352536" y="225.36662" style="fill: #1f77b4; stroke: #1f77b4"/>
     <use xlink:href="#m339ba29599" x="505.370877" y="206.556659" style="fill: #1f77b4; stroke: #1f77b4"/>
     <use xlink:href="#m339ba29599" x="533.545345" y="207.050621" style="fill: #1f77b4; stroke: #1f77b4"/>
     <use xlink:href="#m339ba29599" x="561.520097" y="210.435581" style="fill: #1f77b4; stroke: #1f77b4"/>
     <use xlink:href="#m339ba29599" x="550.417079" y="236.334763" style="fill: #1f77b4; stroke: #1f77b4"/>
     <use xlink:href="#m339ba29599" x="533.919852" y="259.179591" style="fill: #1f77b4; stroke: #1f77b4"/>
     <use xlink:href="#m339ba29599" x="523.291344" y="285.277091" style="fill: #1f77b4; stroke: #1f77b4"/>
     <use xlink:href="#m339ba29599" x="501.70143" y="267.168522" style="fill: #1f77b4; stroke: #1f77b4"/>
     <use xlink:href="#m339ba29599" x="520.323583" y="246.019998" style="fill: #1f77b4; stroke: #1f77b4"/>
     <use xlink:href="#m339ba29599" x="515.302477" y="273.747839" style="fill: #1f77b4; stroke: #1f77b4"/>
     <use xlink:href="#m339ba29599" x="487.48049" y="278.217924" style="fill: #1f77b4; stroke: #1f77b4"/>
     <use xlink:href="#m339ba29599" x="477.067377" y="252.033735" style="fill: #1f77b4; stroke: #1f77b4"/>
     <use xlink:href="#m339ba29599" x="449.000105" y="249.529158" style="fill: #1f77b4; stroke: #1f77b4"/>
     <use xlink:href="#m339ba29599" x="470.654328" y="267.560777" style="fill: #1f77b4; stroke: #1f77b4"/>
     <use xlink:href="#m339ba29599" x="496.447827" y="278.907144" style="fill: #1f77b4; stroke: #1f77b4"/>
     <use xlink:href="#m339ba29599" x="478.788482" y="256.94827" style="fill: #1f77b4; stroke: #1f77b4"/>
     <use xlink:href="#m339ba29599" x="453.408046" y="269.190742" style="fill: #1f77b4; stroke: #1f77b4"/>
     <use xlink:href="#m339ba29599" x="441.111451" y="243.836484" style="fill: #1f77b4; stroke: #1f77b4"/>
     <use xlink:href="#m339ba29599" x="417.73588" y="259.572664" style="fill: #1f77b4; stroke: #1f77b4"/>
     <use xlink:href="#m339ba29599" x="402.950469" y="235.584411" style="fill: #1f77b4; stroke: #1f77b4"/>
     <use xlink:href="#m339ba29599" x="381.056742" y="217.844361" style="fill: #1f77b4; stroke: #1f77b4"/>
     <use xlink:href="#m339ba29599" x="402.799809" y="235.768749" style="fill: #1f77b4; stroke: #1f77b4"/>
     <use xlink:href="#m339ba29599" x="406.830246" y="207.879678" style="fill: #1f77b4; stroke: #1f77b4"/>
     <use xlink:href="#m339ba29599" x="386.679164" y="227.576849" style="fill: #1f77b4; stroke: #1f77b4"/>
     <use xlink:href="#m339ba29599" x="411.022119" y="213.383006" style="fill: #1f77b4; stroke: #1f77b4"/>
     <use xlink:href="#m339ba29599" x="425.005712" y="237.847343" style="fill: #1f77b4; stroke: #1f77b4"/>
     <use xlink:href="#m339ba29599" x="431.514746" y="265.264074" style="fill: #1f77b4; stroke: #1f77b4"/>
     <use xlink:href="#m339ba29599" x="433.395514" y="237.148111" style="fill: #1f77b4; stroke: #1f77b4"/>
     <use xlink:href="#m339ba29599" x="453.505883" y="256.886848" style="fill: #1f77b4; stroke: #1f77b4"/>
     <use xlink:href="#m339ba29599" x="479.798137" y="246.749687" style="fill: #1f77b4; stroke: #1f77b4"/>
     <use xlink:href="#m339ba29599" x="465.28408" y="222.596285" style="fill: #1f77b4; stroke: #1f77b4"/>
     <use xlink:href="#m339ba29599" x="481.807106" y="199.77011" style="fill: #1f77b4; stroke: #1f77b4"/>
     <use xlink:href="#m339ba29599" x="454.98897" y="191.119547" style="fill: #1f77b4; stroke: #1f77b4"/>
     <use xlink:href="#m339ba29599" x="463.075485" y="218.113119" style="fill: #1f77b4; stroke: #1f77b4"/>
     <use xlink:href="#m339ba29599" x="466.494388" y="190.142496" style="fill: #1f77b4; stroke: #1f77b4"/>
     <use xlink:href="#m339ba29599" x="493.181269" y="181.095119" style="fill: #1f77b4; stroke: #1f77b4"/>
    </g>
   </g>
   <g id="patch_3">
    <path d="M 370.562416 297.216 
L 370.562416 34.56 
" style="fill: none; stroke: #000000; stroke-width: 2; stroke-linejoin: miter; stroke-linecap: square"/>
   </g>
   <g id="patch_4">
    <path d="M 601.437584 297.216 
L 601.437584 34.56 
" style="fill: none; stroke: #000000; stroke-width: 2; stroke-linejoin: miter; stroke-linecap: square"/>
   </g>
   <g id="patch_5">
    <path d="M 370.562416 297.216 
L 601.437584 297.216 
" style="fill: none; stroke: #000000; stroke-width: 2; stroke-linejoin: miter; stroke-linecap: square"/>
   </g>
   <g id="patch_6">
    <path d="M 370.562416 34.56 
L 601.437584 34.56 
" style="fill: none; stroke: #000000; stroke-width: 2; stroke-linejoin: miter; stroke-linecap: square"/>
   </g>
   <g id="text_14">
    <!-- 2D random walk (phasor sum): one realization -->
    <g transform="translate(346.579687 28.56) scale(0.12 -0.12)">
     <defs>
      <path id="DejaVuSans-44" d="M 1259 4147 
L 1259 519 
L 2022 519 
Q 2988 519 3436 956 
Q 3884 1394 3884 2338 
Q 3884 3275 3436 3711 
Q 2988 4147 2022 4147 
L 1259 4147 
z
M 628 4666 
L 1925 4666 
Q 3281 4666 3915 4102 
Q 4550 3538 4550 2338 
Q 4550 1131 3912 565 
Q 3275 0 1925 0 
L 628 0 
L 628 4666 
z
" transform="scale(0.015625)"/>
      <path id="DejaVuSans-72" d="M 2631 2963 
Q 2534 3019 2420 3045 
Q 2306 3072 2169 3072 
Q 1681 3072 1420 2755 
Q 1159 2438 1159 1844 
L 1159 0 
L 581 0 
L 581 3500 
L 1159 3500 
L 1159 2956 
Q 1341 3275 1631 3429 
Q 1922 3584 2338 3584 
Q 2397 3584 2469 3576 
Q 2541 3569 2628 3553 
L 2631 2963 
z
" transform="scale(0.015625)"/>
      <path id="DejaVuSans-6e" d="M 3513 2113 
L 3513 0 
L 2938 0 
L 2938 2094 
Q 2938 2591 2744 2837 
Q 2550 3084 2163 3084 
Q 1697 3084 1428 2787 
Q 1159 2491 1159 1978 
L 1159 0 
L 581 0 
L 581 3500 
L 1159 3500 
L 1159 2956 
Q 1366 3272 1645 3428 
Q 1925 3584 2291 3584 
Q 2894 3584 3203 3211 
Q 3513 2838 3513 2113 
z
" transform="scale(0.015625)"/>
      <path id="DejaVuSans-64" d="M 2906 2969 
L 2906 4863 
L 3481 4863 
L 3481 0 
L 2906 0 
L 2906 525 
Q 2725 213 2448 61 
Q 2172 -91 1784 -91 
Q 1150 -91 751 415 
Q 353 922 353 1747 
Q 353 2572 751 3078 
Q 1150 3584 1784 3584 
Q 2172 3584 2448 3432 
Q 2725 3281 2906 2969 
z
M 947 1747 
Q 947 1113 1208 752 
Q 1469 391 1925 391 
Q 2381 391 2643 752 
Q 2906 1113 2906 1747 
Q 2906 2381 2643 2742 
Q 2381 3103 1925 3103 
Q 1469 3103 1208 2742 
Q 947 2381 947 1747 
z
" transform="scale(0.015625)"/>
      <path id="DejaVuSans-6f" d="M 1959 3097 
Q 1497 3097 1228 2736 
Q 959 2375 959 1747 
Q 959 1119 1226 758 
Q 1494 397 1959 397 
Q 2419 397 2687 759 
Q 2956 1122 2956 1747 
Q 2956 2369 2687 2733 
Q 2419 3097 1959 3097 
z
M 1959 3584 
Q 2709 3584 3137 3096 
Q 3566 2609 3566 1747 
Q 3566 888 3137 398 
Q 2709 -91 1959 -91 
Q 1206 -91 779 398 
Q 353 888 353 1747 
Q 353 2609 779 3096 
Q 1206 3584 1959 3584 
z
" transform="scale(0.015625)"/>
      <path id="DejaVuSans-77" d="M 269 3500 
L 844 3500 
L 1563 769 
L 2278 3500 
L 2956 3500 
L 3675 769 
L 4391 3500 
L 4966 3500 
L 4050 0 
L 3372 0 
L 2619 2869 
L 1863 0 
L 1184 0 
L 269 3500 
z
" transform="scale(0.015625)"/>
      <path id="DejaVuSans-6c" d="M 603 4863 
L 1178 4863 
L 1178 0 
L 603 0 
L 603 4863 
z
" transform="scale(0.015625)"/>
      <path id="DejaVuSans-6b" d="M 581 4863 
L 1159 4863 
L 1159 1991 
L 2875 3500 
L 3609 3500 
L 1753 1863 
L 3688 0 
L 2938 0 
L 1159 1709 
L 1159 0 
L 581 0 
L 581 4863 
z
" transform="scale(0.015625)"/>
      <path id="DejaVuSans-28" d="M 1984 4856 
Q 1566 4138 1362 3434 
Q 1159 2731 1159 2009 
Q 1159 1288 1364 580 
Q 1569 -128 1984 -844 
L 1484 -844 
Q 1016 -109 783 600 
Q 550 1309 550 2009 
Q 550 2706 781 3412 
Q 1013 4119 1484 4856 
L 1984 4856 
z
" transform="scale(0.015625)"/>
      <path id="DejaVuSans-70" d="M 1159 525 
L 1159 -1331 
L 581 -1331 
L 581 3500 
L 1159 3500 
L 1159 2969 
Q 1341 3281 1617 3432 
Q 1894 3584 2278 3584 
Q 2916 3584 3314 3078 
Q 3713 2572 3713 1747 
Q 3713 922 3314 415 
Q 2916 -91 2278 -91 
Q 1894 -91 1617 61 
Q 1341 213 1159 525 
z
M 3116 1747 
Q 3116 2381 2855 2742 
Q 2594 3103 2138 3103 
Q 1681 3103 1420 2742 
Q 1159 2381 1159 1747 
Q 1159 1113 1420 752 
Q 1681 391 2138 391 
Q 2594 391 2855 752 
Q 3116 1113 3116 1747 
z
" transform="scale(0.015625)"/>
      <path id="DejaVuSans-68" d="M 3513 2113 
L 3513 0 
L 2938 0 
L 2938 2094 
Q 2938 2591 2744 2837 
Q 2550 3084 2163 3084 
Q 1697 3084 1428 2787 
Q 1159 2491 1159 1978 
L 1159 0 
L 581 0 
L 581 4863 
L 1159 4863 
L 1159 2956 
Q 1366 3272 1645 3428 
Q 1925 3584 2291 3584 
Q 2894 3584 3203 3211 
Q 3513 2838 3513 2113 
z
" transform="scale(0.015625)"/>
      <path id="DejaVuSans-73" d="M 2834 3397 
L 2834 2853 
Q 2591 2978 2328 3040 
Q 2066 3103 1784 3103 
Q 1356 3103 1142 2972 
Q 928 2841 928 2578 
Q 928 2378 1081 2264 
Q 1234 2150 1697 2047 
L 1894 2003 
Q 2506 1872 2764 1633 
Q 3022 1394 3022 966 
Q 3022 478 2636 193 
Q 2250 -91 1575 -91 
Q 1294 -91 989 -36 
Q 684 19 347 128 
L 347 722 
Q 666 556 975 473 
Q 1284 391 1588 391 
Q 1994 391 2212 530 
Q 2431 669 2431 922 
Q 2431 1156 2273 1281 
Q 2116 1406 1581 1522 
L 1381 1569 
Q 847 1681 609 1914 
Q 372 2147 372 2553 
Q 372 3047 722 3315 
Q 1072 3584 1716 3584 
Q 2034 3584 2315 3537 
Q 2597 3491 2834 3397 
z
" transform="scale(0.015625)"/>
      <path id="DejaVuSans-29" d="M 513 4856 
L 1013 4856 
Q 1481 4119 1714 3412 
Q 1947 2706 1947 2009 
Q 1947 1309 1714 600 
Q 1481 -109 1013 -844 
L 513 -844 
Q 928 -128 1133 580 
Q 1338 1288 1338 2009 
Q 1338 2731 1133 3434 
Q 928 4138 513 4856 
z
" transform="scale(0.015625)"/>
      <path id="DejaVuSans-3a" d="M 750 794 
L 1409 794 
L 1409 0 
L 750 0 
L 750 794 
z
M 750 3309 
L 1409 3309 
L 1409 2516 
L 750 2516 
L 750 3309 
z
" transform="scale(0.015625)"/>
      <path id="DejaVuSans-69" d="M 603 3500 
L 1178 3500 
L 1178 0 
L 603 0 
L 603 3500 
z
M 603 4863 
L 1178 4863 
L 1178 4134 
L 603 4134 
L 603 4863 
z
" transform="scale(0.015625)"/>
      <path id="DejaVuSans-7a" d="M 353 3500 
L 3084 3500 
L 3084 2975 
L 922 459 
L 3084 459 
L 3084 0 
L 275 0 
L 275 525 
L 2438 3041 
L 353 3041 
L 353 3500 
z
" transform="scale(0.015625)"/>
      <path id="DejaVuSans-74" d="M 1172 4494 
L 1172 3500 
L 2356 3500 
L 2356 3053 
L 1172 3053 
L 1172 1153 
Q 1172 725 1289 603 
Q 1406 481 1766 481 
L 2356 481 
L 2356 0 
L 1766 0 
Q 1100 0 847 248 
Q 594 497 594 1153 
L 594 3053 
L 172 3053 
L 172 3500 
L 594 3500 
L 594 4494 
L 1172 4494 
z
" transform="scale(0.015625)"/>
     </defs>
     <use xlink:href="#DejaVuSans-32"/>
     <use xlink:href="#DejaVuSans-44" x="63.623047"/>
     <use xlink:href="#DejaVuSans-20" x="140.625"/>
     <use xlink:href="#DejaVuSans-72" x="172.412109"/>
     <use xlink:href="#DejaVuSans-61" x="213.525391"/>
     <use xlink:href="#DejaVuSans-6e" x="274.804688"/>
     <use xlink:href="#DejaVuSans-64" x="338.183594"/>
     <use xlink:href="#DejaVuSans-6f" x="401.660156"/>
     <use xlink:href="#DejaVuSans-6d" x="462.841797"/>
     <use xlink:href="#DejaVuSans-20" x="560.253906"/>
     <use xlink:href="#DejaVuSans-77" x="592.041016"/>
     <use xlink:href="#DejaVuSans-61" x="673.828125"/>
     <use xlink:href="#DejaVuSans-6c" x="735.107422"/>
     <use xlink:href="#DejaVuSans-6b" x="762.890625"/>
     <use xlink:href="#DejaVuSans-20" x="820.800781"/>
     <use xlink:href="#DejaVuSans-28" x="852.587891"/>
     <use xlink:href="#DejaVuSans-70" x="891.601562"/>
     <use xlink:href="#DejaVuSans-68" x="955.078125"/>
     <use xlink:href="#DejaVuSans-61" x="1018.457031"/>
     <use xlink:href="#DejaVuSans-73" x="1079.736328"/>
     <use xlink:href="#DejaVuSans-6f" x="1131.835938"/>
     <use xlink:href="#DejaVuSans-72" x="1193.017578"/>
     <use xlink:href="#DejaVuSans-20" x="1234.130859"/>
     <use xlink:href="#DejaVuSans-73" x="1265.917969"/>
     <use xlink:href="#DejaVuSans-75" x="1318.017578"/>
     <use xlink:href="#DejaVuSans-6d" x="1381.396484"/>
     <use xlink:href="#DejaVuSans-29" x="1478.808594"/>
     <use xlink:href="#DejaVuSans-3a" x="1517.822266"/>
     <use xlink:href="#DejaVuSans-20" x="1551.513672"/>
     <use xlink:href="#DejaVuSans-6f" x="1583.300781"/>
     <use xlink:href="#DejaVuSans-6e" x="1644.482422"/>
     <use xlink:href="#DejaVuSans-65" x="1707.861328"/>
     <use xlink:href="#DejaVuSans-20" x="1769.384766"/>
     <use xlink:href="#DejaVuSans-72" x="1801.171875"/>
     <use xlink:href="#DejaVuSans-65" x="1840.035156"/>
     <use xlink:href="#DejaVuSans-61" x="1901.558594"/>
     <use xlink:href="#DejaVuSans-6c" x="1962.837891"/>
     <use xlink:href="#DejaVuSans-69" x="1990.621094"/>
     <use xlink:href="#DejaVuSans-7a" x="2018.404297"/>
     <use xlink:href="#DejaVuSans-61" x="2070.894531"/>
     <use xlink:href="#DejaVuSans-74" x="2132.173828"/>
     <use xlink:href="#DejaVuSans-69" x="2171.382812"/>
     <use xlink:href="#DejaVuSans-6f" x="2199.166016"/>
     <use xlink:href="#DejaVuSans-6e" x="2260.347656"/>
    </g>
   </g>
   <g id="PathCollection_1">
    <defs>
     <path id="mfd93319f06" d="M 0 3.872983 
C 1.027127 3.872983 2.012324 3.464901 2.738613 2.738613 
C 3.464901 2.012324 3.872983 1.027127 3.872983 0 
C 3.872983 -1.027127 3.464901 -2.012324 2.738613 -2.738613 
C 2.012324 -3.464901 1.027127 -3.872983 0 -3.872983 
C -1.027127 -3.872983 -2.012324 -3.464901 -2.738613 -2.738613 
C -3.464901 -2.012324 -3.872983 -1.027127 -3.872983 0 
C -3.872983 1.027127 -3.464901 2.012324 -2.738613 2.738613 
C -2.012324 3.464901 -1.027127 3.872983 0 3.872983 
z
" style="stroke: #1f77b4"/>
    </defs>
    <g clip-path="url(#pc19c0e1920)">
     <use xlink:href="#mfd93319f06" x="437.389245" y="63.190516" style="fill: #1f77b4; stroke: #1f77b4"/>
    </g>
   </g>
   <g id="PathCollection_2">
    <defs>
     <path id="m784d7ecba8" d="M 0 -4.743416 
L -1.064963 -1.465796 
L -4.511257 -1.465796 
L -1.723147 0.559884 
L -2.78811 3.837505 
L -0 1.811824 
L 2.78811 3.837505 
L 1.723147 0.559884 
L 4.511257 -1.465796 
L 1.064963 -1.465796 
z
" style="stroke: #ff7f0e"/>
    </defs>
    <g clip-path="url(#pc19c0e1920)">
     <use xlink:href="#m784d7ecba8" x="493.181269" y="181.095119" style="fill: #ff7f0e; stroke: #ff7f0e"/>
    </g>
   </g>
  </g>
 </g>
 <defs>
  <clipPath id="pc19c0e1920">
   <rect x="370.562416" y="34.56" width="230.875169" height="262.656"/>
  </clipPath>
 </defs>
</svg>
